<svg id="f36e36b5-a914-4189-a8f7-2c7091a7d461" xmlns="http://www.w3.org/2000/svg" viewBox="0 0 676 676"><defs><style>.cls-1{fill:#e9b929;}.cls-2{opacity:0.2;isolation:isolate;}.cls-3{fill:#2f2e41;}.cls-4{fill:#d0cde1;}</style></defs><title>avatar_female</title><path class="cls-1" d="M676,338a337.1,337.1,0,0,1-24.55,126.7l-.11.26h0a336.44,336.44,0,0,1-42.79,75.64q-5.06,6.75-10.43,13.22c-1.31,1.58-2.64,3.15-4,4.7q-10.27,11.93-21.62,22.85-2.64,2.55-5.34,5l-1.26,1.16a337.46,337.46,0,0,1-27.65,22.7q-9.67,7.15-19.86,13.59-2.24,1.43-4.5,2.8-3.93,2.4-7.93,4.69-5.22,3-10.57,5.81c-1.44.77-2.89,1.51-4.34,2.25-2.12,1.09-4.25,2.14-6.4,3.17l-1.11.53c-1.4.68-2.82,1.34-4.24,2a335.26,335.26,0,0,1-57.46,20.39l-.32.08c-1.29.33-2.59.65-3.89,1-1,.24-2,.47-2.93.69a2.22,2.22,0,0,1-.37.09c-2,.47-4,.92-6.05,1.33l-3.42.71c-.69.15-1.39.28-2.08.41l-2.6.5c-.48.1-1,.18-1.45.26l-3.29.59c-1.86.32-3.74.63-5.61.91-1.36.21-2.71.41-4.07.6-1.6.23-3.2.44-4.81.64-.44.07-.88.12-1.32.17l-1.71.21c-1.15.14-2.3.27-3.46.39l-1.79.19-3.42.33c-1.47.14-2.94.26-4.42.38-1.8.14-3.59.27-5.4.38l-3.49.2c-3,.16-6,.27-9,.35-1.49,0-3,.07-4.49.09h0c-1.49,0-3,0-4.49,0a338.63,338.63,0,0,1-45.45-3q-16.57-2.22-32.62-6l-1.28-.31c-1.08-.25-2.15-.52-3.22-.79l-2.84-.74A335.16,335.16,0,0,1,182,637.91l-.34-.18c-.65-.34-1.29-.67-1.93-1q-2.11-1.11-4.21-2.26-11.92-6.56-23.24-14-2.91-1.9-5.76-3.87l-1.81-1.26L142.82,614q-2.48-1.76-4.92-3.55-10.12-7.44-19.65-15.61A339.54,339.54,0,0,1,59.09,529q-8.78-12.78-16.38-26.38A336.38,336.38,0,0,1,0,338C0,151.33,151.33,0,338,0S676,151.33,676,338Z"/><path class="cls-2" d="M392.35,666.63c1.08-.25,2.15-.52,3.22-.79l2.84-.74c0-2,.12-4.18.19-6.55.59-18.56,2-48.44,5.26-84.44q.27-2.9.54-5.83c1.17-12.2,2.54-25,4.18-38.33.05-.44.11-.87.16-1.31,1.33-10.78,2.84-21.85,4.54-33.13q1.79-11.83,3.86-23.93l.3-1.69c.4-2.33.81-4.65,1.23-7,1.17-6.51,2.42-13.06,3.73-19.61,4.61-23,10.1-46.22,16.65-68.77a550.18,550.18,0,0,1,24.53-68.61,338.57,338.57,0,0,1,26.74-49.83l.45-.68c13.15-19.81,28.18-36.62,45.34-49.19l-3.56-4.86q-24.66,18.08-45.24,48.1l-.2.29A327.27,327.27,0,0,0,460.19,298a528,528,0,0,0-25.68,69.37q-9.84,33-17.65,71.57-2.75,13.57-5.24,27.82l-.84,4.87s0,.05,0,.07c-.43,2.5-.84,5-1.26,7.53q-1.56,9.56-2.94,19-2.13,14.49-3.85,28.48-.57,4.62-1.1,9.17-.75,6.42-1.42,12.67-.94,8.7-1.73,17l-.15,1.53-.24,2.63C394,613.49,392.75,648.86,392.35,666.63Z"/><path class="cls-2" d="M469,637.91l.34-.18c2.06-1.07,4.1-2.16,6.14-3.28.67-8,1.57-16.75,2.75-26,.25-1.9.5-3.83.78-5.77.14-1,.29-2.09.44-3.15,1.18-8.12,2.58-16.5,4.26-24.92,6.83-34.36,18.17-69.48,37-91.16,1-1.17,2-2.29,3.11-3.38a67.17,67.17,0,0,1,8.61-7.55l-3.56-4.85a76.9,76.9,0,0,0-11.8,10.79q-1.87,2.08-3.66,4.34c-17.33,21.81-28.15,54.1-34.89,86.07-1.76,8.34-3.24,16.67-4.5,24.78q-.48,3.18-.92,6.3C471.16,613.72,469.87,626.7,469,637.91Z"/><circle class="cls-2" cx="569.74" cy="175.98" r="30.09"/><circle class="cls-2" cx="560.05" cy="434.99" r="30.09"/><path class="cls-2" d="M450.29,226.52c6.38,36-7.71,68.59-7.71,68.59s-24.43-25.76-30.81-61.76,7.71-68.59,7.71-68.59S443.91,190.52,450.29,226.52Z"/><path class="cls-2" d="M550.28,312c-34.33,12.56-68.83,4.5-68.83,4.5s21.16-28.41,55.5-41,68.83-4.5,68.83-4.5S584.62,299.42,550.28,312Z"/><path class="cls-2" d="M556.1,541.33c-24.06,8.8-48.28,3.06-48.28,3.06s14.8-20,38.87-28.81S595,512.52,595,512.52,580.17,532.53,556.1,541.33Z"/><path class="cls-3" d="M440,536.27l1.22.63C441.06,538.2,440.77,539,440,536.27Z"/><path class="cls-3" d="M441.57,536.69c0,.14,0,.29,0,.43l-.43-.22c0-.13,0-.27,0-.41C441.32,534.74,441.2,532.67,441.57,536.69Z"/><circle class="cls-3" cx="311.68" cy="324.64" r="164.21"/><circle class="cls-4" cx="325.2" cy="382.71" r="99.44"/><path class="cls-4" d="M552.27,573.31l-.12,0L529,578.89l-48.16,11.56L474.29,592,401.05,609.6l-6.22,1.5L217.14,653.74A332.62,332.62,0,0,1,182,637.91l-.34-.18c-.65-.34-1.29-.67-1.93-1q-2.11-1.11-4.21-2.26-11.92-6.56-23.24-14-2.91-1.9-5.76-3.87l-1.81-1.26L142.82,614q-2.48-1.76-4.92-3.55c17.26-31.37,58.36-52.22,99.46-63.63,31-8.62,37.84-36.95,37.25-62.16a147.44,147.44,0,0,0-1.46-17.18,167.67,167.67,0,0,0-6-26.74L366.64,444l10.26,23.64a53.76,53.76,0,0,0-.27,7.82c.78,19.39,12.75,31.93,27.52,40,1.92,1.05,3.89,2,5.89,2.94,24.22,11,52.73,11.76,52.73,11.76a101.73,101.73,0,0,1,26.09.49q3.15.48,6.12,1.15a88.07,88.07,0,0,1,32.11,14.37,91.49,91.49,0,0,1,10.41,8.63A82.47,82.47,0,0,1,552.27,573.31Z"/><path class="cls-4" d="M567.19,586.42l-1.26,1.16a337.46,337.46,0,0,1-27.65,22.7q-9.67,7.15-19.86,13.59-2.24,1.43-4.5,2.8-3.93,2.4-7.93,4.69-5.22,3-10.57,5.81c-1.44.77-2.89,1.51-4.34,2.25-2.12,1.09-4.25,2.14-6.4,3.17l-1.11.53-4.23-3.51L529,578.89l10-12.21s4,0,13.14,6.66a130.23,130.23,0,0,1,14.3,12.34Z"/><path class="cls-3" d="M566.49,585.74a10.84,10.84,0,0,1-.56,1.84,337.46,337.46,0,0,1-27.65,22.7,117.86,117.86,0,0,1-25.79,6.13s.75,3.76,1.43,10.26q-3.93,2.4-7.93,4.69-5.22,3-10.57,5.81c-1.44.77-2.89,1.51-4.34,2.25-2.12,1.09-4.25,2.14-6.4,3.17l-1.11.53c-1.4.68-2.82,1.34-4.24,2a335.26,335.26,0,0,1-57.46,20.39l-.32.08c-1.29.33-2.59.65-3.89,1-1,.24-2,.47-2.93.69a2.22,2.22,0,0,1-.37.09c-2,.47-4,.92-6.05,1.33l-3.42.71c-.69.15-1.39.28-2.08.41l-2.6.5c-.48.1-1,.18-1.45.26l-3.29.59c-1.86.32-3.74.63-5.61.91-1.36.21-2.71.41-4.07.6-1.6.23-3.2.44-4.81.64-.44.07-.88.12-1.32.17l-1.71.21c-1.15.14-2.3.27-3.46.39l-1.79.19-3.42.33c-1.47.14-2.94.26-4.42.38-1.8.14-3.59.27-5.4.38l-3.49.2c-3,.16-6,.27-9,.35-1.49,0-3,.07-4.49.09h0c-1.49,0-3,0-4.49,0a338.63,338.63,0,0,1-45.45-3q-16.57-2.22-32.62-6l-1.28-.31c-1.08-.25-2.15-.52-3.22-.79l-2.84-.74A335.16,335.16,0,0,1,182,637.91l-.34-.18c-.65-.34-1.29-.67-1.93-1,54.89-12.79,141.63-33,216.9-50.24l6.29-1.44c27.8-6.38,53.84-12.32,75.87-17.29l6.7-1.5c23.67-5.32,42-9.36,52-11.38q4-.92,8.14-1.43l20.81,32.25Z"/><circle class="cls-3" cx="161.45" cy="205.85" r="48.91"/><circle class="cls-3" cx="461.92" cy="191.88" r="48.91"/><path class="cls-3" d="M409.51,170.91a48.91,48.91,0,0,1,43.67-48.62,48.91,48.91,0,0,0-10.62,97.25,49.61,49.61,0,0,0,10.62,0A48.91,48.91,0,0,1,409.51,170.91Z"/><path class="cls-3" d="M106.8,245.42a48.91,48.91,0,0,1-2.84-65.3A48.91,48.91,0,1,0,172,249.58,48.9,48.9,0,0,1,106.8,245.42Z"/><path class="cls-3" d="M311.68,247.78c-57.88,0-104.81,27.37-104.81,61.14,0,15.11,9.43,28.92,25,39.58l20.18-14.62-5.49,22.91c2.28,1,4.6,2.07,7,3l30.14-35.17v43.2a174.51,174.51,0,0,0,27.95,2.22c57.89,0,104.82-27.37,104.82-61.14S369.57,247.78,311.68,247.78Z"/><path class="cls-3" d="M413,191.88s-7.59,34.93,39.88,48.91Z"/><path class="cls-3" d="M206.87,198.24s17.47,39.06-34.94,56.52Z"/><ellipse class="cls-4" cx="227.41" cy="402.6" rx="8.29" ry="19.89" transform="translate(-100.12 76.21) rotate(-15.64)"/><ellipse class="cls-4" cx="426.3" cy="386.03" rx="19.89" ry="8.29" transform="translate(14.8 787.79) rotate(-86.48)"/></svg>