<svg id="Capa_1" data-name="Capa 1" xmlns="http://www.w3.org/2000/svg" xmlns:xlink="http://www.w3.org/1999/xlink" viewBox="0 0 1366 768"><defs><style>.cls-1{fill:none;}.cls-2{clip-path:url(#clip-path);}.cls-3{fill:#e9b92a;}.cls-14,.cls-15,.cls-4,.cls-5{fill:#f9a826;}.cls-19,.cls-23,.cls-4{opacity:0.1;}.cls-10,.cls-11,.cls-12,.cls-14,.cls-18,.cls-19,.cls-4{isolation:isolate;}.cls-6{fill:#43c44c;}.cls-7{fill:#444053;}.cls-24,.cls-8{fill:#fff;}.cls-15,.cls-8{stroke:#000;stroke-miterlimit:10;}.cls-9{fill:#3f3d56;}.cls-10{fill:#fa5959;}.cls-10,.cls-11,.cls-12{opacity:0.8;}.cls-11{fill:#fed253;}.cls-12{fill:#8ccf4d;}.cls-13,.cls-14{opacity:0.2;}.cls-16{fill:url(#Degradado_sin_nombre);}.cls-17{fill:#65617d;}.cls-18,.cls-27{opacity:0.05;}.cls-20{fill:#ee8e9e;}.cls-21{fill:#e3e8f4;}.cls-22{fill:#565387;}.cls-25{fill:url(#Degradado_sin_nombre_2);}.cls-26{fill:#2d293d;}.cls-28{fill:#ffcdd3;}.cls-29{fill:#dce6f2;}.cls-30{fill:#575988;}.cls-31{fill:#656691;}.cls-32{fill:url(#Degradado_sin_nombre_3);}.cls-33{fill:#4c4981;}.cls-34{fill:#ae6e79;}.cls-35{clip-path:url(#clip-path-2);}.cls-36{fill:#fefefe;}.cls-37{fill:#f9fafa;}.cls-38{fill:#001d35;}.cls-39{fill:#204155;}.cls-40{fill:#fbfcfc;}.cls-41{font-size:32.18px;font-family:BodoniSvtyTwoSCITCTT-Book, "Bodoni 72 Smallcaps";}</style><clipPath id="clip-path"><path class="cls-1" d="M1197,522.93c0-79.25,172.3-54.5,217.5-30,77.5,42,150.5,64.25,150.5,143.5s-67.38,143.5-150.5,143.5S1197,602.18,1197,522.93Z"/></clipPath><linearGradient id="Degradado_sin_nombre" x1="645.69" y1="849.92" x2="645.69" y2="653.06" gradientTransform="translate(-36.6 -131.2)" gradientUnits="userSpaceOnUse"><stop offset="0" stop-color="gray" stop-opacity="0.25"/><stop offset="0.54" stop-color="gray" stop-opacity="0.12"/><stop offset="1" stop-color="gray" stop-opacity="0.1"/></linearGradient><linearGradient id="Degradado_sin_nombre_2" x1="-95.11" y1="826.3" x2="-95.11" y2="416.59" gradientTransform="translate(1015.95 -109.9) rotate(-2.2)" xlink:href="#Degradado_sin_nombre"/><linearGradient id="Degradado_sin_nombre_3" x1="409.09" y1="854.37" x2="409.09" y2="478.98" xlink:href="#Degradado_sin_nombre"/><clipPath id="clip-path-2"><rect class="cls-1" x="-0.54" y="-90.67" width="289.23" height="768"/></clipPath></defs><title>banner1.2</title><g class="cls-2"><rect class="cls-3" x="1185" y="446.93" width="180" height="333"/></g><path class="cls-4" d="M802.24,276.81c-62.11.5-121.77-14.33-178.81-30.85S509.79,210.88,448.91,203.3c-39.16-4.89-83.72-4.13-114.52,14.84-29.62,18.23-38.37,48.1-42.7,75.68-3.26,20.75-4.85,42.52,6.61,61.41,8,13.1,21.67,23.86,31.32,36.34,33.58,43.44,12.75,99.33-20.54,144.2-15.59,21-33.85,41.26-45.74,63.51s-16.83,47.39-5.08,69.17c11.65,21.6,38.21,37.14,66.78,47.7,58,21.46,125.66,25.69,191.53,27,145.82,3,292-6.16,437.81-15.3,54-3.38,108.16-6.8,161-15.9,29.37-5.06,59.62-12.46,80.53-28.38,26.54-20.21,32.2-53,13.16-76.34-31.92-39.21-116.73-46.07-139.55-88.58-12.56-23.41-1.37-50.42,14.92-73.17,35.06-48.82,95.09-92.73,96.51-147.09,1-37.32-29.85-73.51-76.08-89.42-48.48-16.69-114.78-11.85-149.07,20.06C920.59,261.86,857.09,276.37,802.24,276.81Z"/><path class="cls-5" d="M1046.73,667.1s-10.79-7.52-21.47-2.18c0,0,3.29,6.7,16.82,6.06Z"/><path class="cls-5" d="M1048.06,667.5s3.28,13.2-4.94,22.19c0,0-4.95-5.45,0-18.78Z"/><path class="cls-5" d="M1061.51,654.82s-.79-11.23-24.8-7.51c0,0-.11,7.26,8.32,10.68S1057.31,658.53,1061.51,654.82Z"/><path class="cls-5" d="M1063,654.74s10.14,3.44,1.09,27.23c0,0-6.68-1.58-7.9-11S1058.6,658.19,1063,654.74Z"/><path class="cls-5" d="M1076.58,638.81s1.37-18.49-23.15-16.59c0,0-1.76,16.69,18.83,21Z"/><path class="cls-6" d="M1092.75,618s-3.36-21-27.87-14.7c0,0-.1,18.11,23.87,19.69Z"/><path class="cls-6" d="M1104.64,596.38s-5.64-20.4-29.93-14.3c0,0,5.78,18.35,28.31,18.07Z"/><path class="cls-6" d="M1115.89,575.31s-5.5-21.16-29-14.84c0,0,7.83,20.11,27.41,18.43Z"/><path class="cls-6" d="M1123.15,555.3s-4.23-25.89-26.11-20.16c0,0,6.35,23.56,24.49,23.93Z"/><path class="cls-6" d="M1129.94,531.13s-5.08-26.1-27.21-18.55c0,0,8.68,24.66,25.65,22.12Z"/><path class="cls-6" d="M1134.15,508.62s-8.07-26.09-25.17-25.39c0,0,8.25,27.57,23.7,30.6Z"/><path class="cls-6" d="M1136.84,486.68s-8.78-31.41-22.71-29c0,0,6.08,24,22.2,33.89Z"/><path class="cls-6" d="M1138.39,460.45s-8.22-26.17-21.93-27.23c0,0,5.58,25.76,21.65,34Z"/><path class="cls-6" d="M1140,436.09s-10.26-26.2-19.3-26.8c0,0,4.45,25.8,18.43,31.1Z"/><path class="cls-6" d="M1141.16,413.31s-6.31-28.47-15.39-30.82c0,0,1.24,23.28,14.47,32.95Z"/><path class="cls-6" d="M1144.54,383.55s-6.64-22.68-14-26.14c0,0,1.45,26.74,12.29,31.69Z"/><path class="cls-6" d="M1147.4,364l1.35-40s-13.71,30.19-2.35,47.06Z"/><path class="cls-6" d="M1158,324.26s9.88-29.2,12.29-30.84c0,0-19.4,19-17.5,43.33Z"/><path class="cls-6" d="M1077.25,638.67s17.4-2.41,16.88,23.57c0,0-15.72,2.7-20.85-18.79Z"/><path class="cls-6" d="M1093.63,617.24s20.11-.06,18.44,26.52c0,0-16.88,3.18-22.45-21.49Z"/><path class="cls-6" d="M1104.83,598.09s18.25-9,29.93,14.3c0,0-16.86,7.53-31.54-10.53Z"/><path class="cls-6" d="M1116.29,575.51s18.69-9.62,29.66,13.17c0,0-19.46,7.08-31.19-9.57Z"/><path class="cls-6" d="M1122.91,555.87s18-18.15,32.34.2c0,0-18.38,14.93-33.17,3.84Z"/><path class="cls-6" d="M1128.92,530.51s18.1-18.55,32.33.86c0,0-20.31,15.23-33,3Z"/><path class="cls-6" d="M1132.31,507.89s13.94-23.18,30.34-18c0,0-14.45,24.54-30.19,23.45Z"/><path class="cls-6" d="M1136.42,486.53s14-29.21,27.32-24.11c0,0-10.12,22.44-27.68,29Z"/><path class="cls-6" d="M1137.39,459s14.44-23,28-20.18c0,0-11.81,23.31-29.36,26.82Z"/><path class="cls-6" d="M1138.48,435.52s11.19-25.78,20.29-26c0,0-5.37,25.6-19.53,30.34Z"/><path class="cls-6" d="M1140.7,412.75s12.44-26.13,21.78-26.17c0,0-6.36,22.33-21.36,28.46Z"/><path class="cls-6" d="M1142.57,385.15s9.3-21.6,17-24c0,0-4.65,26.34-16,29.78Z"/><path class="cls-6" d="M1148.51,363.25l20.79-33.46s-5.32,33-23.81,39.87Z"/><path class="cls-6" d="M1162.78,327s24.16-17.62,25-20.48c0,0-12.29,24.68-35.1,29Z"/><path class="cls-6" d="M1164.23,319s27.74-28.17,34.82-28.14c0,0-22.88,1.11-35.49,26.65Z"/><path class="cls-7" d="M1142.84,389.33l1,.14c5.21-43.11,12.81-68.62,21.4-71.75l-.32-1C1155.82,320.05,1148.18,345.16,1142.84,389.33Z"/><path class="cls-7" d="M1135.18,492.42l1.53.13c.32-4,.56-8.14.73-12.25,1.45-35.69,3.71-68.45,6.68-93l-.88-1.16c-3,24.61-5.87,58.37-7.33,94.11C1135.76,484.31,1135.5,488.43,1135.18,492.42Z"/><path class="cls-7" d="M1018.25,687.61c.27-.11,27.16-12.8,55-43.06a234.85,234.85,0,0,0,40.25-60.27c12.89-27.75,20.76-61.86,23.4-95l-1.6.78c-5.92,74.36-38,125.18-63.44,152.86-27.63,30-54.21,42.53-54.47,42.66Z"/><path class="cls-8" d="M1082.62,185.16V665.87c0,14.29-13,26-29.16,26H436.11c-16.12,0-29.17-11.63-29.17-26V185.16c0-14.32,13.05-28.93,29.17-28.93l617.31,1.59C1069.53,157.82,1082.62,170.89,1082.62,185.16Z"/><path class="cls-9" d="M1082.62,185.31v22.25H406.94V185.31c0-16.05,12.32-29.07,27.52-29.07h620.65C1070.3,156.24,1082.62,169.26,1082.62,185.31Z"/><ellipse class="cls-10" cx="439.68" cy="181.89" rx="9.73" ry="10.28"/><ellipse class="cls-11" cx="467.97" cy="181.89" rx="9.73" ry="10.28"/><ellipse class="cls-12" cx="496.26" cy="181.89" rx="9.73" ry="10.28"/><g class="cls-13"><path class="cls-5" d="M804.88,332.23v51.93c0,1.55-2.76,2.78-6.15,2.78H669.07c-3.39,0-6.14-1.25-6.14-2.78V332.23c0-1.55,2.74-3.12,6.14-3.12H798.72C802.13,329.1,804.88,330.67,804.88,332.23Z"/></g><rect class="cls-5" x="725.23" y="347.64" width="67.54" height="2.52"/><path class="cls-14" d="M691.06,342.11c-8.84,0-16,7.59-16,16.94a17.18,17.18,0,0,0,7.18,14.1V372a3.76,3.76,0,0,1,3.2-3.81,6.19,6.19,0,0,0,8.63,2.66,6.53,6.53,0,0,0,2.52-2.66,3.79,3.79,0,0,1,3.21,3.81v1.19a17.52,17.52,0,0,0,4.7-23.42,15.89,15.89,0,0,0-13.43-7.69Zm6.29,21.47a6.34,6.34,0,0,1-12.67,0,7.52,7.52,0,0,1,3.42-9.74l.22-.1a2.35,2.35,0,0,1-.34-1.21,2.19,2.19,0,0,1,2.11-2.24h.16a2.2,2.2,0,0,0-2,2.23,2.4,2.4,0,0,0,.28,1.11h.06a3.23,3.23,0,0,1,0-.44,2.3,2.3,0,0,1,.41-1.3,2.12,2.12,0,0,1,2-1.58h.15a2.1,2.1,0,0,0-1.62,1,1.94,1.94,0,0,1,1.17-.37,2.17,2.17,0,0,1,2.11,2.24v.25a7.3,7.3,0,0,1,5.17,7.1A7.82,7.82,0,0,1,697.35,363.58Z"/><rect class="cls-14" x="725.23" y="353.79" width="67.54" height="2.52"/><rect class="cls-14" x="725.23" y="359.92" width="67.54" height="2.52"/><rect class="cls-14" x="725.23" y="366.07" width="67.54" height="2.52"/><g class="cls-13"><path class="cls-5" d="M652.67,433.93v51.93c0,1.54-2.74,2.78-6.14,2.78H516.87c-3.39,0-6.14-1.26-6.14-2.78V433.93c0-1.55,2.74-3.13,6.14-3.13H646.54C649.93,430.8,652.67,432.38,652.67,433.93Z"/></g><rect class="cls-5" x="573.02" y="449.35" width="67.54" height="2.52"/><path class="cls-14" d="M538.86,443.81c-8.84,0-16,7.58-16,16.92a17.18,17.18,0,0,0,7.2,14.13v-1.14a3.77,3.77,0,0,1,3.2-3.8,6.18,6.18,0,0,0,8.63,2.67,6.49,6.49,0,0,0,2.52-2.67,3.79,3.79,0,0,1,3.21,3.8v1.2a17.49,17.49,0,0,0,4.71-23.4A15.84,15.84,0,0,0,538.86,443.81Zm6.28,21.46a6.34,6.34,0,0,1-12.67,0,7.78,7.78,0,0,1-.62-3.06,7.39,7.39,0,0,1,4.26-6.79,2.27,2.27,0,0,1,1.78-3.44h.16a2.19,2.19,0,0,0-2,2.38,2.42,2.42,0,0,0,.27,1h.07a3.19,3.19,0,0,1,2.42-3.32h.08a2.1,2.1,0,0,0-1.62,1,2,2,0,0,1,1.16-.36,2.17,2.17,0,0,1,2.12,2.24h0v.25a7.59,7.59,0,0,1,4.54,10.2Z"/><rect class="cls-14" x="573.02" y="455.48" width="67.54" height="2.52"/><rect class="cls-14" x="573.02" y="461.62" width="67.54" height="2.52"/><rect class="cls-14" x="573.02" y="467.76" width="67.54" height="2.52"/><g class="cls-13"><path class="cls-15" d="M617.66,269.25v51.93c0,1.54-2.74,2.78-6.14,2.78H481.88c-3.38,0-6.14-1.26-6.14-2.78V269.25c0-1.55,2.75-3.13,6.14-3.13H611.53C614.92,266.12,617.66,267.7,617.66,269.25Z"/></g><rect class="cls-5" x="538.02" y="284.67" width="67.54" height="2.52"/><rect class="cls-14" x="538.02" y="290.82" width="67.54" height="2.52"/><rect class="cls-14" x="538.02" y="296.95" width="67.54" height="2.52"/><rect class="cls-14" x="538.02" y="303.09" width="67.54" height="2.52"/><path class="cls-14" d="M503.83,279.14c-8.86.05-16,7.67-16,17a17.22,17.22,0,0,0,7.17,14v-2.87a3.78,3.78,0,0,1,3.21-3.81,6.18,6.18,0,0,0,8.63,2.67,6.62,6.62,0,0,0,2.52-2.67,3.77,3.77,0,0,1,3.2,3.81v2.94a17.52,17.52,0,0,0,4.7-23.42A15.8,15.8,0,0,0,503.83,279.14Zm7,20.65a1.29,1.29,0,0,1-.22.3.94.94,0,0,1-.46.16h-.33a6.32,6.32,0,0,1-7.93,4.49,6.68,6.68,0,0,1-4.53-6.4,6.89,6.89,0,0,1,.84-3.3l-.07-.05a2.33,2.33,0,0,1,.21-3.11,4.16,4.16,0,0,1,1.32-.51,5.93,5.93,0,0,0,3.33-2.71,8.68,8.68,0,0,1,0,1,1.36,1.36,0,0,1,2-.09h0a3.49,3.49,0,0,0,.57.69,1.64,1.64,0,0,0,.71.22l1.59.21a3,3,0,0,1,1.82.7,2.89,2.89,0,0,1,.61,1.13,16.85,16.85,0,0,1,1.05,3.57,6,6,0,0,1-.48,3.65Z"/><g class="cls-13"><path class="cls-5" d="M840.31,514.91v51.93c0,1.55-2.74,2.78-6.14,2.78H704.5c-3.39,0-6.14-1.25-6.14-2.78V514.91c0-1.55,2.74-3.12,6.14-3.12H834.18C837.57,511.74,840.31,513.31,840.31,514.91Z"/></g><rect class="cls-5" x="760.66" y="530.28" width="67.54" height="2.52"/><rect class="cls-14" x="760.66" y="536.41" width="67.54" height="2.52"/><rect class="cls-14" x="760.66" y="542.56" width="67.54" height="2.52"/><rect class="cls-14" x="760.66" y="548.7" width="67.54" height="2.52"/><path class="cls-14" d="M726.48,524.75c-8.84,0-16,7.58-16,16.93a17.18,17.18,0,0,0,7.18,14.1v-2.86a3.78,3.78,0,0,1,3.21-3.8,6.18,6.18,0,0,0,8.63,2.66,6.66,6.66,0,0,0,2.52-2.66,3.77,3.77,0,0,1,3.2,3.8v2.93a17.5,17.5,0,0,0,4.7-23.41,15.84,15.84,0,0,0-13.43-7.69Zm7,20.65a.93.93,0,0,1-.22.3.86.86,0,0,1-.46.17h-.33a6.32,6.32,0,0,1-7.87,4.59,6.78,6.78,0,0,1-4.34-8.31,6.27,6.27,0,0,1,.6-1.5h-.07a2.33,2.33,0,0,1,.21-3.11,4.41,4.41,0,0,1,1.32-.51,5.89,5.89,0,0,0,3.33-2.69,8.68,8.68,0,0,1,0,1,1.36,1.36,0,0,1,2-.09h0a3.67,3.67,0,0,0,.57.68,1.79,1.79,0,0,0,.7.22l1.6.21a2.89,2.89,0,0,1,1.82.7,3.11,3.11,0,0,1,.61,1.13,17.11,17.11,0,0,1,1,3.58,5.91,5.91,0,0,1-.5,3.59h0Z"/><path class="cls-16" d="M687.4,685l-19.26-29.5s-.35-7.3-1.62-9-.27-5.51-.27-5.51,1.35-2.08.18-2.27-.18-4.85-.18-4.85l-.09-7.42s1.07-7.12.18-8.82a2.92,2.92,0,0,1,.09-3s1.07-4.08,0-5.13-.81-7.42-.54-12.42-1.89-7.88-1.89-8.63-7.11-8.15-7.11-8.82-4.51-3.41-7.21-4.17-4-1.33-4-1.71-4.23-1.85-4.23-1.85-3.78-.29-5.22-2.27-5.84-2.58-6-2.59l-.08-.4-.08-.42c.33-.6.65-1.22.94-1.85.09-.2.17-.38.25-.58a7.46,7.46,0,0,0,4.43-1.45,6.45,6.45,0,0,0,2.15-4.55,10.49,10.49,0,0,0-1-5.06c-.8-1.7-2-3.47-1.55-5.32a23.32,23.32,0,0,1,.88-2.28,6.34,6.34,0,0,0-.65-4.5c-.68-1.37-1.63-2.58-2.38-3.92a15.68,15.68,0,0,1-1.9-5.56,8.93,8.93,0,0,0-.7-3,5.67,5.67,0,0,0-1.58-1.69,15.27,15.27,0,0,0-9.66-3.1c-2.45.1-4.9.79-7.33.48a25.51,25.51,0,0,1-4.27-1.18c-3-.93-6.5-1.34-9.12.49s-3.69,5.42-5.47,8.23c-1.58,2.48-3.88,4.56-5.08,7.19v-.15a9.3,9.3,0,0,0-.67,1.92,14.48,14.48,0,0,0,.4,6.28,4.38,4.38,0,0,0,1.45,2.78c.88.6,2.1.47,3.15.66,0,.17-.09.36-.13.54a22.13,22.13,0,0,0-.44,4.52c0,9.61,6,18.08,14.69,20.83v.57a14.57,14.57,0,0,1-.09,1.63h0s-9-2-11.47-.63-7.2,2.36-7.9,3.13-2.52.19-4.15,4.64-1.8,9-3.86,11.13-3.15,3.51-3.25,5,.28,1.85-.53,2.36-2,2.47-1.63,3.22a2.76,2.76,0,0,1-1,2.85,3.24,3.24,0,0,0-1.26,2.85s-.55,2.08-1.8,2.56-2.08,3.6-2.08,3.6l-4.08,5-8.08-9.45a3.3,3.3,0,0,0-4.82-.27l-4,3.74a7.88,7.88,0,0,0-4,2.5,10.93,10.93,0,0,0-2.05,3.24l-2.18,2.06a6.06,6.06,0,0,0-.56,6.44l5.19,6.06v.05a8.91,8.91,0,0,0-5,2.15c-7.73,7.22-7.83,13.86-6.66,16.89s11,14.7,11,14.7,5.69,7.83,13.92,12h0l-.06.07c-.16.19-.33.38-.48.59l-.14.19a.83.83,0,0,0-.13.18l-.14.22-.12.19-.15.28-.1.17-.18.37a1.3,1.3,0,0,0-.06.12s-.15.34-.22.52l-.08.19a.91.91,0,0,1-.15.37l-.07.25a1.33,1.33,0,0,1-.12.37l-.08.27c0,.13-.07.27-.1.42a2.27,2.27,0,0,1-.06.25l-.15.69a1.22,1.22,0,0,0,0,.27,4.17,4.17,0,0,0-.08.49,1,1,0,0,1,0,.34,1.7,1.7,0,0,0-.06.48,2.16,2.16,0,0,0,0,.36v1.8c-.19,11.13.42,12.71.42,12.71a5.89,5.89,0,0,0,4.78,3.78,6.11,6.11,0,0,0,1.54-.08c4.68-.87,15.66-2.85,19.53-2.09,2.32.46,6.63-.22,9.69-.83l.81-.16.56,1.85,1.75-.53L594,709l1,.57c1.76,6.37,9,4.2,9,4.2l1.72,1,17.36.48a33.77,33.77,0,0,0,6.14,3.12,4.75,4.75,0,0,0,.89.2,37.06,37.06,0,0,0,4.83.1c1.34,0,2.36-.1,2.36-.1s-.17-5-.42-10.56A131.65,131.65,0,0,0,653,706.64c9.28-1.73,13.16-10.64,14.56-15.39a46.8,46.8,0,0,1,.89,5.91,43.06,43.06,0,0,0,1.44,5.11,17.16,17.16,0,0,0,2,3.8c6.84-2.47,2.7-6.17,1.26-7.78s1-2.94,1-2.94,1.9-1.33,1.75-2.56-.27-2.56,5.86-2.47S687.4,685,687.4,685Zm-95-60.57c.08.54.93,6.39,1.7,7.92a10.64,10.64,0,0,1,.21,3.13c-3.63-.31-7.4-.47-7.4-.47a1,1,0,0,1,.19.49l-.57-.13-.83-.22,6.68-10.73Zm-13.24,22.25,6.27,1.06.53.08a25.32,25.32,0,0,0-.33,3.14c0,.1.13.21.34.35a11.73,11.73,0,0,0-.13,1.57c.11.53,3,1.65,6.4,2.6-.05.19-.09.37-.13.55h0c-3-1.65-7.65-2.42-8.2-3.65s-16.46-7.11-16.46-7.11-.59-.32-1.59-.83l4.19.83,1.15-.11a63.82,63.82,0,0,0,8,1.52Z"/><path class="cls-17" d="M666.91,689.16s-2.5,15.94-15.16,18.29-55,1.85-55,1.85-24.16-3.71-32.91-25.25-14.36-30.16-6.87-30.53,47.91,14.42,50.23,14.61S669.14,635.36,666.91,689.16Z"/><path class="cls-18" d="M666.91,689.16s-2.5,15.94-15.16,18.29-55,1.85-55,1.85-24.16-3.71-32.91-25.25-14.36-30.16-6.87-30.53,47.91,14.42,50.23,14.61S669.14,635.36,666.91,689.16Z"/><path class="cls-9" d="M553.53,706.84a5.83,5.83,0,0,0,4.71,3.8,5.22,5.22,0,0,0,1.53-.1c4.63-.84,15.52-2.78,19.36-2.06,2.3.45,6.58-.22,9.65-.82,2-.4,3.51-.78,3.51-.78s-3.56-12.53-4-12.91-16.09-10.32-16.09-10.32l-12.37-.93h0a6.4,6.4,0,0,0-4.18,2.61c-1.31,1.66-2.43,4.41-2.5,8.89C552.92,705.28,553.53,706.84,553.53,706.84Z"/><path class="cls-18" d="M553.53,706.84a5.83,5.83,0,0,0,4.71,3.8,55,55,0,0,1-3.35-5.17l.06-9.15a16.63,16.63,0,0,1,4.87-13.59h0s-6.51.48-6.68,11.5S553.53,706.84,553.53,706.84Z"/><path class="cls-19" d="M607.15,686.9l11.51-9.51,18.1-18.85-4.91-.24c-.74.5-2.79,2.06-2.87,4-.09,2.29-4.89.15-7.39,1.47s-14.72,17.84-16.84,17.73-3.84-1.15-4.72.46L600,682Z"/><path class="cls-19" d="M555.61,685.36l1.25.6c8.77,4,19.53,12.25,20.33,13.76.49.93,6.75,4.93,11.57,7.94,2-.4,3.51-.78,3.51-.78s-3.56-12.53-4-12.91-16.08-10.32-16.08-10.32l-12.37-.93h0A6.55,6.55,0,0,0,555.61,685.36Z"/><path class="cls-17" d="M531.32,658.35c1.17,3,10.89,14.61,10.89,14.61s6.14,8.48,14.92,12.45,19.54,12.25,20.33,13.76c.51.93,7.49,5.4,12.39,8.45l1.1.68,2.43,1.49,1.29.77s3-2.53,6-5.08,5.86-5.05,5.91-5.19,1.25-3.48,1-3.71-.75-1.4-1.88-2.91a12.72,12.72,0,0,0-4.54-4,13.3,13.3,0,0,1-5.88-6.49s-.4-.3-1-.7a11.71,11.71,0,0,0-4-1.85c-2-.26-5.62-4.49-5.62-4.49a11.26,11.26,0,0,1-3.51-3.87c-.94-2.06-14.77-12-16.05-13L598.62,682l8,5.44,11.5-9.51,18.11-18.86-6-.28c-8.78-.41-24.43-1-26.4-.56a14.29,14.29,0,0,1-4.92.33s-4.45.21-7.4-1.43-7.59-2.41-8.12-3.62-16.32-7.06-16.32-7.06-21.5-12.05-29.17-4.89S530.15,655.34,531.32,658.35Z"/><path class="cls-20" d="M600.64,589.17l2.76,9.71L607,620.74l13.11.93,3.8-6.65,3.78-6.63s2.37-8.83,4.07-17.39c1.5-7.55,2.48-14.89.88-15.7s-2.39-3.25-3-6c-.08-.33-.14-.68-.21-1a55.34,55.34,0,0,1-.88-7s-27.48-1.51-23.65,10.46a19.85,19.85,0,0,1,1,6.36,14.84,14.84,0,0,1-.09,1.63A13.67,13.67,0,0,1,600.64,589.17Z"/><path class="cls-21" d="M594.93,587.57l1,16.5,2.23,14,2.5,6.49,2.23,35.56s21.5,2.64,26.73,0a2.23,2.23,0,0,0,.95-.77c6.32-10.08,4.25-39.27,4.25-39.27l2.44-18.88-1.61-9.78-3.89-.44-3-.33s-.68.88-1.64,2.24c-2.63,3.71-7.51,11-7.18,14,.44,4.14-.54,8.35-2.06,9s-2.76,1.8-3,.66a5.32,5.32,0,0,1-.27-3c.27-1.61-1.16-6.49-1.16-6.49s-2.41-5.75-2.23-8.19-.26-5.28-1-5.94-1.69-1.33-.88-4.34-3.51-8.88-3.51-8.88Z"/><path class="cls-19" d="M623.34,628.76l.88,28.18,5.15,3a2.25,2.25,0,0,0,1-.78c6.31-10.09,4.25-39.27,4.25-39.27l2.4-18.85-1.6-9.79-3.89-.43c1.5-7.56,2.48-14.89.88-15.69s-2.4-3.26-3-6h0l-2.79,19.93s.23,1.79.32,3.64a10.64,10.64,0,0,1-.23,3.51,12.47,12.47,0,0,0-.18,4.71c-1.6,3-2.41,8.54-2.8,13.91C623.13,622,623.34,628.76,623.34,628.76Z"/><path class="cls-9" d="M629.42,568.69s4.49.59,5.92,2.56,5.18,2.27,5.18,2.27,4.28,1.51,4.18,1.85,1.26.93,3.94,1.7,7.13,3.48,7.13,4.15,7,8,7,8.77,2.13,3.58,1.87,8.57-.54,11.3.53,12.34,0,5.09,0,5.09a2.93,2.93,0,0,0-.09,3c.88,1.69-.18,8.76-.18,8.76l.09,7.35s-1,4.64.18,4.81-.18,2.27-.18,2.27-1,3.77.27,5.47,1.6,9,1.6,9L686,685.93s.26,5.37-5.81,5.28-6,1.22-5.79,2.45-1.69,2.55-1.69,2.55-2.42,1.31-1,2.92,5.53,5.28-1.25,7.72a17.33,17.33,0,0,1-2-3.77,46.2,46.2,0,0,1-1.43-5.09s-.62-7.17-1.87-8.11-1.08-5.47-1.08-5.47,1.76-3.71-.7-5.18-38.72-22.71-38.72-22.71l-.88-28.18s-.62-20.82,3.13-27.81a12.39,12.39,0,0,1,.17-4.71c.62-1.7-.08-7.17-.08-7.17Z"/><path class="cls-19" d="M606,580s-9-2-11.42-.64-7.13,2.35-7.84,3.12-2.5.18-4.11,4.64-1.75,9-3.83,11-3.13,3.49-3.22,5,.27,1.85-.53,2.35-2,2.46-1.61,3.21S592,626.05,592,626.05s.88,6.31,1.69,7.92-.88,23.66-2.67,25.16,12.08,1.36,12.08,1.36.63-14.46,1.17-15.22-.36-16.21-.36-16.21-.08-13.19,1.08-16.69,1-15.08,1-15.08,1-6.95,2.28-8.57S606,580,606,580Z"/><path class="cls-9" d="M605.77,579.73s-9-2-11.41-.63-7.14,2.35-7.84,3.11-2.5.19-4.1,4.64-1.75,9-3.84,11-3.12,3.49-3.21,5,.26,1.85-.53,2.35-2,2.45-1.61,3.21,18.56,17.34,18.56,17.34.88,6.31,1.69,7.91-.88,23.66-2.67,25.17,12,1.36,12,1.36.62-14.46,1.16-15.21-.36-16.21-.36-16.21-.08-13.19,1.08-16.69,1-15.08,1-15.08,1-7,2.27-8.57S605.77,579.73,605.77,579.73Z"/><path class="cls-19" d="M604.82,571.75a19.85,19.85,0,0,1,1,6.36c9,2.84,18.71-1.2,23.47-9.79a55.34,55.34,0,0,1-.88-7S601,559.78,604.82,571.75Z"/><path class="cls-20" d="M591.27,556.85c0,11.89,9.17,21.51,20.42,21.48s20.36-9.68,20.34-21.57-9.16-21.51-20.42-21.48c-9.61,0-17.91,7.14-19.89,17.08A22.64,22.64,0,0,0,591.27,556.85Z"/><path class="cls-9" d="M578.17,606.8l-4.91,1.61a2.77,2.77,0,0,1-1,2.78A3.23,3.23,0,0,0,571,614s-.53,2.07-1.75,2.55-2,3.58-2,3.58l-4.1,5s-1.53,1.32-1.25,2-1.61.84-1.61.84l1,16.78,8.46,1.69,5.27-.56,4.28-1.69,3.75-2.36,1.7-4.64,7.48-12Z"/><path class="cls-20" d="M561.48,629.33s-10.89-16.59-19-7.63,3.31,23.46,6,23,15.44-1.23,15.44-1.23Z"/><path class="cls-19" d="M591.72,552.36a2.44,2.44,0,0,1,1.5.72c.69.77.72,2.13,1.63,2.62a1.84,1.84,0,0,0,1.06.12c2.38-.36,3.74-3.18,6-4a5.85,5.85,0,0,1,4,.36,3,3,0,0,1,1.32.93c.76,1.05.23,2.58.58,3.84.49,1.75,2.47,2.45,4.18,2.67s3.64.36,4.79,1.72a4.91,4.91,0,0,1,.88,3.65,3.08,3.08,0,0,0,0,1.35c.47,1.42,2.79,1.2,3.4.09.43-.81.31-1.48,1.34-1.71a4.24,4.24,0,0,1,2.19.4,15.16,15.16,0,0,0,5.66.93c4.8-10.79.42-23.64-9.79-28.72s-22.39-.43-27.19,10.36a22.07,22.07,0,0,0-1.49,4.69Z"/><path class="cls-9" d="M617.62,565.78a3.12,3.12,0,0,1,0-1.36,4.86,4.86,0,0,0-.88-3.64c-1.14-1.36-3.07-1.49-4.79-1.72s-3.69-.93-4.18-2.68c-.35-1.25.18-2.78-.58-3.83a2.91,2.91,0,0,0-1.32-.93,5.8,5.8,0,0,0-4-.37c-2.29.78-3.65,3.6-6,4a1.87,1.87,0,0,1-1.07-.12c-.88-.49-.94-1.85-1.63-2.62-1.08-1.21-3.14-.43-4.46-1.34a4.35,4.35,0,0,1-1.45-2.78,14.31,14.31,0,0,1-.39-6.24c.77-3.51,3.74-5.91,5.63-8.91,1.76-2.78,2.76-6.31,5.41-8.16s6.05-1.42,9.05-.49a24.92,24.92,0,0,0,4.24,1.18c2.4.32,4.82-.38,7.25-.47a15,15,0,0,1,9.58,3.08,5.3,5.3,0,0,1,1.56,1.67,8.6,8.6,0,0,1,.7,3,15.67,15.67,0,0,0,1.88,5.51c.76,1.33,1.69,2.53,2.37,3.91a6.2,6.2,0,0,1,.64,4.45c-.23.78-.68,1.47-.88,2.28-.4,1.85.76,3.59,1.54,5.3a10.58,10.58,0,0,1,1,5,6.49,6.49,0,0,1-2.14,4.52,7.3,7.3,0,0,1-4.53,1.44,15.14,15.14,0,0,1-5.76-.93,4.21,4.21,0,0,0-2.18-.4c-1,.23-.88.93-1.36,1.71C620.41,567,618.09,567.19,617.62,565.78Z"/><path class="cls-19" d="M606.62,687.47l11.5-9.51,18.11-18.85-6-.28a4.2,4.2,0,0,0-1.26,2.56c-.09,2.31-4.89.17-7.39,1.49s-14.72,17.84-16.84,17.72-3.84-1.14-4.72.46l-.07.1a2.58,2.58,0,0,1-1.35.86Z"/><path class="cls-17" d="M583.42,686.81l5.78,19.47.88,3.06,2.76-.79,6.08-1.77,27-7.84a22.73,22.73,0,0,0,9.73-2.78,28.19,28.19,0,0,1,16.8-3.88c3.58.35,7.55-1.27,10.85-7.71,0,0,7.49-23.36-11.41-30.05s-19.82,3.55-19.82,3.55l-.25.17c-.74.49-2.79,2-2.87,3.94-.09,2.29-4.89.15-7.39,1.47s-14.7,17.91-16.82,17.81-3.84-1.15-4.72.46L600,682c-.66.93-2.63,1.19-4,1.22h-1.24l-.17,0-1.36.43Z"/><path class="cls-19" d="M584.92,648.93l2.78.47,1.16-12.15s-1.27-.21-2.87-.59C586.41,638.34,585.45,644.91,584.92,648.93Z"/><path class="cls-19" d="M657.86,592.13s8.29-2.54,6.24,22.33a71,71,0,0,1-17.39,40.62S629,663.27,621.11,662a133.63,133.63,0,0,0-13.72-1.61,19.6,19.6,0,0,0-8-2.27c-4.45-.18-13.82-3.11-14-4.05s2.32-14.79,1.26-15.83c0,0,12.48.55,13.73,1.5s3,.27,4.39,0,5.44-4,13.56-.75c0,0,2.76.29,3.84-.47a3.63,3.63,0,0,1,2.78-.19,7.79,7.79,0,0,0,1.93-1c.27-.37,2.41,0,2.41,0a.93.93,0,0,0,1.27-.47,1.46,1.46,0,0,0,.07-.19,6.14,6.14,0,0,1,1.25-2.07s2.41-14.32,7-19.69a3.13,3.13,0,0,0,1-2.73C639.39,610.6,647.15,589.09,657.86,592.13Z"/><path class="cls-19" d="M593.22,683.71,605,698.78l.08-.09c.08-.28,1.25-3.49,1-3.71s-2.31-4.9-6.42-6.88a12.48,12.48,0,0,1-5-4.85Z"/><path class="cls-19" d="M593.35,709.78l1.28.77s3-2.53,6-5.08,5.86-5.05,5.91-5.19,1.25-3.48,1-3.71-.75-1.4-1.88-2.91c-8-2.36-2.9,3.5-2.22,3.77,0,0-9.72-2.36-10.26,8.82A13.9,13.9,0,0,0,593.35,709.78Z"/><path class="cls-9" d="M603.22,714.51l1.7,1,17.21.47a34,34,0,0,0,6.1,3.1,4.51,4.51,0,0,0,.88.21,38.42,38.42,0,0,0,4.8.09c1.32,0,2.34-.09,2.34-.09s-.82-22.94-1.44-25.35c-.29-1.16-1.75-.93-3.15-.33a19,19,0,0,0-3.08,1.65s-7.32.74-8.48,1.41-4.46-.38-6.51,0-5.7-2.55-5.7-2.55c-10-3.48-4.39,3-3.67,3.31,0,0-9.71-2.36-10.24,8.82S603.22,714.51,603.22,714.51Z"/><path class="cls-22" d="M628.11,705.66c.18,4.75,3.69,10.65,5.78,13.76,1.32,0,2.34-.09,2.34-.09s-.82-22.94-1.44-25.35c-.29-1.16-1.75-.93-3.15-.33C629.91,697.07,628,701.83,628.11,705.66Z"/><path class="cls-19" d="M628.11,705.66c.18,4.75,3.69,10.65,5.78,13.76,1.32,0,2.34-.09,2.34-.09s-.82-22.94-1.44-25.35c-.29-1.16-1.75-.93-3.15-.33C629.91,697.07,628,701.83,628.11,705.66Z"/><path class="cls-18" d="M625.18,706.29c1.18,4.58,1.17,9.73,3.05,12.83a4.51,4.51,0,0,0,.88.21,38.42,38.42,0,0,0,4.8.09c1.32,0,2.34-.09,2.34-.09s-.82-22.94-1.44-25.35c-.29-1.16-1.75-.93-3.15-.33a19,19,0,0,0-3.08,1.65S623.65,700.42,625.18,706.29Z"/><path class="cls-19" d="M565.78,659.8s8.55,2.93,15.8,13.34Z"/><g class="cls-23"><path d="M635.27,546.71l0,.2a7.54,7.54,0,0,1-.3.79A5.07,5.07,0,0,1,635.27,546.71Z"/><path d="M586.89,542.14a8,8,0,0,1,.65-1.85c0,.15-.08.33-.12.49a14.21,14.21,0,0,0,.4,6.25,4.3,4.3,0,0,0,1.44,2.78c1.33.93,3.38.11,4.45,1.32.7.77.73,2.15,1.63,2.62a1.74,1.74,0,0,0,1.08.13c2.37-.35,3.74-3.18,6-4a5.82,5.82,0,0,1,4,.36,3,3,0,0,1,1.33.93c.76,1,.23,2.58.58,3.84.49,1.74,2.47,2.44,4.18,2.67s3.64.35,4.79,1.73a4.75,4.75,0,0,1,.88,3.64,3,3,0,0,0,0,1.34c.48,1.42,2.79,1.21,3.4.1.44-.81.31-1.48,1.35-1.71a4.38,4.38,0,0,1,2.19.39,15.31,15.31,0,0,0,5.76.93,7.47,7.47,0,0,0,4.52-1.44,5.44,5.44,0,0,0,1.39-1.79,6.07,6.07,0,0,1-1.92,3.2,7.34,7.34,0,0,1-4.52,1.44,15.16,15.16,0,0,1-5.77-.93,4.11,4.11,0,0,0-2.18-.4c-1,.22-.89.93-1.35,1.71-.61,1.12-2.93,1.32-3.4-.09a3.12,3.12,0,0,1,0-1.36,4.8,4.8,0,0,0-.88-3.64c-1.16-1.36-3.07-1.49-4.8-1.72s-3.69-.93-4.17-2.68c-.35-1.26.18-2.78-.58-3.83a2.91,2.91,0,0,0-1.32-.93,5.8,5.8,0,0,0-4-.37c-2.29.77-3.65,3.6-6,4a1.8,1.8,0,0,1-1.07-.13c-.88-.48-.93-1.85-1.63-2.61-1.07-1.21-3.13-.44-4.45-1.34a4.35,4.35,0,0,1-1.45-2.78A14.12,14.12,0,0,1,586.89,542.14Z"/></g><path class="cls-19" d="M636.64,617.57c-1.63,2.33-3.5,4.49-4.94,7a13.79,13.79,0,0,0-2.17,8.22c1.5-1.63,2.18-3.86,3.13-5.9,1.6-3.45,4-6.37,6-9.53.39-.6,2.85-4.1,1.61-4.26C639.23,612.91,637.23,616.77,636.64,617.57Z"/><path class="cls-24" d="M591.49,579.52l17.88,35.71c.53,1-.92,3-3.25,4.28l-89.23,49.86c-2.32,1.29-4.65,1.49-5.18.42l-17.88-35.71c-.53-1.07.8-3.21,3.13-4.51l89.23-49.85C588.53,578.42,591,578.45,591.49,579.52Z"/><g class="cls-13"><path class="cls-5" d="M591.49,579.52l17.88,35.71c.53,1-.92,3-3.25,4.28l-89.23,49.86c-2.32,1.29-4.65,1.49-5.18.42l-17.88-35.71c-.53-1.07.8-3.21,3.13-4.51l89.23-49.85C588.53,578.42,591,578.45,591.49,579.52Z"/></g><polygon class="cls-5" points="541.97 620.8 588.46 594.83 589.33 596.56 542.84 622.53 541.97 620.8"/><polygon class="cls-14" points="544.09 625.03 590.58 599.06 591.44 600.8 544.95 626.77 544.09 625.03"/><polygon class="cls-14" points="546.2 629.25 592.69 603.28 593.55 605.01 547.07 630.98 546.2 629.25"/><polygon class="cls-14" points="548.32 633.48 594.8 607.51 595.67 609.24 549.19 635.21 548.32 633.48"/><path class="cls-14" d="M516.57,630.09a13.55,13.55,0,0,0-5.2,17.79,12.5,12.5,0,0,0,9.81,7l-1-2a3.11,3.11,0,0,1,.89-3.86,4.78,4.78,0,0,0,6.84-1.46,5.34,5.34,0,0,0,.83-2.82,2.76,2.76,0,0,1,3.5,1.4l1,2a13.57,13.57,0,0,0-4.8-17.92,11.89,11.89,0,0,0-11.92-.13Zm12,11.51a.69.69,0,0,1,0,.28.94.94,0,0,1-.26.3l-.23.12a5.23,5.23,0,0,1-3.83,6.18,5,5,0,0,1-5.85-4.06,5.31,5.31,0,0,1-.11-1.2h-.06a1.79,1.79,0,0,1-.92-2.23,3.32,3.32,0,0,1,.73-.85,4.88,4.88,0,0,0,1.36-3.14,5.17,5.17,0,0,1,.33.72,1.1,1.1,0,0,1,1.36-.82,4.86,4.86,0,0,0,.63.25,1.42,1.42,0,0,0,.57-.12l1.17-.47a1.69,1.69,0,0,1,2.3.33,13.45,13.45,0,0,1,1.94,2.05,4.53,4.53,0,0,1,.92,2.66Z"/><path class="cls-20" d="M554.43,632.81c-.09,12.44,24.26,15.08,24.26,15.08l6.22,1,2.78.47,1.16-12.15s-1.27-.21-2.87-.59c-2.35-.59-5.4-1.59-6-3C578.87,631.3,554.51,620.37,554.43,632.81Z"/><path class="cls-9" d="M657.63,590.22s8.3-2.54,6.25,22.34a71,71,0,0,1-17.39,40.61s-17.67,8.2-25.61,6.88a133.31,133.31,0,0,0-13.73-1.61,19.6,19.6,0,0,0-8-2.27c-4.46-.18-13.82-3.11-14-4s2.33-14.84,1.26-15.82c0,0,12.49.54,13.74,1.49s3,.27,4.39,0,5.44-4,13.56-.75c0,0,2.76.29,3.83-.47a3.65,3.65,0,0,1,2.79-.19,7.79,7.79,0,0,0,1.93-1c.27-.37,2.41,0,2.41,0a.91.91,0,0,0,1.26-.45,1.8,1.8,0,0,0,.08-.21,6.14,6.14,0,0,1,1.25-2.07s2.41-14.32,7-19.7a3.09,3.09,0,0,0,1-2.72C639.17,608.69,646.94,587.23,657.63,590.22Z"/><path class="cls-24" d="M1002.14,282.48V334.4c0,1.55-2.74,2.78-6.14,2.78H866.31c-3.39,0-6.14-1.25-6.14-2.78V282.48c0-1.55,2.74-3.13,6.14-3.13H996C999.41,279.38,1002.14,280.93,1002.14,282.48Z"/><g class="cls-23"><path class="cls-5" d="M987,291.93v51.93c0,1.54-2.75,2.78-6.14,2.78H851.15c-3.39,0-6.14-1.26-6.14-2.78V291.93c0-1.55,2.74-3.13,6.14-3.13H980.83C984.2,288.8,987,290.38,987,291.93Z"/></g><path class="cls-24" d="M1002.14,282.48V334.4c0,1.55-2.74,2.78-6.14,2.78H866.31c-3.39,0-6.14-1.25-6.14-2.78V282.48c0-1.55,2.74-3.13,6.14-3.13H996C999.41,279.38,1002.14,280.93,1002.14,282.48Z"/><g class="cls-13"><path class="cls-5" d="M1002.14,282.48V334.4c0,1.55-2.74,2.78-6.14,2.78H866.31c-3.39,0-6.14-1.25-6.14-2.78V282.48c0-1.55,2.74-3.13,6.14-3.13H996C999.41,279.38,1002.14,280.93,1002.14,282.48Z"/></g><rect class="cls-5" x="922.5" y="297.9" width="67.54" height="2.52"/><rect class="cls-14" x="922.5" y="304.04" width="67.54" height="2.52"/><rect class="cls-14" x="922.5" y="310.18" width="67.54" height="2.52"/><rect class="cls-14" x="922.5" y="316.31" width="67.54" height="2.52"/><path class="cls-14" d="M888.33,292.37c-8.84,0-16,7.54-16.05,16.89a17.2,17.2,0,0,0,7.2,14.15v-2.87a3.78,3.78,0,0,1,3.21-3.8,6.19,6.19,0,0,0,8.63,2.66,6.57,6.57,0,0,0,2.51-2.66,3.79,3.79,0,0,1,3.21,3.8v2.94a17.51,17.51,0,0,0,4.72-23.4A15.84,15.84,0,0,0,888.33,292.37Zm7,20.65a.69.69,0,0,1-.68.45h-.33a6.32,6.32,0,0,1-7.91,4.53,6.68,6.68,0,0,1-4.54-6.44,7,7,0,0,1,.82-3.3l-.06-.05a2.33,2.33,0,0,1,.21-3.11,4.41,4.41,0,0,1,1.32-.51,5.93,5.93,0,0,0,3.33-2.69,5.68,5.68,0,0,1,0,1,1.34,1.34,0,0,1,2-.08h0c.21.21.33.51.59.67a1.37,1.37,0,0,0,.7.22l1.59.22a2.26,2.26,0,0,1,2.42,1.85,16.85,16.85,0,0,1,1,3.57,5.93,5.93,0,0,1-.51,3.64Z"/><path class="cls-25" d="M1043.23,707.24c-1.21-4.64-2-8.7-2-8.7s0-5.09-2.25-8.81l0-1.27h0l-.35-9.43a33.1,33.1,0,0,1,2.07-5c1.49-3-.5-13.78-.5-13.78s-6.5-15-5.4-24.74S1021,593.06,1021,593.06a44.72,44.72,0,0,1,.94-9.53,8.45,8.45,0,0,0,.09-2v-.16c-.43-6.38-5.64-18.14-5.64-18.14l-.2-22.82s2.57-13.57-3.07-31.39c-2-6.22-3.25-11.22-4.1-15.08-.09-.44-.19-.85-.27-1.26,10.17-2.06,17.93-3.71,17.93-3.71s-6.87-26-11.06-30.42-7.9-18.72-7.9-18.72-2.76-18.44.41-24,3.3-15,3.3-15,7.47-6.22,8.35-8.88,2.25-8.63,2.14-11.74-1.17-5.87-.88-7.52-2.54-7.77-1.36-10.78a8.66,8.66,0,0,0,.42-2.86v-.12a42.91,42.91,0,0,0-1-7.66,20.26,20.26,0,0,0-7.78-4l-.19-.7-.51-1.85a7.68,7.68,0,0,0-.77-.45v-.66l-.17-2.67,1-6c2-10.51-11.22-11.53-11.22-11.53a6.93,6.93,0,0,0-3.84-3.29c-2.69-.93.12,15.68,1.4,16.69,1,.75,4,5.86,5.49,8.35h0l.25.4a4.79,4.79,0,0,0-.58.7l.63,3.58.09.56a14.69,14.69,0,0,0-1.95,3.85s2.49,2.69,2.13,5.82a18.54,18.54,0,0,0,1.06,7.18c-.14-.16-1.92-2-3.58-1.48s-6.35,2.23-6.35,2.23-3.5.79-3.14,1.6-2.24,4.53-2.24,4.53L979,365c-.11-.28-.22-.55-.31-.84a24.32,24.32,0,0,1-1-4.13,19.35,19.35,0,0,0,3-1.14,6.8,6.8,0,0,0,2.57-1.85c.88-1.23,1-2.88,1.36-4.38.64-2.94,2.16-5.61,3.22-8.42a28.37,28.37,0,0,0,1.29-14.89,10.36,10.36,0,0,0-1.62-4.29c-1.64-2.19-4.47-3-6.58-4.7s-3.5-4.4-5.94-5.65c-2.2-1.13-4.82-.93-7.22-.36a37.33,37.33,0,0,0-13.25,5.71c-1.35.93-2.83,2-4.39,1.74-1.37-.2-2.4-1.32-3.32-2.38v-.14l-.12-.11a18.6,18.6,0,0,0-1.19,7.54,5.26,5.26,0,0,0,.09,1.19v.42a2,2,0,0,1,0,.35h0a2.47,2.47,0,0,1,0,.54,3.75,3.75,0,0,1-.88,1.39,8.06,8.06,0,0,0-.74,1.15,1.33,1.33,0,0,1,.12-.42,6.19,6.19,0,0,0-.88,3.2,3.31,3.31,0,0,0,.79,2.24,10.13,10.13,0,0,0,1.6,1.25,18.61,18.61,0,0,0-.17,3.34A19.54,19.54,0,0,0,955,357.53l.35.84a25.1,25.1,0,0,1,2.12,10.85,5,5,0,0,1-.09.79c0,.25-.23.29-.33.44h0s-15.65.79-19.46-2.58-9,9-9,9-5.56,1.38-6.73.28-7.71.15-7.71.15a13.58,13.58,0,0,0-9.91-3.38,28.69,28.69,0,0,0-7.34-3.92h0l-.19-.06h0a7.71,7.71,0,0,0-3.5-.33s-7.95-6.4-10.33-9.91-13.55-16.46-13.6-16.53l-.06-.64-.19-1.95a6.32,6.32,0,0,1-1,.13l-.23-.67a35.81,35.81,0,0,0-2.48-5.41s-.09-2.47.57-3.11-.63-9.63-.63-9.63S857.7,305,852,318.08c0,0-11.41,8.76-1.24,18,0,0,4,1.85,4.63,3.43.41,1,1.84,3.85,2.81,5.74.16.32.31.59.43.85l-.11.1.2,1.61.08.62c-1.81,1.19-3,2.34-2.69,3.17a18.71,18.71,0,0,1,1.28,4.38s14.28,17.47,16.33,25.11c0,0,37.39,21.47,49.48,22.62l-1.58,11.54q-.3,4.68-.15,9.36c.24,2.46-.95,13.67-.95,13.67s-1.49,16.48-3.17,18.85-1,12.19-1,12.19a86.05,86.05,0,0,1-1.9,14c-1.54,6.3,0,14,0,14s-5.56,15,8.67,4.41c0,0,7.15-.76,15.38-1.4v.87c0,1.13,0,2.34.09,3.62.19,8.45.57,20.1,1.26,28.9,1.22,15.55,6.83,46.15,6.83,46.15l.56,15.48a21.37,21.37,0,0,0-.25,4.45,29.82,29.82,0,0,0,4.47,15.38l1.5,10.28s2.88,6.7,3.08,10.76a6.5,6.5,0,0,1-.08,1,7.65,7.65,0,0,0-.06,1.59c0,4.69,3.11,15.81,3.11,15.81s.57,11.3,2.19,11.89c1.4.5-1.58,6.6-2.48,8.35l-.06-.33-.19.35a8.56,8.56,0,0,0-.39,2.89,4.17,4.17,0,0,0,1.91,3.9c3.12,1.85,4.82,3.41,2.26,4.17a24.79,24.79,0,0,0-2.81.76,1.34,1.34,0,0,0-.14-.38,1.87,1.87,0,0,0-1,2,8.93,8.93,0,0,0,1.09,3.79c2.79,6,4.65,8.19,4.65,8.19l1.22-.2a6.19,6.19,0,0,1-.66,1.43,5.38,5.38,0,0,1-1.75,1.77,5.27,5.27,0,0,1-2.16.93,6.11,6.11,0,0,0-4.46,2.52c-1.52,2.25-2.41,5.27.89,7.75l11.62,3.71s19.82,1.91,18.6-2.72-2-8.7-2-8.7a19.44,19.44,0,0,0-1.91-8.23,11.15,11.15,0,0,0-.73-1.19l.7-.1s1.06-10.39,2.91-12.44c.43-.47.51-.81.41-1.09.17-.57-.33-.93-1-1a1.33,1.33,0,0,1-.13.4,9.45,9.45,0,0,0-1.91-.14s-.89-5.38,1.17-7.42a2.22,2.22,0,0,0,.34-1.63,9.62,9.62,0,0,0-.3-2.19.38.38,0,0,0-.06.13c-1.24-4.87-5.08-12.53-5.08-12.53s-.33-4.91.88-6.92-1.14-26.73-1.14-26.73,0-12-1.6-17.49,1.33-12.2,1.33-12.2a1.89,1.89,0,0,0-.05-.36v-.09s-.09-.74-.25-1.85v.12c-.43-3.15-1.26-8.87-1.75-11.51-.79-3.71-.63-21.81-.63-21.81l2.63-7.83,5.62,13.08,6.1,17.48s2.84,3.62,3,7.42v.55a11.81,11.81,0,0,0,0,1.19,10.94,10.94,0,0,0,1.89,6.23s1.76,8.35,4.07,10.35,2.48,6.14,2.48,6.14,3.17,12,4.53,14.1c1.15,1.75,1.38,6.68,1.43,8.2h0v.44s.54,4.32.66,8v1.2a13.35,13.35,0,0,1-.24,3v-.44a33.31,33.31,0,0,0-.54,7.59c.09,4.37.88,9.5,3.51,12.43,4.52,5.08,7.22,4.3,7.22,4.3s-1.84,6.64-4.38,8.06a2.83,2.83,0,0,0-.28.2,2.38,2.38,0,0,0-.06-.37,3.25,3.25,0,0,0-.67,2.47c-.08,2.9,1.82,7.51,3.51,9.6a4.94,4.94,0,0,0,2.2,1.24l-.38.29a9.42,9.42,0,0,1-.89.47,4,4,0,0,1-1.29.41,6.12,6.12,0,0,0-4.46,2.52c-1.51,2.25-2.41,5.26.88,7.75l11.63,3.71S1044.49,711.87,1043.23,707.24Z"/><path class="cls-26" d="M968.19,718l-11.26-3.71c-3.15-2.5-2.28-5.52-.81-7.76a5.83,5.83,0,0,1,4.31-2.51,5,5,0,0,0,2.09-.93,5,5,0,0,0,1.7-1.77,9.07,9.07,0,0,0,1.1-4.58s12-4.26,15.52-.63a9.71,9.71,0,0,1,1.56,2.23,20,20,0,0,1,1.85,8.23s.77,4.06,1.94,8.7S968.19,718,968.19,718Z"/><path class="cls-26" d="M1022.28,710.06,1011,706.35c-3.16-2.49-2.29-5.51-.82-7.74a5.79,5.79,0,0,1,4.31-2.51,4.16,4.16,0,0,0,1.26-.42,6.8,6.8,0,0,0,.88-.47c3-1.93,2.8-6.36,2.8-6.36s12-4.26,15.51-.62a8.44,8.44,0,0,1,1.23,1.62c2.23,3.71,2.19,8.83,2.19,8.83s.78,4.07,1.95,8.7S1022.28,710.06,1022.28,710.06Z"/><path class="cls-19" d="M980.83,696.19a9.71,9.71,0,0,1,1.56,2.23h0l-18.18,3a9.07,9.07,0,0,0,1.1-4.58S977.36,692.55,980.83,696.19Z"/><path class="cls-19" d="M1036.17,689.82l.13,3.62c-2.63,5.06-16.43,4.53-20.51,2.21a6.8,6.8,0,0,0,.88-.47c3-1.93,2.8-6.35,2.8-6.35s12-4.27,15.51-.63A9.14,9.14,0,0,1,1036.17,689.82Z"/><path class="cls-17" d="M1037.76,674.17a33.93,33.93,0,0,0-2,5l.46,13c-2.9,5.56-19.11,4.4-21.38,1.53s-4.9-10.47-2.45-11.89,4.21-8,4.21-8-2.64.76-7-4.31-3.57-16.76-2.89-19.58-.45-12.14-.45-12.14-.07-6.57-1.39-8.64-4.39-14.1-4.39-14.1-.14-4.1-2.39-6.15-4-10.35-4-10.35a11.17,11.17,0,0,1-1.81-7c.32-4.12-3-8.42-3-8.42l-5.93-17.48L978,552.51l-2.5,7.84s-.13,18.06.64,21.81,2,13.71,2,13.71-2.86,6.68-1.26,12.2,1.57,17.5,1.57,17.5,2.29,24.69,1.13,26.72-.88,6.92-.88,6.92,6.88,14.18,4.94,16.22-1.14,7.42-1.14,7.42,4.39-.18,2.57,1.85-2.82,12.44-2.82,12.44l-18.68,3.06S961.8,698,959.1,692s.27-5.42,2.75-6.19.88-2.32-2.19-4.18-1.47-6.35-1.47-6.35,4.2-8.21,2.64-8.8-2.15-11.9-2.15-11.9-3.59-13.31-2.94-17-2.94-12.19-2.94-12.19l-1.45-10.29a29.69,29.69,0,0,1-4.12-19.37l-.55-15.95s-5.47-30.6-6.65-46.2c-.77-10-1.15-23.56-1.33-32.07-.1-4.77-.13-7.92-.13-7.92l66.76-10.1a62.45,62.45,0,0,0,1.6,10.47c.83,3.86,2.08,8.86,4,15.09,5.48,17.84,3,31.4,3,31.4l.21,22.81s6.45,15,5.39,20.3a46.48,46.48,0,0,0-.88,9.56s14.41,32.74,13.36,42.47,5.27,24.75,5.27,24.75S1039.22,671.16,1037.76,674.17Z"/><path class="cls-18" d="M996.33,590.31l20.3-3.71S1005.52,599.55,996.33,590.31Z"/><path class="cls-19" d="M1012.89,565.66s1,7.6-3.34,10.65C1009.57,576.31,1017.44,574.67,1012.89,565.66Z"/><path class="cls-19" d="M1010.78,541.45S994.26,557,988,556,1010.78,541.45,1010.78,541.45Z"/><path class="cls-19" d="M971.29,598.36s-12.85,3.63-13,9.14S971.29,598.36,971.29,598.36Z"/><path class="cls-18" d="M976.62,666.56s-18.16,4.35-12.89,6.59S977.62,677,977.62,677,983.53,677.11,976.62,666.56Z"/><g class="cls-27"><path d="M960.22,677.17a3.89,3.89,0,0,1-1.75-2.73l-.17.35s-1.54,4.48,1.47,6.34c.35.22.68.42,1,.62.54-.12,1.12-.23,1.68-.4C964.84,680.63,963.2,679,960.22,677.17Z"/><path d="M983.71,674.94c.49-.52.42-1.78,0-3.38a9.73,9.73,0,0,0-.88,4.79A4.24,4.24,0,0,1,983.71,674.94Z"/><path d="M977.92,593.49a23.67,23.67,0,0,0-1,6.09,25.25,25.25,0,0,1,1.27-4.21S978.09,594.65,977.92,593.49Z"/><path d="M1019.53,583.18a7.24,7.24,0,0,0,.11-1.8c-.18,1.23-.31,2.37-.39,3.37C1019.34,584.24,1019.43,583.72,1019.53,583.18Z"/><path d="M979.61,651.79a11.3,11.3,0,0,0,.33-3.66,12.63,12.63,0,0,0-.72,4.64A4.18,4.18,0,0,1,979.61,651.79Z"/><path d="M984.58,682.55a66.12,66.12,0,0,0-1.76,10.2l-18.67,3.06a42.37,42.37,0,0,1-4.51-8.19c-.23-.53-.42-1-.59-1.42-1.1.59-1.5,1.85.11,5.39,2.7,6,4.51,8.18,4.51,8.18l18.68-3.06s1-10.38,2.81-12.43C986,683.24,985.42,682.73,984.58,682.55Z"/><path d="M958.71,654.11s.58,11.31,2.14,11.9h0c.72-1.89,1.18-3.71.48-4-1.58-.59-2.14-11.9-2.14-11.9s-3.6-13.32-3-16.95-2.93-12.2-2.93-12.2l-1.46-10.28a29.74,29.74,0,0,1-4.13-19.38l-.58-15.9s-5.47-30.6-6.66-46.2c-.76-10-1.15-23.57-1.32-32.07,0-1.54,0-2.9-.08-4.05l-.53.09s0,3.15.13,7.92c.18,8.5.56,22.12,1.32,32.08,1.19,15.54,6.66,46.19,6.66,46.19l.59,15.9a29.72,29.72,0,0,0,4.12,19.38L952.82,625s3.59,8.56,2.94,12.2S958.71,654.11,958.71,654.11Z"/><path d="M1015.32,689.23a19.48,19.48,0,0,1-3.24-7.66c-1.85,1.85.61,8.9,2.77,11.61,2.28,2.87,18.48,4,21.38-1.52l-.11-3.12C1032.09,693.13,1017.47,692,1015.32,689.23Z"/><path d="M1038.23,669.75a34.42,34.42,0,0,0-2,5l.08,2.3c.33-.86.79-2,1.44-3.35a10.51,10.51,0,0,0,.53-4.09Z"/><path d="M1015.69,673.27a32.55,32.55,0,0,0,1.38-4s-2.63.75-7-4.31c-3.19-3.71-3.62-10.9-3.36-15.63-.68,2.78-1.49,14.51,2.89,19.59C1012.47,672.28,1014.57,673.1,1015.69,673.27Z"/><path d="M1006.27,637.25a95,95,0,0,1,.67,9.69c.06-.51.15-1,.26-1.53.68-2.78-.44-12.13-.44-12.13s-.09-6.56-1.41-8.65-4.38-14.1-4.38-14.1-.15-4.1-2.41-6.14-3.95-10.34-3.95-10.34a11.33,11.33,0,0,1-1.81-7c.32-4.12-2.94-8.41-2.94-8.41l-5.94-17.49-5.46-13.08-2.5,7.82v2.5l2-6.35,5.45,13.07,5.92,17.49s3.27,4.29,3,8.4a11.14,11.14,0,0,0,1.81,7s1.69,8.35,4,10.34,2.39,6.14,2.39,6.14,3.08,12,4.39,14.11S1006.27,637.25,1006.27,637.25Z"/></g><path class="cls-28" d="M1008.32,335.08l-1,6,.16,2.66.13,2-6.45.93-.79-1.4h0c-1.43-2.51-4.38-7.62-5.33-8.35-1.23-1-4-17.57-1.38-16.69a6.88,6.88,0,0,1,3.74,3.31S1010.25,324.58,1008.32,335.08Z"/><path class="cls-19" d="M1007.66,345.75l-6.45.93-.79-1.4h0a5.51,5.51,0,0,1,7.11-1.54Z"/><path class="cls-29" d="M1009.37,348.92l-8.45,2.44-.24-1.33-.61-3.6s3.21-4.89,8.23-1.52l.49,1.85Z"/><path class="cls-28" d="M870.62,341.34l-8.93,5.56s-.38-.75-.89-1.78c-.93-1.85-2.33-4.73-2.73-5.76-.6-1.57-4.47-3.43-4.47-3.43-9.89-9.27,1.17-18,1.17-18,5.55-13,12.87,3.81,12.87,3.81s1.26,9,.62,9.63-.54,3.1-.54,3.1a36.4,36.4,0,0,1,2.39,5.42C870.45,340.79,870.62,341.34,870.62,341.34Z"/><path class="cls-19" d="M870.62,341.34l-8.93,5.56s-.38-.75-.89-1.78c1.24-1.19,5.66-5.29,7.16-5.17a11.13,11.13,0,0,0,2.16,0C870.45,340.79,870.62,341.34,870.62,341.34Z"/><path class="cls-29" d="M871.65,344.22l-10,5.75-.29-2.32-.21-1.6s5.75-5.61,7.51-5.49a9,9,0,0,0,2.64-.1l.19,1.93Z"/><path class="cls-28" d="M984.93,375.81s-44.46,7.14-36.22,3.95c5.74-2.25,7.9-6.24,8.23-10.58a26.06,26.06,0,0,0-2.06-10.86,48.07,48.07,0,0,0-4.3-8.35s33.41-21.22,27.21-2.92a30.1,30.1,0,0,0-1.63,8.62,25.36,25.36,0,0,0,1.19,8.62A26,26,0,0,0,984.93,375.81Z"/><path class="cls-19" d="M977.82,347.07a30.43,30.43,0,0,0-1.62,8.62c-3.11,3-6.65,2.94-11.17,3.13-3.51.14-7.3,1.19-10.14-.47a48.07,48.07,0,0,0-4.3-8.35S984,328.77,977.82,347.07Z"/><ellipse class="cls-28" cx="963.77" cy="340.58" rx="18.48" ry="19.53"/><path class="cls-19" d="M984.93,375.81s-44.46,7.14-36.22,3.95c5.74-2.25,7.9-6.24,8.23-10.58,2.13-2.65,6.53-4.64,9.37-5.76a12.67,12.67,0,0,1,8.09-.46,11,11,0,0,1,3,1.32A25.83,25.83,0,0,0,984.93,375.81Z"/><path class="cls-19" d="M1009.37,348.92l-8.45,2.44-.24-1.33a7.4,7.4,0,0,1,8.1-3.31Z"/><path class="cls-19" d="M871.65,344.22l-10,5.75-.29-2.32a73.74,73.74,0,0,1,10.16-5.21Z"/><path class="cls-19" d="M1006.93,494c-17.18,3.59-41.66,8.35-45.64,7.25-3.28-.93-13.62-.38-22.62.32-.09-4.77-.13-7.92-.13-7.92l66.76-10.1A64.55,64.55,0,0,0,1006.93,494Z"/><path class="cls-9" d="M1024,489S967.45,501.68,961.26,500s-37.48,1.69-37.48,1.69c-13.76,10.57-8.4-4.43-8.4-4.43s-1.52-7.65,0-14a90.72,90.72,0,0,0,1.82-14s-.67-9.82,1-12.19,3-18.84,3-18.84,1.14-11.21.88-13.67.14-9.35.14-9.35l1.57-11.56c-11.7-1.17-47.91-22.68-47.91-22.68-2-7.64-15.8-25.13-15.8-25.13a19.15,19.15,0,0,0-1.25-4.39c-1-2.58,12.76-8.4,12.76-8.4s10.88,13,13.16,16.55,10,9.94,10,9.94a6.87,6.87,0,0,1,3.42.33l.18,0h0a27,27,0,0,1,7.1,3.94,13,13,0,0,1,9.6,3.38s6.32-1.24,7.45-.14,6.52-.26,6.52-.26,5-12.36,8.67-9,18.84,2.6,18.84,2.6c1.92-2.92,6.76-5.15,9.79-6.32a12.68,12.68,0,0,1,8.09-.47,10,10,0,0,1,3.25,1.5l9.53,9.13s2.51-3.71,2.17-4.52,3-1.6,3-1.6,4.44-1.66,6.14-2.23,3.33,1.34,3.47,1.49a20.14,20.14,0,0,1-1-7.17c.34-3.05-2.08-5.82-2.08-5.82,4.92-14.32,17.61-3,17.61-3s1.69,7.65.54,10.66,1.58,9.12,1.33,10.77.79,4.41.88,7.52-1.22,9.07-2,11.74-8.08,8.86-8.08,8.86-.13,9.36-3.19,14.91-.36,24-.36,24,3.63,14.3,7.68,18.73S1024,489,1024,489Z"/><path class="cls-19" d="M937.07,384.53s-1.9-5.34-3.5-5.76a36.69,36.69,0,0,1-4.57-1.95l.88-2.06s5.89,1.44,6.88,3.21S937.07,384.53,937.07,384.53Z"/><path class="cls-19" d="M905.46,373.83c-.25,1.64-14.05,3.71-14.05,3.71l6.72-7.69h0l.17,0h0A27.5,27.5,0,0,1,905.46,373.83Z"/><ellipse class="cls-30" cx="864.68" cy="352.95" rx="1.25" ry="1.32"/><ellipse class="cls-30" cx="866.36" cy="355.51" rx="1.25" ry="1.32"/><ellipse class="cls-30" cx="868" cy="357.86" rx="1.25" ry="1.32"/><ellipse class="cls-30" cx="869.73" cy="360.42" rx="1.25" ry="1.32"/><ellipse class="cls-30" cx="1016" cy="354.33" rx="1.01" ry="1.07"/><ellipse class="cls-30" cx="1016.25" cy="356.74" rx="1.01" ry="1.07"/><ellipse class="cls-30" cx="1016.46" cy="359.15" rx="1.01" ry="1.07"/><path class="cls-19" d="M938.77,429c-.15-.18,36.53,45.06,62.71,17C1001.48,445.94,958.79,453.84,938.77,429Z"/><path class="cls-19" d="M919.56,454s21-.25,23.38,6l.24,6.63a3.79,3.79,0,0,1-3.9.15c-2.15-1.11-15-7.41-19.4-3.94Z"/><path class="cls-31" d="M920,454s20-.24,22.35,5.74l.24,6.32a3.65,3.65,0,0,1-3.73.14c-2.06-1.06-14.4-7.05-18.55-3.75Z"/><path class="cls-19" d="M929.24,405.55a71.42,71.42,0,0,0,8.65,14.38,55.72,55.72,0,0,0,13.16,12.45S929.69,408.57,929.24,405.55Z"/><path class="cls-19" d="M921.45,380.13s4.07,15.76,13.27,20.83Z"/><path class="cls-19" d="M916.16,382c-.1-.3-2.63,12.72,12.29,19.25C928.47,401.21,922.15,399.22,916.16,382Z"/><path class="cls-19" d="M1007.17,367.56c-.23,0,7.44,4.74,9.56,7C1016.73,374.56,1011.58,367.06,1007.17,367.56Z"/><path class="cls-26" d="M959.41,358.47a3,3,0,0,0,3,2.95,1.18,1.18,0,0,0,.27,0c5.65.14,11.52.16,16.68-2.33a6.42,6.42,0,0,0,2.47-1.85c.89-1.23,1-2.87,1.33-4.38.62-2.94,2.08-5.56,3.11-8.42a29.38,29.38,0,0,0,1.25-15,10.33,10.33,0,0,0-1.56-4.29c-1.58-2.2-4.34-3-6.37-4.7s-3.41-4.41-5.77-5.66c-2.12-1.13-4.65-.93-7-.37a35.63,35.63,0,0,0-12.81,5.7c-1.31.93-2.74,2-4.29,1.73-1.36-.21-2.39-1.38-3.3-2.46a19.29,19.29,0,0,0-1.07,8.56,4.57,4.57,0,0,1,0,1.28,4.16,4.16,0,0,1-.82,1.39c-1.32,1.76-2.1,4.49-.66,6.16.62.73,1.55,1.1,2.17,1.85,1.09,1.32.81,3.31.89,5.06a2.69,2.69,0,0,0,.47,1.72,2.31,2.31,0,0,0,2.3.48,5.81,5.81,0,0,1,2.41-.34,4.1,4.1,0,0,1,2.18,1.63C957,350.52,958.17,354.32,959.41,358.47Z"/><g class="cls-23"><path d="M982.39,355.65a6.26,6.26,0,0,1-2.48,1.85c-5.13,2.49-11,2.49-16.63,2.33a2.94,2.94,0,0,1-3.28-2.62l0-.3c-1.24-4.16-2.39-8-5.12-11.35a4,4,0,0,0-2.17-1.62,6.2,6.2,0,0,0-2.42.33,2.29,2.29,0,0,1-2.3-.48,2.71,2.71,0,0,1-.47-1.71c0-1.76.24-3.71-.88-5.07-.61-.75-1.54-1.11-2.17-1.85a4,4,0,0,1-.51-3.9c-.92,1.69-1.27,3.83-.07,5.24.62.72,1.56,1.09,2.17,1.85,1.09,1.32.82,3.31.89,5.07a2.66,2.66,0,0,0,.47,1.71,2.27,2.27,0,0,0,2.3.48,5.83,5.83,0,0,1,2.42-.34,4.11,4.11,0,0,1,2.17,1.63c2.73,3.39,3.88,7.19,5.12,11.35a4.21,4.21,0,0,0,1.54,2.58,3.78,3.78,0,0,0,1.75.34c5.65.13,11.52.15,16.68-2.35a6.26,6.26,0,0,0,2.48-1.85,5.24,5.24,0,0,0,.74-1.61Z"/><path d="M945.41,328.68a2.72,2.72,0,0,0,.53-1,3.44,3.44,0,0,0,0-1.28,19.27,19.27,0,0,1,.61-7.09l-.12-.12a19.27,19.27,0,0,0-1.07,8.56A4.85,4.85,0,0,1,945.41,328.68Z"/></g><path class="cls-19" d="M956.55,370.44s23.19,2.29,25.13-1.46"/><path class="cls-19" d="M1001,358.53s12.82-.5,15.8,4.46"/><path class="cls-24" d="M373.32,315.78v51.93c0,1.55-2.75,2.78-6.14,2.78H237.51c-3.39,0-6.14-1.25-6.14-2.78V315.78c0-1.55,2.74-3.13,6.14-3.13H367.19C370.57,312.65,373.32,314.23,373.32,315.78Z"/><g class="cls-13"><path class="cls-5" d="M373.32,315.78v51.93c0,1.55-2.75,2.78-6.14,2.78H237.51c-3.39,0-6.14-1.25-6.14-2.78V315.78c0-1.55,2.74-3.13,6.14-3.13H367.19C370.57,312.65,373.32,314.23,373.32,315.78Z"/></g><rect class="cls-5" x="293.68" y="331.2" width="67.54" height="2.52"/><path class="cls-14" d="M259.5,325.67c-8.85,0-16,7.58-16,16.93a17.2,17.2,0,0,0,7.17,14.1v-1.13a3.77,3.77,0,0,1,3.21-3.8,6.17,6.17,0,0,0,8.63,2.66,6.47,6.47,0,0,0,2.52-2.66,3.78,3.78,0,0,1,3.21,3.8v1.2a17.49,17.49,0,0,0,4.69-23.41A15.81,15.81,0,0,0,259.5,325.67Zm6.27,21.44a6.47,6.47,0,0,1-6.8,6.19,6.55,6.55,0,0,1-5.86-6.19,7.53,7.53,0,0,1,3.42-9.73l.23-.11a2.12,2.12,0,0,1-.34-1.2,2.19,2.19,0,0,1,2.11-2.24h.15a2.27,2.27,0,0,0-1.68,3.34h.06a3.09,3.09,0,0,1,0-.43,2.29,2.29,0,0,1,.39-1.3,2.15,2.15,0,0,1,2-1.58h.14a2.12,2.12,0,0,0-1.61,1,2,2,0,0,1,2.93.63,2.34,2.34,0,0,1,.35,1.22V337a7.39,7.39,0,0,1,4.92,9,6.92,6.92,0,0,1-.4,1.16Z"/><rect class="cls-14" x="293.68" y="337.33" width="67.54" height="2.52"/><rect class="cls-14" x="293.68" y="343.47" width="67.54" height="2.52"/><rect class="cls-14" x="293.68" y="349.61" width="67.54" height="2.52"/><path class="cls-32" d="M462.57,474.54a61.18,61.18,0,0,1-.88-8.55c0-3.43-4.39-6.49-4.39-6.49s-2.73-6.67-4.52-7.65-7.43-9.72-7.43-9.72a8.14,8.14,0,0,0-1.7-4.7,70.08,70.08,0,0,1-4.6-7.34h0c-.75-1-.37-1.66-1.51-7.36-.07-.3-.13-.58-.21-.86a1.27,1.27,0,0,0-.12-.36,10,10,0,0,0,2.14-9.95,4.22,4.22,0,0,0-1.07-1.77c-1.28-1.1-3.32-.65-4.64-1.69l1.39-6.55c.34-1.6.52-3.63-.81-4.5a6.58,6.58,0,0,0-1.56-.55c-2.3-.76-3.59-3.33-4.17-5.77a20.73,20.73,0,0,1-.46-7.24c.25-2.31.88-4.58,1.14-6.9a19.88,19.88,0,0,0-2.78-12.29,9.34,9.34,0,0,0-3.68-3.67c-1.41-.66-3-.75-4.39-1.62-2.82-1.85-2.68-6.4-4.93-9s-6.23-2.58-9.52-1.69-6.54,2.42-9.91,2c-2.17-.25-4.2-1.29-6.37-1.53a5.89,5.89,0,0,0-1.87.09l0-.08a4.1,4.1,0,0,0-3.47,2.86,4.68,4.68,0,0,0-.11,1.18c0,.93.22,1.9.24,2.78a2.83,2.83,0,0,1-.61,2c-.43.5-1.08.76-1.49,1.25a2.1,2.1,0,0,0-.56,1.47c0,1.43,1.69,2.69,2.82,3.26h0c-.31.33-.61.66-.88,1a21.72,21.72,0,0,0-4.94,14,21.42,21.42,0,0,0,12.29,19.58c-.05.17-.09.34-.15.52a26.75,26.75,0,0,1-1.11,3,5.45,5.45,0,0,0-4.76.55c-2.17,1.57-6.41,1.48-7.53,1.19s-12.89-1.85-13.83-1.48-2.83-1.37-4.05,1-1.75,3.63-3,4.23-3.39,2.46-3.11,2.84-3.11,2.78-3.11,2.78-2.92,3.24-4.61,3.64-5.27,2.84-5.27,2.84l-4.15,3.43s-3.11.5-2.17-1.76-1.69-5.11-1.69-5.11-5.27-11.28-5.27-13.62S320.91,390,320.91,390l-.53-.05c-.08-.25-.16-.49-.25-.74a74.31,74.31,0,0,0-2.63-7c-1.49-3.23-2.46-3.6-2.46-3.6s-18.26-14.48-30.12-10.07,21.64,17.56,24.66,18.94c1.05.48,1.81,2,2.34,3.84a16,16,0,0,0-6.45,6.2s7.24,17,7.43,21.18,5,16,5,16A10.7,10.7,0,0,0,329.38,443s13.35,2.58,16.27,0,5.56-4.64,7-4.92a5.48,5.48,0,0,0,2.64-2s-4.39,29.43-6.59,32-21.36,35.61-14.5,41.49a136.47,136.47,0,0,0,17.22,12.05c.59.31,2.34-2.78,4.84-5v1.7c0,11.76,1.49,29.67,3.55,33.68,3,5.89,1.75,17.27,1.75,17.27a12.32,12.32,0,0,0,5.1,1.28q.13.57.3,1.2c1.66,6.62,4.35,16.85,5.71,19.58,2.09,4.13,3.59,17.18,3.59,17.18s1.22,12.85.75,14.62c-.18.68.61,6,1.86,12.78h0c-.76,9.2-2.2,26.94-2.44,33.38h0v1.07h0a8,8,0,0,0,0,1.2,3.86,3.86,0,0,1-.12,1.85,30.94,30.94,0,0,1-2,5.14,24.13,24.13,0,0,0-.88,2.5c-.74.34-1.67,1.2-2.2,3.29-.94,3.83-2.35,14.43-2.35,14.43s-.56,6.49-1.7,8-2.25,10.69,5.75,11.86,11.48-4.48,11.48-4.48L384,688.44h0a3.55,3.55,0,0,0,.41-.71v-.06c.05-.12.12-.25.17-.39s0-.12.06-.19a.86.86,0,0,0,.12-.32v-.1a17.87,17.87,0,0,0,.68-7.66v-1.08a1.87,1.87,0,0,1,0-.52v-.56c0-.1.05-.21.05-.33v-.07c.07-.38.17-.76.27-1.17v-.08l.1-.39h0c.13-.42.25-.82.39-1.23v-.09l.14-.38v0c.13-.39.27-.77.41-1.14v-.1l.14-.33v-.1l.29-.73h0l2.22,7.25s1.22,5.39.56,6.66.75,6.59,1.69,6.68l-.88,6.67q-.72,5.53-.88,11.13c-.06.42-.13.77-.16,1.06-.61,3.41.88,8.71.88,8.71,7.43,9.27,16.28.73,16.28.73s1-4.91,0-5.89-.56-4.51-.56-4.51.46-8.74.56-15.11-4.94-12-4.94-12l-.28.28c-.88-2.5-2-5.42-1.75-6.73.37-2.25-1-26.09-1-26.09a153.47,153.47,0,0,0,.33-19.18h0c.12-1.09.23-2.15.35-3.18.57-5.12,1-9.51,1.21-11.81h0v-.27a12.39,12.39,0,0,0,.06-1.27c0-.75,0-1.71.06-2.71.19-2.78.6-5.82.6-5.82l2-12.66s1.5-6.18,3.67-9.62l.25-.43h0c.09-.15.18-.32.27-.5V582l.26-.54v-.08c.31-.62.63-1.36,1-2.16l.07-.17.26-.61.09-.24.25-.61a.56.56,0,0,1,.1-.24c.1-.26.19-.51.3-.76l.15-.36c.07-.18.14-.37.22-.56l.19-.48.14-.36.21-.55c0-.08.07-.16.1-.25.53-1.41,1.06-2.78,1.52-4.09h0c.14-.4.29-.78.42-1.16,4.81.32,8.08.6,8.08.6s1.51-11.47,1-19a74.21,74.21,0,0,1,1.18-15.24c.07-.39.14-.75.19-1.06l.13.1c2.37,2,4-4.51,4-4.51s-.63-6-1.48-13.37a6.06,6.06,0,0,0-.09-.73,33.68,33.68,0,0,0,4.12.67s.75-.08,1.75-.22a49.29,49.29,0,0,0,8.93,4.24l5-9.82a40.1,40.1,0,0,1,3.29-5.78c1.51-2,6.87-8.24,6.78-9.42s1.76-8,3.68-11S462.68,475,462.57,474.54ZM441.68,482c-2,.88-3.87,5.78-3.95,7.26s-2.17,7.94-4.34,8.74c-2,.72-5.8,4.41-6.41,5-.62.06-1.32.14-2.06.28-.82-6.19-1.64-11.32-2.17-12.35-1.5-2.95,1.66-12.36,1.66-12.36s.32-9.52,2.28-11.78,1.51-7.95,1.51-7.95.47-2.35.66-3.42,2.8,0,2.82,0h0s5.09,2.93,5.84,7.35,6.31,12,6.31,12-.88,2.64,0,4-.18,2.3-2.15,3.18Z"/><path class="cls-33" d="M305.6,398.13a14.9,14.9,0,0,1,15.19-7.54v11.46h-6.55l-5.2-1.41Z"/><path class="cls-19" d="M305.6,398.13a14.9,14.9,0,0,1,15.19-7.54v11.46h-6.55l-5.2-1.41Z"/><path class="cls-34" d="M321.26,393.63l-8.07,6s-.07-1.2-.27-2.84c-.41-3.09-1.31-7.72-3.26-8.62-3-1.37-36-14.49-24.27-18.89s29.66,10,29.66,10,.93.33,2.4,3.57c.79,1.7,1.75,4.6,2.58,6.95C320.74,391.94,321.26,393.63,321.26,393.63Z"/><polygon class="cls-33" points="385.76 402.84 386.67 402.37 389.25 405.48 387.14 410.23 383.55 408.71 384.38 404.91 385.76 402.84"/><path class="cls-7" d="M373.53,681s-2.31-.29-3.24,3.53-2.32,14.4-2.32,14.4-.55,6.49-1.66,7.92-2.22,10.68,5.66,11.85,11.31-4.48,11.31-4.48L383,688.49Z"/><path class="cls-7" d="M401,682.1s5,5.56,4.88,12-.56,15.09-.56,15.09-.46,3.52.56,4.5,0,5.87,0,5.87-8.72,8.55-16-.72c0,0-1.44-5.29-.89-8.7s2.22-18.79,2.22-18.79Z"/><path class="cls-34" d="M413.31,565s-5,14.84-7.15,18.21-3.6,9.61-3.6,9.61l-1.95,12.64A73.35,73.35,0,0,0,400,614c.09,2.84-4.81,44.26-4.81,44.26l-7.79,10.48s-3.43,7.34-2.88,10.38-.37,7.92-1.48,9.4c0,0-.19,9.6-.47,11.76s1,8.22,0,9.27-14.63.58-15-1.19S369.2,698,369.2,698l1.2-8.23s2.4-4.5,1.85-6,1-4.89,1.11-5.19,2.64-5.1,2.13-6.95,2.87-41.33,2.87-41.33l9.55-70.81Z"/><path class="cls-19" d="M413.31,565s-.76,2.22-1.81,5.15c-1.65,4.64-4,11-5.34,13.06-2.13,3.43-3.61,9.6-3.61,9.6l-1.94,12.64a73.35,73.35,0,0,0-.65,8.51c0,1.12-.71,8.28-1.63,16.52-1.4,12.6-3.19,27.75-3.19,27.75l-7.8,10.48s-.4.84-.88,2.06c-1,2.4-2.36,6.31-2,8.35.55,3-.37,7.93-1.48,9.41,0,0-.19,9.6-.47,11.75s1,8.23,0,9.27-14.63.59-15-1.19,1.67-10.27,1.67-10.27l1.21-8.24s2.4-4.5,1.85-6,1-4.9,1.11-5.2,2.64-5.09,2.13-6.95c-.36-1.41,1.49-24.61,2.38-35.61.3-3.46.49-5.71.49-5.71l8.21-60.91.66-4.91.68-5Z"/><path class="cls-34" d="M405,712.29c.08,1.07-13.07,2.64-14.92,1.46S390,698,390,698l.88-6.66c-.93-.1-2.31-5.38-1.66-6.66s-.57-6.65-.57-6.65l-2.19-7.24-1.33-4.42c-2.16-5.05-5.27-19.47-7.25-30.23-1.23-6.76-2-12-1.83-12.76.47-1.77-.74-14.59-.74-14.59s-1.48-13-3.51-17.14c-1.36-2.72-4-13-5.64-19.55-.83-3.38-1.41-5.82-1.41-5.82s14-1.24,22.5-1.67c3.91-.19,6.65-.22,6.32.12s-.39,2.13-.37,4.71c0,6.72.92,18.55,1.86,21.72,1.29,4.41,2.63,17.62,2,18.9s-.37,9.79-.37,9.79a46.51,46.51,0,0,1,1.63,10.64,152.83,152.83,0,0,1-.33,19.14s1.4,23.79,1,26,3,9.27,3,10.68.84,10.67.84,10.67S404.87,711.21,405,712.29Z"/><path class="cls-34" d="M412.28,426.24l-1.6,1.85-1,1.18-6.08,6.82-15.66,1.85-8.32-2.35-2.06-.57s0-4.43.37-9.73c.53-6.8,1.8-15.06,4.82-17.3a12.47,12.47,0,0,0,3.5-4.72,26.31,26.31,0,0,0,1.52-4c.06-.17.11-.34.16-.51a44.72,44.72,0,0,0,1.47-7.28s2-1.17,4.78-2.52c7.25-3.59,19.79-8.52,15.43,2.52a45.16,45.16,0,0,0-1.64,5,7.22,7.22,0,0,0-.18.74c-1.46,6.16-.5,9.88.6,11.94h0a7.08,7.08,0,0,0,.63,1,4.92,4.92,0,0,0,1.05,1.13l1.81,12.1.15,1Z"/><path class="cls-19" d="M409.6,392.16c-.84,2.1.39-1.71,0,0-3.31,2.49-11.08,9.55-15.47,9.55-2.95,0-3.84-.56-6.38-1.77a45.8,45.8,0,0,0,1.64-7.78S415.61,376.88,409.6,392.16Z"/><path class="cls-34" d="M416.25,379.29c0,10.93-7.81,20.09-18.09,21.22a16.69,16.69,0,0,1-2.11.12c-11.15,0-20.19-9.55-20.19-21.33s9-21.33,20.19-21.33,20.18,9.55,20.18,21.33h0Z"/><path class="cls-19" d="M419.14,473.93l-2.87,7.93-6,.23c-12.3.42-39.51.93-40.72-2.39a8.38,8.38,0,0,1-.41-2.64c-.17-5.1,2.09-12.93,2.09-12.93s1.3-15.67,1.3-16.35-1.12-11.7-1.12-11.7l2.22-8.8,6.22-4.64s2.78,4.5,4.45,4.89,3.89,2.55,3.89,2.55,5.46,3.52,7.23,1.55,15.47-10.56,15.47-10.56l7.24,8.41Z"/><path class="cls-24" d="M419.14,475.11,416.27,483s-2.35.11-6,.22h-.36l-5.33.15c-9.79.23-23.31.3-30.35-.79-2.63-.4-4.39-.93-4.68-1.76a7.25,7.25,0,0,1-.33-1.45c0-.39-.07-.79-.08-1.18-.17-5.11,2.09-13,2.09-13s1.3-15.68,1.3-16.36-1.12-11.66-1.12-11.66l2.22-8.8,4.27-3.16,1.94-1.43a29.9,29.9,0,0,0,2.13,3,5.63,5.63,0,0,0,2.32,1.93c1.66.4,3.89,2.55,3.89,2.55s5.46,3.53,7.23,1.57c1.35-1.51,9.65-6.89,13.53-9.35l1.95-1.23,1,1.14,6.26,7.29Z"/><path class="cls-19" d="M321.26,393.63l-8.07,6s-.07-1.2-.27-2.84c4-1.77,6.4-5.7,7.11-7C320.74,391.94,321.26,393.63,321.26,393.63Z"/><path class="cls-9" d="M349.62,413.9l-1.75-.49s-2.88,3.23-4.55,3.62-5.19,2.85-5.19,2.85l-4.08,3.41s-3.06.5-2.13-1.76-1.66-5.09-1.66-5.09-5.2-11.27-5.2-13.61-4.26-12.25-4.26-12.25-5.37,11.07-15.2,7.54c0,0,7.14,16.94,7.33,21.16s4.91,16,4.91,16a10.59,10.59,0,0,0,11.3,8.22s13.17,2.59,16,0,5.48-4.64,6.87-4.91a5.5,5.5,0,0,0,2.59-2V425Z"/><path class="cls-19" d="M333.12,425s2.32,9.11.89,10.09Z"/><path class="cls-19" d="M410.27,483.26c-12.3.42-39.51.93-40.72-2.38a8.31,8.31,0,0,1-.41-2.63l40.27,2.24Z"/><path class="cls-19" d="M413.31,565s-.76,2.22-1.8,5.15c-5.12-.33-11.9-.68-18.33-.73-2.29,0-4.52,0-6.61.08a46.88,46.88,0,0,0-10.8,1.27,27.05,27.05,0,0,1-9.65,1.31c-.84-3.38-1.42-5.81-1.42-5.81s14.05-1.24,22.5-1.68l.68-5Z"/><path class="cls-17" d="M424.15,529.17l-1.57,3.52s-.23,1-.51,2.71a74.67,74.67,0,0,0-1.17,15.21c.48,7.54-1,19-1,19s-34.1-3-44.11,0-14.91,0-14.91,0,1.2-11.37-1.76-17.24c-2-4-3.46-21.88-3.5-33.61,0-5.42.25-9.53.88-10.35,2-2.66,10.75-29.09,10.75-29.09l2,.11,5.27.3,30.19,1.67,4.72.26.51,1.63Z"/><path class="cls-33" d="M439.16,517.41l.28,3.14s-14.92-5.14-14.18-11.45,0-5.56,0-5.56l12,1.07Z"/><path class="cls-19" d="M439.16,517.41l.28,3.14s-14.92-5.14-14.18-11.45,0-5.56,0-5.56l12,1.07Z"/><path class="cls-19" d="M343.09,427.49a13.15,13.15,0,0,0,5.27,2.9,3.44,3.44,0,0,1-1.55-.77c-1.07-.8-2.09-1.68-3.12-2.53-.82-.69-1.87-1.85-2.89-2.1A16.46,16.46,0,0,0,343.09,427.49Z"/><path class="cls-19" d="M343.32,431.62a6.89,6.89,0,0,1,1.16,1.93,8.51,8.51,0,0,1,.33,2.5,8.3,8.3,0,0,1-.42,3.56l-2.43-6.1c-.42-1-.88-2.07-1.34-3.08-.22-.42-1.6-2.19-1.44-2.55C339.64,426.81,342.87,431,343.32,431.62Z"/><path class="cls-19" d="M410.15,465.41a7.57,7.57,0,0,0,4.39-2.14c-2.47.33-4.8,1.35-7.23,1.85a10.21,10.21,0,0,1-6.73-.65C403.34,465.93,407.15,466,410.15,465.41Z"/><path class="cls-19" d="M403.18,447.48a1.57,1.57,0,0,1-1.25-.33c-1.85-1.11-3.68-2.27-5.48-3.5a34,34,0,0,1-5.35-3.92C394.78,443.25,398.2,446.21,403.18,447.48Z"/><path class="cls-19" d="M408.33,468.25a11.11,11.11,0,0,0,2.88-.24,4,4,0,0,0,2.39-1.65,1.28,1.28,0,0,0-1,.16,16.17,16.17,0,0,1-9.3,1.19C404.78,468.38,406.72,468.24,408.33,468.25Z"/><path class="cls-19" d="M390.77,513.72a28.68,28.68,0,0,1-5.93,1.23,33.39,33.39,0,0,1-4.69-.1l-7.59-.51-3.8-.26c-.45,0-2.29,0-1.38-.93.46-.46,3-.17,3.65-.19,1.26,0,2.51-.07,3.77-.08,2.51,0,5,0,7.54.17Q386.57,513.24,390.77,513.72Z"/><path class="cls-19" d="M382,517.69c-1.29-.06-2.94.75-4.27.93a26.67,26.67,0,0,1-4.47.19,24.28,24.28,0,0,1-8.63-1.85C370.42,517.26,376.2,517.45,382,517.69Z"/><path class="cls-19" d="M365.75,521.88a12,12,0,0,1,1.65.48c3.2,1,6.6.11,9.83-.73a5.78,5.78,0,0,1-3.73,2.19,16.58,16.58,0,0,1-7.28.28c-.76-.15-2.63-.45-3.05-1.28C362.58,521.59,365,521.77,365.75,521.88Z"/><path class="cls-19" d="M383.7,528.2a25.76,25.76,0,0,1,2.83.77c3.61.93,7.35-.35,11-1.22a48.54,48.54,0,0,1,13.26-1.3,13.42,13.42,0,0,0-2.85,1c-1,.33-2.06.62-3.1.93a59.27,59.27,0,0,1-6.2,1.28,60,60,0,0,1-12.71.58c-1.93-.1-5.26.11-7-.93A7.43,7.43,0,0,1,383.7,528.2Z"/><path class="cls-19" d="M385,407.43s.19,9-1.21,13.13c-.42,1.28-1.11,3.65-1.85,6.3-.81,2.93-1.7,6.23-2.38,8.78s-1.13,4.32-1.13,4.32-3.13,26.94-4,39.78v.67c0,.72-.12,1.47-.23,2.25-1.81,12.75-12.21,32.41-15.71,34a10.58,10.58,0,0,0-2.94,2.13c0-5.42.25-9.53.88-10.35,2-2.66,10.75-29.09,10.75-29.09l2,.11c0-.39-.07-.79-.08-1.18-.17-5.11,2.09-13,2.09-13s1.3-15.68,1.3-16.36-1.12-11.66-1.12-11.66l2.22-8.8,4.27-3.16c.53-6.8,1.8-15.06,4.82-17.3a12.47,12.47,0,0,0,3.5-4.72c.61.09-.49-.47-.49-.47Z"/><path class="cls-9" d="M386.67,402.37a5.33,5.33,0,0,0-4.7.56c-2.13,1.56-6.3,1.47-7.42,1.18s-12.7-1.85-13.62-1.47-2.78-1.37-4,1-1.75,3.62-3,4.23-3.34,2.45-3.06,2.83-3.05,2.78-3.05,2.78l6.76,23.18s-4.39,29.38-6.49,31.92S327.08,504.11,333.88,510a137.93,137.93,0,0,0,17,12c.75.38,3.43-4.89,7.15-6.57s15.2-23.75,15.95-36.25,4-40.45,4-40.45,4-15.28,5.38-19.39,1.17-13.13,1.17-13.13Z"/><path class="cls-19" d="M424.15,529.17l-1.57,3.52s-.23,1-.51,2.71a1.33,1.33,0,0,1-.79-.35c-2.32-2-15.95-16.75-16.59-29.88-.49-9.67-.26-18-.11-21.73.05-1.17.09-1.85.1-2h0s10.53-13.52,9.35-18.31-4-30.47-4-30.47l-.41-3.36-.7-5.68-1.66-13.79,1.76.43a4.9,4.9,0,0,0,1,1.13l1.81,12.1,6.26,7.28,1,44.37L416.31,483s-2.35.11-6,.22H410Z"/><path class="cls-9" d="M430,455.91s-2.64-1.08-2.78,0-.65,3.42-.65,3.42.45,5.68-1.48,7.93S422.82,479,422.82,479s-3.12,9.41-1.64,12.34c.53,1.07,1.37,6.41,2.2,12.82.52,4,1.06,8.39,1.53,12.41.88,7.32,1.46,13.35,1.46,13.35s-1.66,6.49-4,4.51-15.94-16.77-16.59-29.87c-.46-9.23-.27-17.23-.13-21.17.07-1.68.13-2.63.13-2.63s10.53-13.51,9.37-18.3-4-30.47-4-30.47l-.5-4-.51-4.26-.12-.93-1.67-13.67h0c.3.07,10.7,2.55,12.07,4s9.82,3.53,9.82,3.53a7.69,7.69,0,0,1,5.27,5.71c.07.27.14.56.2.86,1.11,5.68.75,6.36,1.49,7.34S430,455.91,430,455.91Z"/><path class="cls-19" d="M424.91,516.59c-3.81-.77-9.41-2.64-9.3-6.72.13-3.82,4.48-5.2,7.77-5.69C424,508.18,424.44,512.57,424.91,516.59Z"/><path class="cls-34" d="M436.66,514.57c-.14.34-.78.64-1.62.93a40.21,40.21,0,0,1-6.14,1s-12.88-1.07-12.7-7.24c.14-4.44,5.95-5.56,9.22-5.87,1.28-.12,2.18-.11,2.18-.11S437.22,513.3,436.66,514.57Z"/><path class="cls-19" d="M436.66,514.57c-.14.34-.78.64-1.62.93-3.36-4.75-8.05-10.84-10.33-11.38,0,0,.26-.27.7-.68,1.27-.12,2.17-.11,2.17-.11S437.22,513.3,436.66,514.57Z"/><path class="cls-9" d="M433.42,430.06l3.79.58a70.72,70.72,0,0,0,4.55,7.34,8.29,8.29,0,0,1,1.66,4.7s5.56,8.71,7.32,9.69,4.45,7.65,4.45,7.65,4.39,3,4.39,6.49a60.7,60.7,0,0,0,.83,8.51c.09.49-.65,6.57-2.51,9.6s-3.7,9.79-3.6,11-5.19,7.42-6.68,9.41a40.24,40.24,0,0,0-3.24,5.77l-4.91,9.8s-10.38-16.16-14.18-17c0,0,4.26-4.31,6.4-5.1s4.17-7.25,4.26-8.72,1.94-6.37,3.89-7.25,3-1.76,2.13-3.14,0-4,0-4-5.47-7.64-6.22-12.05S430,455.9,430,455.9l-2.88-7.42Z"/><path class="cls-19" d="M447.2,466.61a11.64,11.64,0,0,1,7.49-3c-1.76.33-3.62.73-4.9,2a12.41,12.41,0,0,0-1.36,1.85c-.45.67-4,5.48-4.59,4.72C443,471.06,446.48,467.26,447.2,466.61Z"/><path class="cls-19" d="M438.81,462a3.22,3.22,0,0,0,2.64-2,11.86,11.86,0,0,0,.82-3.48,54.33,54.33,0,0,1,1.15-5.95,3.74,3.74,0,0,0,.19-1.24,4.06,4.06,0,0,0-.34-1.19,9.53,9.53,0,0,0-.81-1.78c-.69.82-.88,2.67-1.17,3.71-.34,1.33-.67,2.67-1,4C440.17,454.78,438.87,462,438.81,462Z"/><path class="cls-19" d="M435.53,422.44a9,9,0,0,1-1.28,1.4c-1.48,1.27-3.51,2.34-3.72,4.35a4.83,4.83,0,0,1-.22,1.93c-.49.88-1.68.81-2.64.63a4.39,4.39,0,0,1-2.22-.86c-1-.93-1.08-2.5-1.84-3.62a4.6,4.6,0,0,0-3.76-1.78c-1.42-.05-2.83.29-4.25.35a10.81,10.81,0,0,1-2.72-.19l-.88-.19a11.38,11.38,0,0,1-1.85-.67c-.3-.14-.59-.28-.88-.45a12.33,12.33,0,0,1-2.64-1.91,7.07,7.07,0,0,1-2.42-5.21,33.29,33.29,0,0,1,.8-3.56c.57-3.46-1.61-6.73-4-9.21-.94-1-1.93-1.94-2.87-2.94a14.54,14.54,0,0,1-3.4-5.1,16.42,16.42,0,0,1-.61-6.39,45,45,0,0,0,.18-6.57c-.7-7.79-7-13.76-13.29-17l-.27-.15a19.44,19.44,0,0,1,28.5-1.73,22.19,22.19,0,0,1,1.64,30.11,20.3,20.3,0,0,1-2.93,2.86,6.64,6.64,0,0,0-.18.74c-1.46,6.16-.5,9.88.6,11.94h0c.3.07,10.7,2.55,12.07,4s9.82,3.53,9.82,3.53A7.64,7.64,0,0,1,435.53,422.44Z"/><path class="cls-7" d="M379.4,359.64c.41-.51,1-.77,1.46-1.25,1.31-1.5,0-4,.48-5.95.52-2.21,3.07-3.17,5.21-2.94s4.15,1.27,6.28,1.53c3.32.39,6.53-1.13,9.77-2s7.15-.93,9.39,1.68,2.07,7.08,4.84,9c1.28.87,2.9.93,4.28,1.62a9.2,9.2,0,0,1,3.63,3.66,20.12,20.12,0,0,1,2.73,12.27c-.23,2.31-.88,4.58-1.13,6.89a21.37,21.37,0,0,0,.45,7.22c.59,2.44,1.85,5,4.13,5.76a6.34,6.34,0,0,1,1.54.56c1.3.85,1.14,2.89.8,4.47l-1.4,6.54c1.29,1,3.31.59,4.57,1.69a4.1,4.1,0,0,1,1.06,1.77,10,10,0,0,1-2.72,10.52c-1.48,1.27-3.5,2.34-3.72,4.35a4.85,4.85,0,0,1-.22,1.93c-.48.87-1.68.81-2.64.63a4.47,4.47,0,0,1-2.2-.86c-1-.93-1.09-2.5-1.84-3.62a4.65,4.65,0,0,0-3.76-1.79c-1.44,0-2.84.3-4.25.36a12.06,12.06,0,0,1-9-3.42,7,7,0,0,1-2.44-5.19c.21-1.2.47-2.39.8-3.57.57-3.45-1.61-6.73-4-9.2s-5.13-4.76-6.28-8c-1.44-4.08,0-8.62-.43-13-.69-7.79-7-13.76-13.28-17C380.15,363.53,377.76,361.59,379.4,359.64Z"/><path class="cls-19" d="M429,426.88c-1-.93-1.08-2.5-1.83-3.62a4.62,4.62,0,0,0-3.77-1.78c-1.42,0-2.83.29-4.25.36a12.16,12.16,0,0,1-9-3.37,7,7,0,0,1-2.43-5.2,33.25,33.25,0,0,1,.79-3.56c.57-3.46-1.61-6.74-4-9.22s-5.11-4.75-6.28-8.05c-1.43-4.06,0-8.62-.41-13-.7-7.78-7-13.76-13.29-17-1.46-.76-3.86-2.7-2.22-4.64.42-.51,1-.76,1.46-1.24,1.31-1.51,0-4,.49-6a3.11,3.11,0,0,1,.47-1.09,4.05,4.05,0,0,0-3.41,2.85c-.46,2,.83,4.45-.48,6-.42.49-1.06.74-1.47,1.24-1.63,2,.76,3.89,2.23,4.64,6.3,3.25,12.58,9.22,13.28,17,.39,4.32-1,8.87.43,13,1.15,3.29,3.91,5.56,6.28,8.05s4.53,5.75,4,9.21c-.32,1.17-.58,2.36-.8,3.56a7.06,7.06,0,0,0,2.43,5.2,12.09,12.09,0,0,0,9,3.42c1.43-.07,2.83-.4,4.26-.36a4.62,4.62,0,0,1,3.75,1.78c.76,1.13.89,2.73,1.84,3.62a4.51,4.51,0,0,0,2.21.86c.95.19,2.14.25,2.64-.63a2.38,2.38,0,0,0,.21-1.15A4.17,4.17,0,0,1,429,426.88Z"/><g class="cls-35"><path class="cls-3" d="M114.66,333c57.46,179.75,5.42,231.39-47,249.47-69.73,24-118.67,202.7-234.1,197-92.19-4.52-63.27-63.27-177.16-54.23-270.22,21.45-259.67-237.17-265.73-338.5C-619.85,211-394.33,19.4-203,19.4c159.31,0,644,29.11,429.79,165.4C196.91,203.78,79.41,222.76,114.66,333Z"/></g><path class="cls-36" d="M709.65,91.33c-2.8,2-6,1.2-9,1.2q-139.26.07-278.5,0a30.92,30.92,0,0,0-6,.14c43.77-.33,87.43-.1,131.09-.13q77-.07,154,0c2.83,0,5.83-.72,8.42,1.2"/><path class="cls-37" d="M709.65,91.33v1.24c-1.94,1.1-4.06.58-6.09.58q-143.73,0-287.46,0c-2,0-4.14.48-6.1-.53,1.26-2.81,3.7-1.2,5.46-1.2"/><path d="M410,92.62l299.65-.05v1.24q-77.43.07-154.86.13-69.33,0-138.68-.08C414.11,93.86,411.55,95.29,410,92.62Z"/><path d="M512,63.22c0-5.17,0-10.34,0-15.5,0-1.6.31-3.4-1.52-4.4-1.13-.63-3.25-.62-2.23-2.75.8-1.67,2.59-.87,3.93-.91,4.14-.09,8.29-.06,12.44,0,9.83.08,14.92,4.12,16.85,13.8a43.78,43.78,0,0,1-.1,17.88C539.06,82,534.16,85.73,523.1,85.73c-4.14,0-8.29,0-12.43,0-1.92,0-4-1.69-2.1-2.48,5.17-2.19,3.09-6.18,3.39-9.5.31-3.49.07-7,.07-10.54Z"/><path d="M472.91,55.12c0,9.22,0,16.56,0,23.91a8.74,8.74,0,0,0,.57,2.36c.5,1.71,4.63.69,3.14,3.45-1.08,2-3.81.7-5.8.86a21.61,21.61,0,0,1-5.57-.09c-1.89-.33-2.68-2.08-.56-2.69,4.14-1.18,3.3-4.26,3.34-7,.1-8.47.12-16.94,0-25.41-.05-3,1.19-6.61-3.53-8.11-1.92-.61-.86-2.57,1-2.68,3.62-.2,7.07-.75,9.8,3.26,5.79,8.53,12.23,16.62,18.43,24.87a.29.29,0,0,0,.17.1,1.3,1.3,0,0,0,1.69-1.4c-1.11-8.4,3.94-16.81-3.45-24.23-1.2-1.2-.39-2.43,1.06-2.6a30.68,30.68,0,0,1,6.21-.06c1.72.15,4.12-1.07,5,1.09,1,2.46-2,1.89-2.95,3-1.31,1.65-.87,3.56-.88,5.35-.07,10.75,0,21.49-.1,32.23,0,1.6,1.21,4-1.42,4.72-2.29.67-3.79-.58-5.14-2.44C487.41,74.65,480.75,65.72,472.91,55.12Z"/><path d="M694.69,39.43a13.14,13.14,0,0,1,2.86.94c12.22,7.48,13,35.9,1.16,44.05a14.21,14.21,0,0,1-19-2.85c-7-8.73-7.09-28.78-.09-37.49,2-2.42,4.15-4.63,7.61-4.71A12.73,12.73,0,0,0,694.69,39.43Z"/><path d="M420.89,86.73c-1.35-.14-3.43-.23-5.46-.59-3.68-.66-6.05-6.39-4-9.48a2.13,2.13,0,0,1,1.45-.85c1.25,0,1.7.86,1.9,2,.79,4.47,3.78,6.13,8,6a5.89,5.89,0,0,0,6-4.42c1.41-4.32,0-7.74-3.34-10.42-3.07-2.43-6.58-4.36-9.4-7-5.82-5.53-6.47-13.59-1.94-19,3.7-4.39,14.52-5.9,19.67-2.74,1.6,1,2.55,7.38,1.1,8.34-1.63,1.07-2.6.27-3-1.58-.72-3.46-2.73-5.47-6.48-5.34-2.79.09-4.8,1.31-5.54,4.05a7.89,7.89,0,0,0,2.8,8.87c2.92,2.3,6.14,4.23,8.94,6.65,5.64,4.86,7.45,11.28,5.18,17.2C434.71,84,429.31,86.94,420.89,86.73Z"/><path d="M604.7,85.34c-.17-4.43,3.44-7.32,4.48-11.48,2.64-10.52,6.51-20.75,10-31,.52-1.52.28-4.11,3.09-3.82,2.17.22,2.09,2.35,2.57,3.77,3.6,10.73,7.06,21.51,10.62,32.25.64,1.95,1.54,3.82,2.2,5.76.52,1.53,3.39,1.73,2.49,3.79-1,2.26-3.3,1-5,1.12a55.73,55.73,0,0,1-6.2,0c-4.24-.06-3.82.11-2.2-3.73,1.34-3.18,0-7.51-2.6-8.61-3.26-1.39-8.32-2.14-11.1.46-2.5,2.33-5,6.69-.23,10.19.07,0-.29.69-.44,1.06C609.87,86.2,607.29,85.83,604.7,85.34Z"/><path d="M595.18,39.38c5.52-.46,8.16,1.75,7.18,7.53-.21,1.29-.25,2.5-1.85,2.68-1.28.15-1.6-.8-2.09-1.78-3.68-7.24-11.32-7.87-15.74-1.34-4.63,6.84-4.69,24.93-.06,31.67,4,5.86,9.69,5.39,15.61,4,1.33-.32,3.24-2.27,3.9.41.5,2.06-1.67,2.43-3.23,3-14.63,5.35-27.69-2.5-29.64-17.84-1.78-13.93,3.06-24.38,13-28a14.36,14.36,0,0,1,3-.38A20.59,20.59,0,0,0,595.18,39.38Z"/><path d="M661.2,62.31c0,5.16,0,10.31,0,15.47,0,1.84-.19,3.82,2.1,4.65,1.11.4,2.68.49,2,2.31-.47,1.18-1.66,1-2.68,1-4.13,0-8.27,0-12.41,0-1,0-2.16.12-2.5-1.22s.7-1.65,1.71-2c2.7-.8,2.37-3.16,2.4-5.12.12-10.11.12-20.22.15-30.33,0-1.64.25-3.61-2.19-3.58-2.11,0-4.71-.89-5.82,2.1-.43,1.17.51,3.5-1.75,3.17s-1.11-2.67-1.34-4.11c-.54-3.42.29-5.32,4.51-5.14,7.84.34,15.71.09,23.58.11,1.4,0,3.24-.28,3.3,1.78.08,2.43.19,5-.62,7.25-.37,1-2.22,0-2.28-1.54-.15-4.06-3.07-3.81-5.76-3.65-3.88.24-2.22,3.33-2.31,5.21-.23,4.53-.08,9.08-.08,13.62Z"/><path d="M450.69,85.77c-1.65,0-3.31.06-5,0-1.16-.06-2.69.49-3.29-1-.67-1.63.73-1.92,1.9-2.4,2.52-1.05,2-3.42,2-5.38.08-9.49.06-19,0-28.49,0-1.61.21-3.31-.89-4.77-.88-1.17-4-.5-3-3,.89-2.21,3.29-1,5-1.1,3.3-.18,6.62,0,9.93,0,1.07,0,2.23.1,2.52,1.28s-.52,1.77-1.67,2.09c-2.73.76-2.35,3.07-2.36,5.08,0,9.71,0,19.41,0,29.12a16.23,16.23,0,0,0,.68,4.18c.45,1.65,4.54.72,3,3.46-1.11,2-3.81.64-5.79.9A24.63,24.63,0,0,1,450.69,85.77Z"/><path d="M555.06,85.77c-1.66,0-3.32,0-5,0-1.17,0-2.7.43-3.23-1.06-.6-1.74,1-1.83,2.08-2.32,2.48-1.12,1.89-3.49,1.91-5.43.1-9.3.13-18.59,0-27.89,0-2.5.72-5.62-3.21-6.36-.81-.15-1.12-1.1-.8-2s1.21-1,2-1c4.55,0,9.11-.06,13.67,0A2.53,2.53,0,0,1,564.38,41a1.44,1.44,0,0,1-1.12,1.87c-3.54.76-2.87,3.59-2.89,5.95-.07,9.29,0,18.59,0,27.89,0,1.43-.15,3.06.46,4.26,2.45,4.88,2.55,4.83-3.27,4.83Z"/><path class="cls-38" d="M595.18,39.38a10,10,0,0,1-9.9,0A24.81,24.81,0,0,1,595.18,39.38Z"/><path class="cls-39" d="M604.7,85.34l7.71-.25C609.89,86.64,607.29,86,604.7,85.34Z"/><path class="cls-38" d="M694.69,39.43a6.18,6.18,0,0,1-7.41-.06A13.16,13.16,0,0,1,694.69,39.43Z"/><path class="cls-24" d="M521.54,62.06c0-5.13.15-10.28,0-15.41s2.36-4.44,5.33-2.78,4,4.78,4.46,7.79a62.52,62.52,0,0,1-.5,23.88A11.76,11.76,0,0,1,528.16,81a4.61,4.61,0,0,1-4.45,1.57c-2.22-.44-2.09-2.29-2.11-3.89-.06-5.55,0-11.1,0-16.65Z"/><path class="cls-40" d="M697,62.49c-.1,5.58-.28,11.15-1.94,16.54-.68,2.24-1.66,4.55-4.38,4.55-2.36,0-3.62-2.06-4.13-4.08a66.5,66.5,0,0,1,0-33.65c.51-2,1.73-4,4.21-3.92s3.43,2,4.13,4C696.8,51.34,696.91,56.92,697,62.49Z"/><path class="cls-24" d="M613.92,69.59c1.45-4.69,2.83-9.13,4.42-14.25,3.09,4.52,3.46,9.41,5.81,14.25Z"/><text class="cls-41" transform="translate(410 122.32)">Trabajadores Duoc UC</text></svg>