<?xml version="1.0" encoding="utf-8"?>
<!-- Generator: Adobe Illustrator 24.0.2, SVG Export Plug-In . SVG Version: 6.00 Build 0)  -->
<svg version="1.1" id="Capa_1" xmlns="http://www.w3.org/2000/svg" xmlns:xlink="http://www.w3.org/1999/xlink" x="0px" y="0px"
	 viewBox="0 0 1366 768" style="enable-background:new 0 0 1366 768;" xml:space="preserve">
<style type="text/css">
	.st0{clip-path:url(#SVGID_2_);}
	.st1{fill:#E9B92A;}
	.st2{opacity:0.5;}
	.st3{clip-path:url(#SVGID_4_);}
	.st4{opacity:0.1;fill:#F9A826;enable-background:new    ;}
	.st5{fill:#F9A826;}
	.st6{fill:#43C44C;}
	.st7{fill:#444053;}
	.st8{fill:#FFFFFF;stroke:#000000;stroke-miterlimit:10;}
	.st9{fill:#3F3D56;}
	.st10{opacity:0.8;fill:#FA5959;enable-background:new    ;}
	.st11{opacity:0.8;fill:#FED253;enable-background:new    ;}
	.st12{opacity:0.8;fill:#8CCF4D;enable-background:new    ;}
	.st13{opacity:0.2;}
	.st14{opacity:0.2;fill:#F9A826;enable-background:new    ;}
	.st15{fill:#F9A826;stroke:#000000;stroke-miterlimit:10;}
	.st16{fill:url(#SVGID_5_);}
	.st17{fill:#65617D;}
	.st18{opacity:5.000000e-02;enable-background:new    ;}
	.st19{opacity:0.1;enable-background:new    ;}
	.st20{fill:#EE8E9E;}
	.st21{fill:#E3E8F4;}
	.st22{fill:#565387;}
	.st23{opacity:0.1;}
	.st24{fill:#FFFFFF;}
	.st25{fill:url(#SVGID_6_);}
	.st26{fill:#2D293D;}
	.st27{opacity:5.000000e-02;}
	.st28{fill:#FFCDD3;}
	.st29{fill:#DCE6F2;}
	.st30{fill:#575988;}
	.st31{fill:#656691;}
	.st32{fill:url(#SVGID_7_);}
	.st33{fill:#4C4981;}
	.st34{fill:#AE6E79;}
	.st35{clip-path:url(#SVGID_9_);}
	.st36{opacity:0.5;clip-path:url(#SVGID_9_);}
</style>
<title>bannerv2</title>
<g>
	<g>
		<defs>
			<path id="SVGID_1_" d="M1116,514.9c0-81.2,245.1-55.9,309.4-30.8c110.2,43.1,214.1,65.8,214.1,147.1s-95.9,147.1-214.1,147.1
				C1307.2,778.4,1116,596.2,1116,514.9z"/>
		</defs>
		<clipPath id="SVGID_2_">
			<use xlink:href="#SVGID_1_"  style="overflow:visible;"/>
		</clipPath>
		<g class="st0">
			<rect x="1098.9" y="437" class="st1" width="271.4" height="341.4"/>
		</g>
	</g>
</g>
<g class="st2">
	<g>
		<defs>
			<path id="SVGID_3_" d="M1116,537.5c0-81.2,245.1-55.9,309.4-30.8c110.2,43.1,214.1,65.8,214.1,147.1s-72,138.1-190.2,138.1
				S1116,618.8,1116,537.5z"/>
		</defs>
		<clipPath id="SVGID_4_">
			<use xlink:href="#SVGID_3_"  style="overflow:visible;"/>
		</clipPath>
		<g class="st3">
			<rect x="1098.9" y="459.6" class="st1" width="271.4" height="308.4"/>
		</g>
	</g>
</g>
<path class="st4" d="M1036.1,277c-38.4,0.3-75.3-8.8-110.6-19.1s-70.2-21.7-107.9-26.3c-24.2-3.1-51.8-2.6-70.8,9.1
	c-18.3,11.3-23.8,29.7-26.4,46.8c-2.1,12.8-3,26.3,4.1,38c4.9,8.1,13.4,14.8,19.4,22.4c20.8,26.9,7.9,61.4-12.7,89.2
	c-9.6,13-20.9,25.5-28.3,39.3s-10.5,29.3-3.2,42.7c7.3,13.4,23.7,23,41.3,29.5c35.9,13.3,77.7,15.9,118.5,16.7
	c90.2,1.8,180.6-3.8,270.8-9.4c33.4-2.1,66.9-4.2,99.6-9.8c18.1-3.1,36.9-7.7,49.8-17.5c16.4-12.5,19.9-32.8,8.2-47.3
	c-19.8-24.3-72.2-28.5-86.3-54.8c-7.8-14.5-0.8-31.2,9.2-45.3c21.7-30.2,58.8-57.4,59.7-91c0.6-23.1-18.5-45.5-47.1-55.4
	c-29.9-10.4-71-7.4-92.3,12.4C1109.3,267.6,1070.1,276.7,1036.1,277z"/>
<path class="st5" d="M1187.4,518.4c0,0-6.7-4.6-13.3-1.3c0,0,2.1,4.1,10.5,3.8L1187.4,518.4z"/>
<path class="st5" d="M1188.3,518.6c0,0,2.1,8.2-3.1,13.7c0,0-3.1-3.4,0-11.6L1188.3,518.6z"/>
<path class="st5" d="M1196.6,510.8c0,0-0.5-7-15.4-4.6c0,0-0.1,4.5,5.1,6.7S1194,513.1,1196.6,510.8z"/>
<path class="st5" d="M1197.5,510.7c0,0,6.3,2.2,0.7,16.8c0,0-4.1-1-4.9-6.9C1192.5,514.8,1194.7,512.8,1197.5,510.7z"/>
<path class="st5" d="M1205.9,500.9c0,0,0.8-11.5-14.4-10.3c0,0-1,10.4,11.7,13L1205.9,500.9z"/>
<path class="st6" d="M1215.8,487.9c0,0-2.1-12.9-17.2-9.1c0,0-0.1,11.2,14.8,12.2L1215.8,487.9z"/>
<path class="st6" d="M1223.2,474.6c0,0-3.5-12.6-18.6-8.8c0,0,3.6,11.4,17.5,11.2L1223.2,474.6z"/>
<path class="st6" d="M1230.2,461.6c0,0-3.4-13.1-17.9-9.2c0,0,4.8,12.4,17,11.4L1230.2,461.6z"/>
<path class="st6" d="M1234.7,449.2c0,0-2.7-16-16.2-12.5c0,0,3.9,14.6,15.2,14.8L1234.7,449.2z"/>
<path class="st6" d="M1238.9,434.2c0,0-3.2-16.2-16.8-11.5c0,0,5.3,15.3,15.9,13.7L1238.9,434.2z"/>
<path class="st6" d="M1241.5,420.3c0,0-5-16.1-15.6-15.7c0,0,5.1,17,14.7,19L1241.5,420.3z"/>
<path class="st6" d="M1243.2,406.8c0,0-5.4-19.5-14-17.9c0,0,3.8,14.9,13.7,21L1243.2,406.8z"/>
<path class="st6" d="M1244.1,390.6c0,0-5.1-16.2-13.5-16.8c0,0,3.5,15.9,13.4,21L1244.1,390.6z"/>
<path class="st6" d="M1245.2,375.5c0,0-6.4-16.2-12-16.6c0,0,2.8,16,11.4,19.3L1245.2,375.5z"/>
<path class="st6" d="M1245.9,361.3c0,0-3.9-17.6-9.5-19.1c0,0,0.8,14.5,8.9,20.4L1245.9,361.3z"/>
<path class="st6" d="M1247.9,343c0,0-4.1-14-8.6-16.2c0,0,0.9,16.5,7.6,19.6L1247.9,343z"/>
<path class="st6" d="M1249.7,330.9l0.8-24.7c0,0-8.5,18.7-1.4,29.1L1249.7,330.9z"/>
<path class="st6" d="M1256.2,306.3c0,0,6.2-18,7.6-19.1c0,0-12,11.7-10.9,26.8L1256.2,306.3z"/>
<path class="st6" d="M1206.3,500.8c0,0,10.8-1.5,10.5,14.6c0,0-9.7,1.6-12.9-11.6L1206.3,500.8z"/>
<path class="st6" d="M1216.5,487.5c0,0,12.4,0,11.4,16.4c0,0-10.5,1.9-13.8-13.3L1216.5,487.5z"/>
<path class="st6" d="M1223.3,475.6c0,0,11.3-5.6,18.6,8.8c0,0-10.5,4.6-19.5-6.6L1223.3,475.6z"/>
<path class="st6" d="M1230.5,461.7c0,0,11.6-5.9,18.3,8.2c0,0-12,4.4-19.3-5.9L1230.5,461.7z"/>
<path class="st6" d="M1234.5,449.6c0,0,11.2-11.3,20,0.1c0,0-11.4,9.2-20.5,2.4L1234.5,449.6z"/>
<path class="st6" d="M1238.3,433.9c0,0,11.2-11.5,20,0.5c0,0-12.6,9.4-20.4,1.8L1238.3,433.9z"/>
<path class="st6" d="M1240.3,419.9c0,0,8.6-14.4,18.8-11.2c0,0-8.9,15.2-18.7,14.5L1240.3,419.9z"/>
<path class="st6" d="M1242.9,406.7c0,0,8.7-18,16.9-14.9c0,0-6.3,13.8-17.1,17.9L1242.9,406.7z"/>
<path class="st6" d="M1243.5,389.6c0,0,8.9-14.2,17.3-12.5c0,0-7.3,14.5-18.1,16.6L1243.5,389.6z"/>
<path class="st6" d="M1244.1,375.1c0,0,7-16,12.5-16.1c0,0-3.3,15.9-12.1,18.8L1244.1,375.1z"/>
<path class="st6" d="M1245.6,361c0,0,7.7-16.2,13.5-16.2c0,0-3.9,13.8-13.2,17.6L1245.6,361z"/>
<path class="st6" d="M1246.7,343.9c0,0,5.7-13.3,10.6-14.9c0,0-2.9,16.3-9.8,18.5L1246.7,343.9z"/>
<path class="st6" d="M1250.4,330.4l12.9-20.7c0,0-3.3,20.4-14.8,24.7L1250.4,330.4z"/>
<path class="st6" d="M1259.2,307.9c0,0,15-10.9,15.5-12.7c0,0-7.6,15.3-21.7,17.9L1259.2,307.9z"/>
<path class="st6" d="M1260.1,303c0,0,17.1-17.4,21.5-17.4c0,0-14.1,0.7-21.9,16.5L1260.1,303z"/>
<path class="st7" d="M1246.9,346.6l0.6,0.1c3.3-26.7,7.9-42.4,13.2-44.4l-0.2-0.6C1254.9,303.6,1250.2,319.2,1246.9,346.6z"/>
<path class="st7" d="M1242.2,410.3l0.9,0.1c0.2-2.5,0.3-5,0.4-7.6c0.9-22,2.3-42.3,4.1-57.5l-0.5-0.7c-1.8,15.3-3.6,36.1-4.5,58.2
	C1242.5,405.3,1242.3,407.9,1242.2,410.3z"/>
<path class="st7" d="M1169.8,531.1c0.2-0.1,16.8-7.9,34-26.7c10.1-11.1,18.6-23.7,24.9-37.3c8-17.1,12.8-38.2,14.5-58.7l-1,0.5
	c-3.7,46-23.5,77.4-39.3,94.5c-17.1,18.6-33.5,26.3-33.7,26.3L1169.8,531.1z"/>
<path class="st8" d="M1209.6,220.3v297.4c0,8.8-8.1,16.1-18,16.1H809.7c-9.9,0-18-7.2-18-16.1V220.3c0-8.8,8.1-17.9,18-17.9l381.8,1
	C1201.5,203.4,1209.6,211.4,1209.6,220.3z"/>
<path class="st9" d="M1209.6,220.3V234H791.7v-13.7c0-9.9,7.6-17.9,17-17.9h383.9C1202,202.4,1209.6,210.4,1209.6,220.3z"/>
<ellipse class="st10" cx="811.9" cy="218.2" rx="6" ry="6.4"/>
<ellipse class="st11" cx="829.4" cy="218.2" rx="6" ry="6.4"/>
<ellipse class="st12" cx="846.9" cy="218.2" rx="6" ry="6.4"/>
<g class="st13">
	<path class="st5" d="M1037.8,311.2v32.1c0,0.9-1.7,1.7-3.8,1.7h-80.3c-2.1,0-3.8-0.8-3.8-1.7v-32.1c0-0.9,1.7-1.9,3.8-1.9h80.2
		C1036.1,309.3,1037.8,310.3,1037.8,311.2z"/>
</g>
<rect x="988.6" y="320.7" class="st5" width="41.8" height="1.5"/>
<path class="st14" d="M967.4,317.4c-5.6,0.2-10,4.8-9.9,10.5c0,3.5,1.6,6.7,4.4,8.7v-0.7c0-1.1,0.8-2.2,1.9-2.4
	c0.9,1.9,3.2,2.7,5.1,1.7c0.1,0,0.2-0.1,0.2-0.1c0.7-0.4,1.2-0.9,1.5-1.6c1.1,0.2,2.1,1.2,1.9,2.4v0.7c4.6-3.3,5.8-9.6,2.9-14.5
	C973.9,319.2,970.7,317.4,967.4,317.4L967.4,317.4z M971.3,330.6c-0.1,2.3-1.9,4-4.1,3.9l0,0c-2.1-0.2-3.6-1.8-3.7-3.9
	c-1-2.3-0.1-4.9,2.2-6l0.1-0.1c-0.4-0.6-0.2-1.5,0.4-1.9c0.2-0.1,0.4-0.2,0.6-0.2h0.1c-0.7,0.1-1.2,0.7-1.2,1.4
	c0,0.2,0.1,0.5,0.2,0.7l0,0c0-0.1,0-0.2,0-0.3c0-0.3,0.1-0.6,0.2-0.8c0.1-0.6,0.6-1,1.2-1h0.1c-0.4,0-0.8,0.3-1,0.6
	c0.2-0.1,0.5-0.2,0.7-0.2c0.7,0,1.3,0.6,1.3,1.3l0,0v0.2c1.9,0.6,3.2,2.4,3.2,4.4C971.7,329.4,971.6,330,971.3,330.6L971.3,330.6z"
	/>
<rect x="988.6" y="324.5" class="st14" width="41.8" height="1.5"/>
<rect x="988.6" y="328.3" class="st14" width="41.8" height="1.5"/>
<rect x="988.6" y="332.1" class="st14" width="41.8" height="1.5"/>
<g class="st13">
	<path class="st5" d="M943.7,374.2v32.1c0,0.9-1.7,1.7-3.8,1.7h-80.2c-2.1,0-3.8-0.8-3.8-1.7v-32.1c0-0.9,1.7-1.9,3.8-1.9H940
		C941.9,372.2,943.7,373.1,943.7,374.2z"/>
</g>
<rect x="894.4" y="383.7" class="st5" width="41.8" height="1.5"/>
<path class="st14" d="M873.3,380.2c-5.6,0.2-10,4.8-9.9,10.5c0,3.5,1.6,6.8,4.4,8.7v-0.6c0-1.1,0.8-2.2,1.9-2.4
	c0.9,1.9,3.2,2.7,5.1,1.7c0.1,0,0.2-0.1,0.2-0.1c0.6-0.4,1.2-0.9,1.5-1.6c1.1,0.2,2.1,1.2,1.9,2.4v0.7c4.6-3.3,5.9-9.6,2.9-14.5
	C879.8,382,876.6,380.3,873.3,380.2z M877.2,393.5c-0.1,2.3-1.9,4-4.1,3.9l0,0c-2.1-0.2-3.6-1.8-3.7-3.9c-0.2-0.6-0.4-1.2-0.4-1.8
	c0-1.8,1-3.5,2.7-4.2c-0.1-0.2-0.2-0.5-0.2-0.7c0-0.7,0.6-1.3,1.3-1.4h0.1c-0.7,0.1-1.3,0.7-1.2,1.4c0,0.2,0.1,0.4,0.2,0.6l0,0
	c0-0.1,0-0.2,0-0.3c0.1-0.8,0.7-1.5,1.5-1.7l0,0c-0.4,0-0.8,0.3-1,0.6c0.2-0.1,0.5-0.2,0.7-0.2c0.7,0,1.3,0.6,1.3,1.4l0,0l0,0v0.1
	c2.4,0.7,3.7,3.2,3.1,5.5c-0.1,0.3-0.1,0.5-0.2,0.7H877.2z"/>
<rect x="894.4" y="387.5" class="st14" width="41.8" height="1.5"/>
<rect x="894.4" y="391.3" class="st14" width="41.8" height="1.5"/>
<rect x="894.4" y="395.1" class="st14" width="41.8" height="1.5"/>
<g class="st13">
	<path class="st15" d="M921.9,272.3v32.1c0,0.9-1.7,1.7-3.8,1.7H838c-2.1,0-3.8-0.8-3.8-1.7v-32.1c0-0.9,1.7-1.9,3.8-1.9h80.2
		C920.3,270.3,921.9,271.3,921.9,272.3z"/>
</g>
<rect x="872.7" y="281.8" class="st5" width="41.8" height="1.5"/>
<rect x="872.7" y="285.6" class="st14" width="41.8" height="1.5"/>
<rect x="872.7" y="289.4" class="st14" width="41.8" height="1.5"/>
<rect x="872.7" y="293.2" class="st14" width="41.8" height="1.5"/>
<path class="st14" d="M851.5,278.4c-5.6,0.2-10,4.9-9.8,10.6c0,3.5,1.6,6.7,4.4,8.7v-1.7c0-1.1,0.8-2.2,1.9-2.4
	c0.9,1.9,3.2,2.7,5.1,1.7c0.1,0,0.2-0.1,0.2-0.1c0.7-0.4,1.2-0.9,1.5-1.6c1.1,0.2,2.1,1.2,1.9,2.4v1.8c4.6-3.3,5.8-9.6,2.9-14.5
	C858.2,280.2,855,278.4,851.5,278.4z M855.9,291.1l-0.1,0.2c-0.1,0.1-0.2,0.1-0.3,0.1h-0.2c-0.5,2.1-2.7,3.4-4.8,2.8h-0.1
	c-1.7-0.6-2.9-2.2-2.8-4c0-0.7,0.2-1.4,0.5-2.1l0,0c-0.4-0.6-0.4-1.4,0.1-1.9c0.2-0.1,0.5-0.2,0.8-0.3c0.8-0.3,1.6-0.9,2.1-1.6
	c0,0.2,0,0.4,0,0.6c0.3-0.3,0.8-0.4,1.2-0.1l0,0l0,0c0.1,0.2,0.2,0.3,0.3,0.4s0.3,0.1,0.4,0.1l1,0.1c0.4,0,0.8,0.2,1.1,0.4
	c0.2,0.2,0.3,0.4,0.4,0.7c0.3,0.7,0.5,1.4,0.6,2.2C856.4,289.6,856.3,290.4,855.9,291.1L855.9,291.1z"/>
<g class="st13">
	<path class="st5" d="M1059.7,424.3v32.1c0,0.9-1.7,1.7-3.8,1.7h-80.3c-2.1,0-3.8-0.8-3.8-1.7v-32.1c0-0.9,1.7-1.9,3.8-1.9h80.3
		C1058,422.2,1059.7,423.3,1059.7,424.3z"/>
</g>
<rect x="1010.4" y="433.7" class="st5" width="41.8" height="1.5"/>
<rect x="1010.4" y="437.5" class="st14" width="41.8" height="1.5"/>
<rect x="1010.4" y="441.3" class="st14" width="41.8" height="1.5"/>
<rect x="1010.4" y="445.1" class="st14" width="41.8" height="1.5"/>
<path class="st14" d="M989.3,430.3c-5.6,0.2-10,4.8-9.9,10.5c0,3.5,1.6,6.8,4.4,8.7v-1.7c0-1.1,0.8-2.2,1.9-2.4
	c0.9,1.9,3.2,2.7,5.1,1.7c0.1,0,0.2-0.1,0.2-0.1c0.7-0.4,1.2-0.9,1.5-1.6c1.1,0.2,2.1,1.2,1.9,2.4v1.8c4.6-3.3,5.8-9.6,2.9-14.5
	C995.9,432.2,992.7,430.3,989.3,430.3L989.3,430.3z M993.6,443c0,0.1-0.1,0.1-0.1,0.2c-0.1,0.1-0.2,0.1-0.3,0.1H993
	c-0.5,2.1-2.7,3.4-4.7,2.9c-0.1,0-0.1,0-0.2,0c-2.2-0.7-3.3-3-2.7-5.1c0.1-0.3,0.2-0.6,0.4-0.9l0,0c-0.4-0.6-0.4-1.4,0.1-1.9
	c0.2-0.1,0.5-0.3,0.8-0.3c0.8-0.3,1.6-0.9,2.1-1.6c0,0.2,0,0.4,0,0.6c0.3-0.3,0.8-0.4,1.2-0.1l0,0l0,0c0.1,0.1,0.2,0.3,0.3,0.4
	s0.3,0.1,0.4,0.1l1,0.1c0.4,0,0.8,0.2,1.1,0.4c0.2,0.2,0.3,0.4,0.4,0.7c0.3,0.7,0.5,1.4,0.6,2.2C994.2,441.6,994.1,442.4,993.6,443
	L993.6,443L993.6,443z"/>
<linearGradient id="SVGID_5_" gradientUnits="userSpaceOnUse" x1="953.3582" y1="681.4644" x2="953.3582" y2="559.7297" gradientTransform="matrix(1 0 0 1 -36.6 -131.2)">
	<stop  offset="0" style="stop-color:#808080;stop-opacity:0.25"/>
	<stop  offset="0.54" style="stop-color:#808080;stop-opacity:0.12"/>
	<stop  offset="1" style="stop-color:#808080;stop-opacity:0.1"/>
</linearGradient>
<path class="st16" d="M965.1,529.5l-11.9-18.2c0,0-0.2-4.5-1-5.5c-0.8-1-0.1-3.4-0.1-3.4s0.8-1.2,0.1-1.4c-0.7-0.2-0.1-3-0.1-3
	l-0.1-4.6c0,0,0.7-4.4,0.1-5.4c-0.3-0.6-0.3-1.3,0-1.8c0,0,0.7-2.6,0-3.2c-0.7-0.6-0.5-4.6-0.3-7.7c0.2-3.1-1.1-4.9-1.1-5.3
	s-4.4-5-4.4-5.4s-2.8-2.1-4.4-2.6c-1.6-0.5-2.5-0.8-2.5-1c0-0.2-2.6-1.1-2.6-1.1s-2.4-0.2-3.3-1.4c-0.9-1.2-3.6-1.5-3.7-1.6v-0.2
	v-0.2c0.2-0.4,0.4-0.7,0.6-1.1c0-0.1,0.1-0.2,0.1-0.3c1,0,1.9-0.3,2.8-0.9c0.8-0.7,1.3-1.7,1.3-2.9c0-1.1-0.2-2.2-0.6-3.1
	c-0.5-1-1.2-2.2-0.9-3.3c0.1-0.5,0.4-0.9,0.5-1.4c0.2-0.9,0.1-1.9-0.4-2.8c-0.4-0.8-1-1.6-1.4-2.5c-0.6-1-1-2.3-1.1-3.5
	c0-0.6-0.2-1.2-0.4-1.8c-0.3-0.4-0.6-0.7-1-1c-1.7-1.3-3.8-1.9-5.9-1.9c-1.5,0.2-3,0.3-4.5,0.3c-0.9-0.2-1.7-0.4-2.7-0.7
	c-1.8-0.6-4-0.8-5.6,0.3c-1.6,1.1-2.3,3.4-3.4,5.1c-1,1.5-2.4,2.9-3.2,4.4v-0.3c-0.2,0.4-0.3,0.8-0.4,1.2c-0.2,1.3-0.1,2.7,0.2,3.9
	c0.1,0.6,0.4,1.2,0.9,1.7c0.6,0.3,1.2,0.4,1.9,0.4c0,0.1,0,0.2-0.1,0.3c-1.3,6.7,2.4,13.3,8.8,15.7v0.4c0,0.3,0,0.7-0.1,1l0,0
	c0,0-5.6-1.2-7.1-0.4c-1.4,0.8-4.4,1.4-4.9,1.9c-0.5,0.5-1.5,0.1-2.6,2.9s-1.1,5.5-2.4,6.9c-1.2,1.3-1.9,2.2-2.1,3.1
	c-0.1,0.9,0.2,1.1-0.3,1.4c-0.5,0.3-1.2,1.5-1,1.9c0.2,0.6-0.1,1.3-0.6,1.7c-0.5,0.4-0.8,1.1-0.8,1.7c0,0-0.3,1.3-1.1,1.5
	c-0.8,0.2-1.2,2.3-1.2,2.3l-2.6,3.1l-5-5.8c-0.7-0.8-2.1-0.9-2.9-0.2c0,0-0.1,0-0.1,0.1l-2.5,2.4c-0.9,0.2-1.8,0.8-2.5,1.5
	c-0.5,0.6-0.9,1.3-1.2,2.1l-1.3,1.2c-0.8,1.1-1,2.7-0.3,4l3.2,3.7l0,0c-1.1,0.1-2.3,0.6-3.1,1.3c-4.8,4.5-4.8,8.6-4.1,10.5
	c0.7,1.8,6.8,9.1,6.8,9.1c2.4,3.1,5.2,5.5,8.6,7.4l0,0l0,0c-0.1,0.1-0.2,0.2-0.3,0.4l-0.1,0.1l-0.1,0.1l-0.1,0.1l-0.1,0.1l-0.1,0.2
	l-0.1,0.1l-0.1,0.2c0,0,0,0,0,0.1c0,0-0.1,0.2-0.1,0.3v0.1c0,0.1,0,0.2-0.1,0.2v0.2c0,0.1,0,0.1-0.1,0.2v0.2c0,0.1,0,0.2-0.1,0.2
	c0,0,0,0.1,0,0.2c0,0,0,0.3-0.1,0.4c0,0.1,0,0.1,0,0.2c0,0.1,0,0.2,0,0.3s0,0.1,0,0.2c0,0.1,0,0.2,0,0.3s0,0.1,0,0.2v1.1
	c-0.1,6.9,0.2,7.9,0.2,7.9c0.5,1.2,1.6,2.2,3,2.4c0.3,0,0.6,0,0.9,0c2.9-0.5,9.7-1.7,12.1-1.3c2.1,0.1,4,0,5.9-0.5l0.5-0.1l0.3,1.1
	l1.1-0.3l0.9,0.6l0.6,0.3c1.1,3.9,5.5,2.6,5.5,2.6l1,0.6l10.8,0.3c1.2,0.8,2.5,1.4,3.8,1.9c0.2,0.1,0.3,0.1,0.5,0.1
	c1,0.1,1.9,0.1,3,0.1c0.8,0,1.4-0.1,1.4-0.1s-0.1-3.1-0.2-6.6c3.4-0.1,6.7-0.4,9.9-0.8c5.7-1,8.1-6.6,9-9.5c0.3,1.2,0.4,2.5,0.5,3.7
	c0.2,1,0.5,2.2,0.9,3.2c0.3,0.8,0.7,1.6,1.2,2.4c4.2-1.5,1.6-3.8,0.8-4.8c-0.8-1,0.6-1.8,0.6-1.8s1.1-0.8,1-1.5
	c-0.1-0.7-0.2-1.5,3.6-1.5C965.5,532.7,965.1,529.5,965.1,529.5z M906.4,492c0.2,1.6,0.5,3.3,1,4.9c0.1,0.6,0.2,1.3,0.1,1.9
	c-2.3-0.2-4.6-0.3-4.6-0.3c0.1,0.1,0.1,0.2,0.1,0.3l-0.3-0.1l-0.5-0.1L906.4,492L906.4,492z M898.2,505.8l3.9,0.6h0.3
	c-0.1,0.6-0.2,1.3-0.2,1.9c0,0.1,0.1,0.1,0.2,0.2c0,0.3-0.1,0.6-0.1,0.9c0.1,0.3,1.8,1,4,1.6c0,0.1-0.1,0.2-0.1,0.3l0,0
	c-1.8-1-4.7-1.5-5.1-2.3c-0.4-0.7-10.1-4.4-10.1-4.4s-0.3-0.2-1-0.5l2.6,0.5l0.7-0.1C894.8,505.3,896.4,505.6,898.2,505.8
	L898.2,505.8z"/>
<path class="st17" d="M952.5,532c0,0-1.5,9.8-9.4,11.3c-7.9,1.4-34,1.1-34,1.1s-15-2.3-20.4-15.6c-5.4-13.3-8.9-18.7-4.3-18.9
	c4.6-0.2,29.6,8.9,31.1,9C916.8,519.1,953.8,498.7,952.5,532z"/>
<path class="st18" d="M952.5,532c0,0-1.5,9.8-9.4,11.3c-7.9,1.4-34,1.1-34,1.1s-15-2.3-20.4-15.6c-5.4-13.3-8.9-18.7-4.3-18.9
	c4.6-0.2,29.6,8.9,31.1,9C916.8,519.1,953.8,498.7,952.5,532z"/>
<path class="st9" d="M882.3,543c0.5,1.6,2.2,2.7,3.9,2.3c2.9-0.5,9.6-1.7,12-1.2c2.1,0.1,4,0,5.9-0.5c1.2-0.2,2.2-0.5,2.2-0.5
	s-2.3-7.8-2.5-8s-9.9-6.4-9.9-6.4l-7.7-0.6l0,0c-1,0.2-1.9,0.7-2.6,1.6c-1.1,1.6-1.6,3.6-1.5,5.5C882,542,882.3,543,882.3,543z"/>
<path class="st18" d="M882.3,543c0.4,1.2,1.5,2.2,2.9,2.4c-0.7-1-1.4-2.1-2.1-3.2v-5.6c-0.3-3.1,0.8-6.3,3-8.4l0,0
	c0,0-4,0.3-4.1,7.1S882.3,543,882.3,543z"/>
<path class="st19" d="M915.5,530.6l7.2-5.8l11.2-11.7l-3.1-0.1c-0.5,0.3-1.7,1.2-1.7,2.5c0,1.4-3.1,0.1-4.6,0.9
	c-1.5,0.8-9.1,11.1-10.5,11c-1.3-0.1-2.4-0.7-2.9,0.3v0.1L915.5,530.6z"/>
<path class="st19" d="M883.6,529.7l0.8,0.4c5.4,2.5,12.1,7.6,12.6,8.5c0.3,0.6,4.2,3.1,7.2,4.9c1.2-0.2,2.2-0.5,2.2-0.5
	s-2.3-7.8-2.5-8s-9.9-6.4-9.9-6.4l-7.7-0.6l0,0C885.1,528.2,884.2,528.8,883.6,529.7z"/>
<path class="st17" d="M868.5,513c0.7,1.8,6.8,9,6.8,9c2.5,3.3,5.6,5.8,9.2,7.7c5.4,2.5,12.1,7.6,12.6,8.5c0.3,0.6,4.6,3.3,7.7,5.2
	l0.7,0.4l1.5,0.9l0.8,0.5c0,0,1.8-1.5,3.7-3.2c1.8-1.6,3.6-3.1,3.7-3.2c0.3-0.7,0.5-1.5,0.6-2.3c-0.1-0.1-0.5-0.8-1.1-1.8
	c-0.7-1-1.6-1.8-2.8-2.5c-1.6-0.9-3-2.3-3.7-4l-0.6-0.4c-0.7-0.5-1.6-0.9-2.5-1.1c-1.2-0.2-3.5-2.8-3.5-2.8
	c-0.9-0.6-1.6-1.4-2.2-2.4c-0.6-1.2-9.1-7.5-9.9-8l20.7,14l5,3.4l7.1-5.8l11.2-11.7l-3.7-0.2c-5.4-0.2-15.1-0.6-16.3-0.3
	c-1,0.2-2.1,0.3-3.1,0.2c-1.5,0.1-3.2-0.2-4.6-0.9c-1.8-1-4.7-1.5-5-2.3c-0.3-0.7-10-4.4-10-4.4s-13.3-7.5-18-3.1
	C867.9,507,867.8,511.1,868.5,513z"/>
<path class="st20" d="M911.5,470.2l1.7,6l2.3,13.5l8.1,0.6l2.4-4.1l2.4-4.1c0,0,1.4-5.4,2.6-10.8c0.9-4.7,1.5-9.2,0.5-9.7
	s-1.4-2.1-1.8-3.7c0-0.2-0.1-0.4-0.1-0.6c-0.3-1.4-0.4-2.9-0.5-4.3c0,0-17-0.9-14.7,6.5c0.4,1.2,0.6,2.6,0.6,3.9c0,0.3,0,0.7,0,1
	C914.5,466.6,913.2,468.8,911.5,470.2z"/>
<path class="st21" d="M907.9,469.2l0.6,10.3l1.3,8.7l1.5,4l1.3,22c0,0,13.3,1.6,16.5,0c0.2-0.1,0.4-0.3,0.6-0.5
	c3.9-6.3,2.7-24.3,2.7-24.3l1.5-11.7l-1-6l-2.4-0.3l-1.8-0.2c0,0-0.4,0.5-1,1.4c-1.6,2.3-4.6,6.8-4.4,8.6c0.3,2.6-0.3,5.1-1.2,5.6
	s-1.7,1.1-1.8,0.4c-0.2-0.6-0.3-1.2-0.2-1.8c-0.1-1.3-0.3-2.7-0.7-4c0,0-1.5-3.6-1.3-5c0.2-1.4-0.2-3.3-0.6-3.7
	c-0.4-0.4-1-0.8-0.5-2.7s-2.2-5.5-2.2-5.5L907.9,469.2z"/>
<path class="st19" d="M925.5,494.7l0.5,17.4l3.2,1.8c0.2-0.1,0.4-0.3,0.6-0.5c3.9-6.3,2.7-24.3,2.7-24.3l1.5-11.7l-1-6l-2.4-0.3
	c0.9-4.7,1.5-9.2,0.5-9.7s-1.5-2.1-1.8-3.7l0,0l-1.7,12.3c0,0,0.1,1.1,0.2,2.3c0.1,0.7,0,1.4-0.1,2.2c-0.2,0.9-0.2,1.9-0.1,2.9
	c-1,1.8-1.5,5.3-1.7,8.6C925.3,490.5,925.5,494.7,925.5,494.7z"/>
<path class="st9" d="M929.2,457.5c0,0,2.8,0.4,3.7,1.5c0.9,1.1,3.2,1.4,3.2,1.4s2.7,0.9,2.6,1.1c-0.1,0.2,0.8,0.6,2.5,1
	c1.6,0.4,4.4,2.2,4.4,2.6c0,0.4,4.3,4.9,4.3,5.4s1.3,2.3,1.1,5.3s-0.3,7,0.3,7.7c0.6,0.7,0,3.2,0,3.2c-0.4,0.5-0.4,1.2-0.1,1.8
	c0.5,1-0.1,5.4-0.1,5.4l0.1,4.5c0,0-0.6,2.9,0.1,3c0.7,0.1-0.1,1.4-0.1,1.4s-0.6,2.4,0.2,3.4c0.8,1,1,5.5,1,5.5l11.8,18.1
	c0,0,0.2,3.3-3.6,3.3s-3.7,0.7-3.6,1.5s-1,1.5-1,1.5s-1.5,0.8-0.6,1.8s3.4,3.3-0.8,4.8c-0.5-0.7-0.9-1.5-1.2-2.4
	c-0.4-1-0.6-2.1-0.9-3.2c0,0-0.4-4.4-1.1-5c-0.7-0.6-0.7-3.4-0.7-3.4s1-2.3-0.4-3.2c-1.4-0.9-24-14-24-14l-0.5-17.4
	c0,0-0.4-12.9,1.9-17.2c-0.1-0.9-0.1-1.9,0.1-2.9c0.4-1-0.1-4.4-0.1-4.4L929.2,457.5z"/>
<path class="st19" d="M914.8,464.5c0,0-5.5-1.2-7.1-0.4c-1.5,0.8-4.4,1.4-4.8,1.9c-0.4,0.5-1.5,0.1-2.6,2.9s-1.1,5.5-2.4,6.8
	c-1.2,1.2-1.9,2.2-1.9,3.1s0.2,1.1-0.3,1.4c-0.5,0.3-1.2,1.5-1,1.9c0.2,0.4,11.5,10.8,11.5,10.8c0.2,1.6,0.5,3.3,1,4.9
	c0.5,1-0.5,14.7-1.6,15.6s7.5,0.8,7.5,0.8s0.4-8.9,0.7-9.4s-0.2-10-0.2-10s0-8.2,0.7-10.4c0.7-2.2,0.6-9.3,0.6-9.3s0.6-4.3,1.4-5.3
	C917.1,468.7,914.8,464.5,914.8,464.5z"/>
<path class="st9" d="M914.7,464.4c0,0-5.5-1.2-7.1-0.4c-1.5,0.8-4.4,1.4-4.8,1.9s-1.5,0.1-2.6,2.9s-1.1,5.5-2.4,6.8
	c-1.2,1.2-1.9,2.2-1.9,3.1s0.2,1.1-0.3,1.4c-0.5,0.3-1.2,1.5-1,1.9c0.2,0.4,11.5,10.8,11.5,10.8c0.2,1.6,0.5,3.3,1,4.9
	c0.5,1-0.5,14.7-1.6,15.6s7.5,0.8,7.5,0.8s0.4-8.9,0.7-9.4c0.3-0.5-0.2-10-0.2-10s0-8.2,0.7-10.4c0.7-2.2,0.6-9.3,0.6-9.3
	s0.6-4.3,1.4-5.3C917,468.6,914.7,464.4,914.7,464.4z"/>
<path class="st19" d="M914.1,459.3c0.4,1.2,0.6,2.6,0.6,3.9c5.6,1.7,11.8-0.8,14.6-6c-0.3-1.4-0.4-2.9-0.5-4.3
	C928.6,452.9,911.7,452,914.1,459.3z"/>
<path class="st20" d="M905.6,450.2c0,7.4,5.6,13.3,12.6,13.3c7,0,12.6-5.9,12.6-13.3c0-7.4-5.6-13.3-12.6-13.3
	c-6,0.1-11.3,4.6-12.3,10.6C905.8,448.4,905.6,449.3,905.6,450.2z"/>
<path class="st9" d="M897.5,481.1l-3.1,1c0.1,0.6-0.1,1.3-0.6,1.7c-0.5,0.4-0.8,1-0.8,1.7c0,0-0.3,1.2-1.1,1.5
	c-0.8,0.3-1.2,2.3-1.2,2.3l-2.6,3.1c0,0-0.9,0.8-0.8,1.2c0.1,0.4-1,0.5-1,0.5l0.6,10.4l5.2,1l3.3-0.3l2.7-1l2.4-1.4l1-2.9l4.6-7.5
	L897.5,481.1z"/>
<path class="st20" d="M887.2,495c0,0-6.8-10.3-11.8-4.7s2.1,14.6,3.7,14.2c1.6-0.3,9.5-0.7,9.5-0.7L887.2,495z"/>
<path class="st19" d="M906,447.4c0.3,0,0.7,0.2,0.9,0.4c0.4,0.5,0.4,1.3,1,1.6c0.2,0.1,0.4,0.1,0.6,0.1c1.4-0.2,2.4-1.9,3.7-2.5
	c0.8-0.2,1.7-0.1,2.5,0.2c0.3,0.1,0.6,0.3,0.8,0.6c0.5,0.6,0.1,1.5,0.3,2.4c0.3,1.1,1.5,1.5,2.6,1.6s2.3,0.2,3,1
	c0.5,0.6,0.6,1.4,0.5,2.3c-0.1,0.3-0.1,0.5,0,0.8c0.3,0.9,1.7,0.7,2.1,0.1c0.3-0.5,0.2-0.9,0.8-1c0.5,0,0.9,0,1.3,0.2
	c1.1,0.4,2.4,0.6,3.5,0.6c3-6.6,0.3-14.4-6-17.7c-6.2-3-13.5-0.4-16.5,5.7c-0.1,0.2-0.2,0.5-0.3,0.7
	C906.6,445.4,906.3,446.4,906,447.4L906,447.4z"/>
<path class="st9" d="M921.9,455.6c-0.1-0.3-0.1-0.5,0-0.8c0.1-0.8-0.1-1.6-0.5-2.3c-0.7-0.8-1.8-0.9-3-1c-1.1-0.1-2.3-0.6-2.6-1.6
	c-0.2-0.8,0.1-1.7-0.3-2.4c-0.2-0.3-0.5-0.4-0.8-0.6c-0.8-0.4-1.6-0.4-2.5-0.2c-1.4,0.5-2.3,2.3-3.7,2.5c-0.2,0-0.4,0-0.7-0.1
	c-0.5-0.3-0.6-1.1-1-1.6c-0.7-0.7-1.9-0.3-2.8-0.8c-0.5-0.4-0.8-1-0.9-1.7c-0.4-1.2-0.4-2.6-0.2-3.9c0.5-2.2,2.3-3.7,3.5-5.5
	c1.2-1.8,1.7-3.9,3.4-5c1.6-1.1,3.8-0.9,5.6-0.3c0.8,0.3,1.7,0.6,2.7,0.7c1.5,0,3-0.1,4.5-0.3c2.2-0.1,4.2,0.6,5.9,1.9
	c0.4,0.3,0.7,0.6,0.9,1c0.2,0.6,0.4,1.2,0.4,1.8c0.2,1.2,0.6,2.4,1.1,3.4c0.5,0.8,1,1.5,1.4,2.5c0.5,0.8,0.6,1.8,0.4,2.8
	c-0.1,0.5-0.4,0.9-0.5,1.4c-0.2,1.1,0.5,2.3,0.9,3.3c0.5,0.9,0.7,2.1,0.6,3.1c0,1-0.5,2.1-1.3,2.8c-0.8,0.6-1.7,0.9-2.8,0.9
	c-1.2,0-2.5-0.2-3.6-0.6c-0.4-0.2-0.9-0.3-1.3-0.2c-0.6,0.1-0.5,0.6-0.8,1C923.7,456.5,922.3,456.6,921.9,455.6z"/>
<path class="st19" d="M915.2,531l7.2-5.8l11.2-11.7l-3.7-0.2c-0.4,0.4-0.7,1-0.8,1.5c0,1.4-3.1,0.1-4.6,0.9
	c-1.5,0.8-9.1,11.1-10.5,11c-1.3-0.1-2.4-0.7-2.9,0.3v0.1c-0.2,0.3-0.5,0.4-0.8,0.5L915.2,531z"/>
<path class="st17" d="M900.8,530.6l3.6,12.1l0.5,1.8l1.7-0.5l3.8-1.1l16.7-4.8c2.2-0.1,4.2-0.7,6-1.7c3.2-1.8,6.8-2.7,10.4-2.4
	c2.3,0.2,4.6-0.8,6.7-4.8c0,0,4.6-14.5-7.1-18.6s-12.3,2.2-12.3,2.2l-0.2,0.1c-0.5,0.3-1.7,1.2-1.7,2.5c0,1.4-3.1,0.1-4.6,0.9
	c-1.5,0.8-9.1,11.1-10.5,11.1s-2.4-0.7-2.9,0.3v0.1c-0.4,0.6-1.6,0.7-2.5,0.7h-0.8h-0.1l-0.8,0.3L900.8,530.6z"/>
<path class="st19" d="M901.8,507.1l1.7,0.3l0.7-7.5c0,0-0.8-0.1-1.7-0.4C902.7,500.5,902.1,504.6,901.8,507.1z"/>
<path class="st19" d="M946.9,472.1c0,0,5.1-1.5,3.9,13.8c-0.8,9.3-4.6,18.1-10.8,25.1c0,0-11,5-15.9,4.3c-2.8-0.5-5.6-0.8-8.5-1
	c-1.5-0.8-3.3-1.3-4.9-1.4c-2.8-0.1-8.5-1.9-8.7-2.5c-0.2-0.5,1.4-9.1,0.8-9.7c0,0,7.7,0.3,8.5,0.9s1.8,0.2,2.7,0
	c0.8-0.2,3.4-2.5,8.4-0.5c0.8,0.1,1.6,0,2.4-0.3c0.5-0.3,1.1-0.3,1.7-0.1c0.4-0.2,0.8-0.4,1.2-0.6c0.2-0.2,1.5,0,1.5,0
	c0.3,0.1,0.6,0,0.7-0.2l0,0v-0.1c0.2-0.5,0.4-0.9,0.8-1.2c0,0,1.5-8.8,4.3-12.2c0.5-0.4,0.7-1,0.6-1.6
	C935.5,483.4,940.2,470.1,946.9,472.1z"/>
<path class="st19" d="M906.9,528.6l7.3,9.3v-0.1c0-0.2,0.8-2.2,0.6-2.3c-0.2-0.1-1.4-3.1-4-4.3c-1.3-0.7-2.4-1.7-3.1-3L906.9,528.6z
	"/>
<path class="st19" d="M907,544.8l0.8,0.5l3.7-3.2c1.8-1.5,3.6-3.1,3.7-3.2c0.1-0.1,0.8-2.2,0.6-2.3s-0.5-0.8-1.1-1.8
	c-4.9-1.4-1.8,2.2-1.3,2.4c0,0-6-1.4-6.4,5.4C906.8,543.3,906.9,544,907,544.8z"/>
<path class="st9" d="M913,547.7l1,0.6l10.7,0.3c1.2,0.7,2.5,1.4,3.8,1.9c0.2,0.1,0.3,0.1,0.5,0.1c1,0.1,1.9,0.1,3,0.1
	c0.8,0,1.4-0.1,1.4-0.1s-0.5-14.1-0.9-15.7c-0.2-0.7-1.1-0.6-1.9-0.2c-0.6,0.3-1.3,0.6-1.9,1c0,0-4.5,0.5-5.2,0.8
	c-0.7,0.3-2.8-0.2-4,0c-1.2,0.2-3.5-1.5-3.5-1.5c-6.2-2.2-2.8,1.8-2.3,2.1c0,0-6-1.4-6.4,5.4S913,547.7,913,547.7z"/>
<path class="st22" d="M928.4,542.3c0.1,3,2.3,6.6,3.6,8.5c0.8,0,1.4-0.1,1.4-0.1s-0.5-14.1-0.9-15.7c-0.2-0.7-1.1-0.6-1.9-0.2
	C929.5,536.9,928.4,539.9,928.4,542.3z"/>
<path class="st19" d="M928.4,542.3c0.1,3,2.3,6.6,3.6,8.5c0.8,0,1.4-0.1,1.4-0.1s-0.5-14.1-0.9-15.7c-0.2-0.7-1.1-0.6-1.9-0.2
	C929.5,536.9,928.4,539.9,928.4,542.3z"/>
<path class="st18" d="M926.7,542.6c0.7,2.9,0.7,6,1.8,8c0.2,0.1,0.3,0.1,0.5,0.1c1,0.1,1.9,0.1,3,0.1c0.8,0,1.4-0.1,1.4-0.1
	s-0.5-14.1-0.9-15.7c-0.2-0.7-1.1-0.6-1.9-0.2c-0.6,0.3-1.3,0.6-1.9,1C928.7,535.8,925.6,539,926.7,542.6z"/>
<path class="st19" d="M889.9,513.9c0,0,5.3,1.8,9.7,8.3L889.9,513.9z"/>
<g class="st23">
	<path d="M932.9,443.9v0.1c0,0.2-0.1,0.3-0.2,0.5C932.7,444.3,932.8,444.1,932.9,443.9z"/>
	<path d="M903,441.1c0.1-0.4,0.2-0.8,0.4-1.1c0,0.1,0,0.2-0.1,0.3c-0.2,1.3-0.1,2.6,0.2,3.9c0.1,0.7,0.4,1.3,0.9,1.7
		c0.8,0.6,2.1,0.1,2.8,0.8c0.4,0.5,0.4,1.3,1,1.6c0.2,0.1,0.4,0.1,0.7,0.1c1.4-0.2,2.3-1.9,3.7-2.5c0.8-0.2,1.7-0.1,2.5,0.2
		c0.3,0.1,0.6,0.3,0.8,0.6c0.5,0.6,0.1,1.6,0.3,2.4c0.3,1,1.5,1.5,2.6,1.6s2.3,0.2,3,1c0.5,0.6,0.7,1.4,0.5,2.3
		c-0.1,0.3-0.1,0.5,0,0.8c0.3,0.9,1.7,0.7,2.1,0.1c0.3-0.5,0.2-0.9,0.8-1c0.5,0,0.9,0.1,1.3,0.2c1.1,0.4,2.4,0.6,3.6,0.6
		c1,0,1.9-0.3,2.8-0.9c0.4-0.3,0.6-0.7,0.8-1.1c-0.2,0.8-0.6,1.4-1.2,1.9c-0.8,0.6-1.7,0.9-2.8,0.9c-1.2,0-2.5-0.2-3.6-0.6
		c-0.4-0.2-0.9-0.3-1.3-0.2c-0.6,0.1-0.5,0.6-0.8,1c-0.4,0.7-1.8,0.8-2.1,0c-0.1-0.3-0.1-0.5,0-0.8c0.1-0.8-0.1-1.6-0.5-2.3
		c-0.8-0.7-1.8-1-3-1c-1-0.1-2.3-0.6-2.6-1.6c-0.2-0.8,0.1-1.7-0.3-2.4c-0.2-0.3-0.5-0.4-0.8-0.6c-0.8-0.4-1.6-0.4-2.5-0.2
		c-1.4,0.5-2.3,2.3-3.7,2.5c-0.2,0-0.4,0-0.6-0.1c-0.5-0.3-0.6-1.1-1-1.6c-0.6-0.7-1.9-0.3-2.8-0.8c-0.5-0.4-0.8-1-0.9-1.7
		C902.8,443.7,902.8,442.3,903,441.1z"/>
</g>
<path class="st19" d="M933.7,487.7c-1,1.4-2.2,2.8-3.1,4.3c-1,1.5-1.4,3.3-1.3,5.1c0.8-1.1,1.4-2.4,1.9-3.7c1.1-2.1,2.4-4,3.7-5.9
	c0.2-0.4,1.7-2.6,1-2.7C935.3,484.8,934.1,487.2,933.7,487.7z"/>
<path class="st24" d="M905.8,464.2l11.1,22c0.3,0.6-0.5,1.8-2.1,2.7l-55.1,30.9c-1.4,0.8-2.9,0.9-3.2,0.3l-11.1-22
	c-0.3-0.6,0.5-1.9,1.9-2.8l55.3-30.9C904,463.5,905.4,463.5,905.8,464.2z"/>
<g class="st13">
	<path class="st5" d="M905.8,464.2l11.1,22c0.3,0.6-0.5,1.8-2.1,2.7l-55.1,30.9c-1.4,0.8-2.9,0.9-3.2,0.3l-11.1-22
		c-0.3-0.6,0.5-1.9,1.9-2.8l55.3-30.9C904,463.5,905.4,463.5,905.8,464.2z"/>
</g>
<polygon class="st5" points="875.2,489.8 903.9,473.7 904.4,474.7 875.7,490.8 "/>
<polygon class="st14" points="876.4,492.3 905.2,476.3 905.8,477.4 877,493.5 "/>
<polygon class="st14" points="877.8,495 906.6,478.9 907.1,479.9 878.3,496 "/>
<polygon class="st14" points="879.1,497.6 907.8,481.5 908.4,482.6 879.6,498.7 "/>
<path class="st14" d="M859.4,495.5c-3.8,2.3-5.2,7.1-3.2,11c1.1,2.4,3.5,4,6,4.3l-0.6-1.2c-0.4-0.8-0.2-1.8,0.5-2.4
	c1.3,0.9,3.2,0.6,4.1-0.7c0-0.1,0.1-0.1,0.1-0.2c0.3-0.5,0.5-1.1,0.5-1.7c0.8-0.3,1.7,0,2.2,0.8l0.6,1.2c2.1-3.9,0.8-8.7-3-11.1
	C864.5,494.2,861.8,494.2,859.4,495.5L859.4,495.5z M866.8,502.6c0,0.1,0,0.1,0,0.2s-0.1,0.1-0.2,0.2l-0.1,0.1
	c0.4,1.7-0.7,3.4-2.4,3.8c-1.6,0.3-3.3-0.7-3.6-2.5v-0.1c0-0.2-0.1-0.5-0.1-0.7l0,0c-0.5-0.2-0.7-0.8-0.5-1.3
	c0.1-0.2,0.3-0.4,0.4-0.5c0.5-0.5,0.8-1.2,0.8-1.9c0.1,0.1,0.1,0.3,0.2,0.4c0.1-0.4,0.4-0.6,0.8-0.5l0,0c0.1,0.1,0.2,0.1,0.4,0.1
	c0.1,0,0.2,0,0.3-0.1l0.7-0.3c0.4-0.3,1.1-0.2,1.4,0.2c0.4,0.4,0.8,0.8,1.2,1.2C866.7,501.5,866.9,502,866.8,502.6L866.8,502.6z"/>
<path class="st20" d="M882.9,497.2c-0.1,7.7,15,9.3,15,9.3l3.9,0.6l1.7,0.3l0.7-7.5c0,0-0.8-0.1-1.7-0.4c-1.4-0.4-3.4-1-3.8-1.8
	C898,496.2,882.9,489.5,882.9,497.2z"/>
<path class="st9" d="M946.8,470.8c0,0,5.1-1.5,3.9,13.8c-0.8,9.3-4.6,18.1-10.8,25.1c0,0-11,5-15.9,4.3c-2.8-0.5-5.6-0.8-8.5-1
	c-1.5-0.8-3.2-1.3-4.9-1.4c-2.8-0.1-8.5-1.9-8.7-2.5s1.4-9.2,0.8-9.8c0,0,7.7,0.3,8.5,0.9c0.8,0.6,1.8,0.2,2.8,0
	c0.9-0.2,3.4-2.5,8.4-0.5c0.8,0.1,1.6,0,2.4-0.3c0.5-0.3,1.1-0.3,1.7-0.1c0.4-0.2,0.8-0.4,1.2-0.6c0.2-0.2,1.5,0,1.5,0
	c0.3,0.1,0.6,0,0.7-0.2l0,0v-0.1c0.2-0.5,0.4-0.9,0.8-1.2c0,0,1.5-8.8,4.3-12.2c0.5-0.4,0.7-1,0.6-1.6
	C935.3,482.2,940.1,469,946.8,470.8z"/>
<path class="st24" d="M1159.9,280.5v32.1c0,0.9-1.7,1.7-3.8,1.7h-80.3c-2.1,0-3.8-0.8-3.8-1.7v-32.1c0-0.9,1.7-1.9,3.8-1.9h80.3
	C1158.1,278.5,1159.9,279.4,1159.9,280.5z"/>
<g class="st23">
	<path class="st5" d="M1150.4,286.3v32.1c0,0.9-1.7,1.7-3.8,1.7h-80.2c-2.1,0-3.8-0.8-3.8-1.7v-32.1c0-0.9,1.7-1.9,3.8-1.9h80.3
		C1148.7,284.4,1150.4,285.4,1150.4,286.3z"/>
</g>
<path class="st24" d="M1159.9,280.5v32.1c0,0.9-1.7,1.7-3.8,1.7h-80.3c-2.1,0-3.8-0.8-3.8-1.7v-32.1c0-0.9,1.7-1.9,3.8-1.9h80.3
	C1158.1,278.5,1159.9,279.4,1159.9,280.5z"/>
<g class="st13">
	<path class="st5" d="M1159.9,280.5v32.1c0,0.9-1.7,1.7-3.8,1.7h-80.3c-2.1,0-3.8-0.8-3.8-1.7v-32.1c0-0.9,1.7-1.9,3.8-1.9h80.3
		C1158.1,278.5,1159.9,279.4,1159.9,280.5z"/>
</g>
<rect x="1110.6" y="290" class="st5" width="41.8" height="1.5"/>
<rect x="1110.6" y="293.8" class="st14" width="41.8" height="1.5"/>
<rect x="1110.6" y="297.6" class="st14" width="41.8" height="1.5"/>
<rect x="1110.6" y="301.4" class="st14" width="41.8" height="1.5"/>
<path class="st14" d="M1089.4,286.5c-5.6,0.2-10,4.8-9.9,10.5c0,3.5,1.6,6.8,4.4,8.7v-1.7c0-1.1,0.8-2.2,1.9-2.4
	c0.9,1.9,3.2,2.7,5.1,1.7c0.1,0,0.2-0.1,0.2-0.1c0.7-0.4,1.2-0.9,1.5-1.6c1.1,0.2,2.1,1.2,1.9,2.4v1.8c4.6-3.3,5.9-9.6,2.9-14.5
	C1096,288.4,1092.8,286.6,1089.4,286.5z M1093.8,299.3c-0.1,0.2-0.2,0.3-0.4,0.3c-0.1,0-0.1,0-0.2,0c-0.5,2.1-2.7,3.4-4.7,2.9
	c-0.1,0-0.1,0-0.2,0c-1.7-0.6-2.9-2.2-2.8-4c0-0.7,0.2-1.4,0.5-2.1l0,0c-0.4-0.6-0.4-1.4,0.1-1.9c0.2-0.1,0.5-0.2,0.8-0.3
	c0.9-0.3,1.6-0.8,2.1-1.6c0,0.2,0,0.4,0,0.6c0.3-0.3,0.8-0.4,1.2-0.1c0,0,0,0,0.1,0.1l0,0c0.1,0.1,0.2,0.3,0.3,0.4s0.3,0.1,0.4,0.1
	l1,0.1c0.7-0.1,1.3,0.4,1.5,1.1c0.3,0.7,0.5,1.4,0.6,2.3C1094.4,297.9,1094.2,298.6,1093.8,299.3L1093.8,299.3z"/>
<linearGradient id="SVGID_6_" gradientUnits="userSpaceOnUse" x1="87.9004" y1="664.5774" x2="87.9004" y2="411.0938" gradientTransform="matrix(0.9993 -3.838781e-02 3.838781e-02 0.9993 1015.9501 -109.9285)">
	<stop  offset="0" style="stop-color:#808080;stop-opacity:0.25"/>
	<stop  offset="0.54" style="stop-color:#808080;stop-opacity:0.12"/>
	<stop  offset="1" style="stop-color:#808080;stop-opacity:0.1"/>
</linearGradient>
<path class="st25" d="M1185.3,543.2c-0.7-2.9-1.2-5.3-1.2-5.3c0-1.9-0.5-3.8-1.4-5.4v-0.8l0,0l-0.2-5.8c0.3-1,0.8-2.1,1.2-3.1
	c0.9-1.8-0.3-8.5-0.3-8.5s-4-9.3-3.4-15.3c0.6-5.9-8.5-26.3-8.5-26.3c0-1.9,0.2-4,0.6-5.9c0.1-0.4,0.1-0.8,0.1-1.2l0,0
	c-0.3-4-3.5-11.2-3.5-11.2l-0.1-14.1c0,0,1.6-8.4-1.8-19.4c-1.2-3.9-2.1-7-2.6-9.3c-0.1-0.3-0.1-0.5-0.2-0.8
	c6.3-1.2,11.1-2.3,11.1-2.3s-4.3-16.1-6.9-18.9c-2.6-2.8-4.9-11.6-4.9-11.6s-1.7-11.4,0.2-14.9c1.9-3.5,2.1-9.2,2.1-9.2
	s4.6-3.9,5.1-5.5c0.7-2.4,1.2-4.8,1.3-7.3c-0.1-1.9-0.7-3.6-0.5-4.6c0.2-1-1.5-4.8-0.8-6.7c0.2-0.6,0.3-1.1,0.2-1.7v-0.1
	c-0.1-1.6-0.2-3.2-0.6-4.7c-1.4-1.1-3.1-2.1-4.8-2.5l-0.1-0.4l-0.3-1.1c-0.2-0.1-0.3-0.2-0.5-0.3v-0.4l-0.1-1.6l0.6-3.7
	c1.2-6.6-7-7.2-7-7.2c-0.5-0.9-1.3-1.6-2.4-2.1c-1.6-0.6,0.1,9.7,0.8,10.4c1.2,1.6,2.4,3.3,3.4,5.1l0,0l0.2,0.2
	c-0.1,0.1-0.2,0.3-0.3,0.4l0.4,2.3l0.1,0.3c-0.5,0.7-0.9,1.5-1.2,2.4c0.9,1,1.3,2.3,1.3,3.6c-0.1,1.5,0.2,3,0.6,4.4
	c-0.1-0.1-1.2-1.2-2.3-0.9c-1,0.3-3.9,1.4-3.9,1.4s-2.2,0.5-1.9,1s-1.3,2.8-1.3,2.8l-6-5.6c-0.1-0.2-0.1-0.3-0.2-0.5
	c-0.3-0.8-0.5-1.6-0.6-2.6c0.6-0.2,1.2-0.4,1.8-0.7c0.6-0.2,1.1-0.6,1.6-1.1c0.4-0.8,0.7-1.7,0.8-2.7c0.5-1.7,1.2-3.5,1.9-5.2
	c1.1-3,1.3-6.2,0.8-9.2c-0.1-0.9-0.5-1.8-1-2.7c-1-1.3-2.8-1.8-4.1-2.9s-2.2-2.7-3.7-3.5c-1.4-0.6-3-0.7-4.4-0.2
	c-3,0.6-5.7,1.8-8.2,3.5c-0.7,0.7-1.7,1-2.8,1c-0.8-0.2-1.5-0.7-2.1-1.4v-0.1l-0.1-0.1c-0.6,1.5-0.8,3.1-0.7,4.7c0,0.2,0,0.5,0,0.7
	v0.3c0,0.1,0,0.1,0,0.2l0,0c0,0.1,0,0.2,0,0.3c-0.1,0.3-0.3,0.6-0.5,0.8s-0.3,0.5-0.4,0.7c0-0.1,0-0.2,0.1-0.2
	c-0.3,0.6-0.5,1.3-0.5,1.9c0,0.5,0.1,1,0.5,1.4c0.3,0.3,0.6,0.5,1,0.8c-0.1,0.7-0.1,1.3-0.1,2.1c0.1,4.1,2.4,7.9,5.9,10
	c0.1,0.2,0.1,0.3,0.2,0.5c0.9,2.2,1.3,4.4,1.3,6.7c0,0.2,0,0.3-0.1,0.5c0,0.2-0.1,0.2-0.2,0.3l0,0c0,0-9.6,0.5-12-1.6
	c-2.4-2.2-5.5,5.5-5.5,5.5s-3.4,0.8-4.2,0.2c-0.8-0.6-4.8,0.1-4.8,0.1c-1.7-1.4-3.9-2.3-6.2-2.1c-1.4-1-2.9-1.8-4.5-2.5l0,0h-0.1
	l0,0c-0.7-0.2-1.4-0.3-2.2-0.2c0,0-4.9-4-6.4-6.2s-8.4-10.1-8.4-10.3v-0.4l-0.1-1.2c-0.2,0-0.4,0.1-0.6,0.1l-0.1-0.4
	c-0.4-1.1-0.9-2.3-1.5-3.4c0,0,0-1.5,0.3-1.9c0.3-0.4-0.4-5.9-0.4-5.9s-4.7-10.5-8.2-2.4c0,0-7.1,5.4-0.8,11.2c0,0,2.5,1.1,2.9,2.2
	c0.2,0.6,1.1,2.4,1.7,3.6c0.1,0.2,0.2,0.4,0.3,0.5l-0.1,0.1l0.1,1l0.1,0.4c-1.1,0.7-1.8,1.4-1.6,1.9c0.4,0.8,0.6,1.7,0.8,2.7
	c0,0,8.8,10.8,10,15.6c0,0,23.2,13.3,30.7,13.9l-1,7.2c-0.1,1.9-0.2,3.9-0.1,5.7c0.2,1.5-0.6,8.4-0.6,8.4s-0.9,10.3-1.9,11.7
	c-1,1.4-0.6,7.6-0.6,7.6c-0.1,3-0.5,5.8-1.2,8.7c-0.5,2.9-0.5,5.7,0,8.6c0,0-3.4,9.3,5.3,2.8c0,0,4.4-0.5,9.5-0.8v0.5
	c0,0.7,0,1.4,0,2.3c0.1,5.2,0.3,12.4,0.8,17.8c0.7,9.6,4.2,28.6,4.2,28.6l0.3,9.6c-0.1,0.9-0.2,1.8-0.2,2.8c0,3.4,1,6.7,2.8,9.5
	l0.9,6.4c0.9,2.2,1.5,4.4,1.9,6.7c0,0.2,0,0.4,0,0.6c0,0.3,0,0.6,0,1c0,2.9,1.9,9.7,1.9,9.7s0.3,7,1.3,7.4c1,0.4-1,4.1-1.5,5.1
	c0-0.1,0-0.1,0-0.2l-0.1,0.2c-0.2,0.6-0.3,1.2-0.2,1.8c-0.1,0.9,0.4,1.8,1.2,2.4c1.9,1.1,3,2.2,1.4,2.6c-0.6,0.1-1.1,0.3-1.7,0.5
	c0-0.1-0.1-0.2-0.1-0.2c-0.5,0.2-0.7,0.7-0.6,1.2c0,0.8,0.3,1.6,0.7,2.4c0.7,1.7,1.7,3.5,2.9,5l0.7-0.1c-0.1,0.3-0.2,0.6-0.4,0.9
	c-0.3,0.4-0.6,0.8-1.1,1.1c-0.4,0.3-0.8,0.5-1.3,0.6c-1.1,0.1-2.2,0.6-2.8,1.5c-0.9,1.4-1.4,3.3,0.5,4.8l7.2,2.3
	c0,0,12.3,1.2,11.5-1.6c-0.8-2.9-1.2-5.3-1.2-5.3c0-1.7-0.4-3.5-1.2-5.1c-0.1-0.2-0.3-0.5-0.4-0.7l0.4-0.1c0,0,0.6-6.5,1.8-7.7
	c0.2-0.3,0.3-0.5,0.2-0.7c0.1-0.3-0.2-0.6-0.6-0.6c0,0.1,0,0.2-0.1,0.2c-0.4-0.1-0.8-0.1-1.2-0.1c0,0-0.5-3.3,0.7-4.6
	c0.2-0.3,0.3-0.7,0.2-1c0-0.4-0.1-0.9-0.2-1.3v0.1c-0.8-2.7-1.8-5.2-3.2-7.8c0,0-0.2-3.1,0.5-4.3c0.7-1.2-0.7-16.5-0.7-16.5
	s0-7.4-1-10.8c-1-3.4,0.8-7.6,0.8-7.6c0-0.1,0-0.1,0-0.2l0,0c0,0,0-0.4-0.2-1.1v0.1c-0.2-1.9-0.8-5.5-1.1-7.2
	c-0.5-2.3-0.4-13.5-0.4-13.5l1.6-4.8l3.5,8.1l3.8,10.9c1,1.3,1.6,2.9,1.8,4.6v0.3c0,0.2,0,0.5,0,0.7c0,1.3,0.4,2.7,1.1,3.9
	c0,0,1.1,5.1,2.6,6.4c1.4,1.2,1.5,3.8,1.5,3.8s1.9,7.5,2.8,8.7c0.7,1.1,0.8,4.1,0.9,5.1l0,0v0.3c0,0,0.3,2.7,0.4,4.9v0.7
	c0,0.6,0,1.2-0.1,1.8v-0.8c-0.3,1.5-0.4,3.1-0.3,4.7c0,2.7,0.5,5.8,2.2,7.7c2.8,3.2,4.5,2.7,4.5,2.7s-1.1,4.1-2.8,5l-0.2,0.1
	c0-0.1,0-0.1,0-0.2c-0.3,0.4-0.5,1-0.4,1.5c0.1,2.2,0.9,4.2,2.2,5.9c0.4,0.4,0.8,0.6,1.3,0.8l-0.2,0.2c-0.2,0.1-0.4,0.2-0.5,0.3
	c-0.2,0.1-0.5,0.2-0.8,0.2c-1.1,0.1-2.2,0.6-2.8,1.5c-0.9,1.4-1.4,3.3,0.5,4.8l7.2,2.3C1173.8,544.9,1186,546.1,1185.3,543.2z"/>
<path class="st26" d="M1138.9,549.9l-7-2.3c-1.9-1.5-1.4-3.4-0.5-4.8c0.6-0.9,1.6-1.4,2.7-1.5c0.9-0.2,1.8-0.8,2.4-1.6
	c0.5-0.8,0.7-1.8,0.7-2.9c0,0,7.5-2.7,9.6-0.4c0.4,0.4,0.7,0.9,0.9,1.3c0.7,1.6,1.1,3.4,1.1,5.1c0,0,0.5,2.6,1.2,5.3
	C1150.7,550.9,1138.9,549.9,1138.9,549.9z"/>
<path class="st26" d="M1172.3,544.9l-7-2.3c-1.9-1.5-1.4-3.4-0.5-4.8c0.6-0.9,1.5-1.4,2.7-1.5c0.3,0,0.5-0.1,0.8-0.2
	c0.2-0.1,0.4-0.2,0.5-0.3c1.8-1.2,1.7-3.9,1.7-3.9s7.5-2.7,9.6-0.4c0.3,0.3,0.5,0.6,0.8,1c0.9,1.6,1.3,3.6,1.3,5.4
	c0,0,0.5,2.6,1.2,5.3C1184.3,546.1,1172.3,544.9,1172.3,544.9z"/>
<path class="st19" d="M1146.6,536.3c0.4,0.4,0.7,0.8,0.9,1.3l0,0l-11.3,1.8c0.5-0.8,0.7-1.8,0.7-2.9
	C1137,536.7,1144.5,534.1,1146.6,536.3z"/>
<path class="st19" d="M1180.9,532.4l0.1,2.3c-1.6,3.1-10.1,2.8-12.7,1.3c0.2-0.1,0.4-0.2,0.5-0.3c1.8-1.2,1.7-3.9,1.7-3.9
	s7.5-2.7,9.6-0.4C1180.5,531.7,1180.7,532.1,1180.9,532.4z"/>
<path class="st17" d="M1181.9,522.8c-0.5,1-0.9,2.1-1.2,3.1l0.3,8c-1.8,3.5-11.8,2.8-13.2,0.9c-1.4-1.8-3-6.5-1.5-7.4s2.6-5,2.6-5
	s-1.6,0.5-4.3-2.7s-2.3-10.4-1.8-12.1s-0.3-7.5-0.3-7.5s-0.1-4.1-0.8-5.3c-0.7-1.2-2.7-8.7-2.7-8.7c0-1.4-0.6-2.8-1.4-3.8
	c-1.3-1.2-2.5-6.4-2.5-6.4c-0.8-1.2-1.2-2.8-1.1-4.3c0.2-2.6-1.8-5.2-1.8-5.2l-3.7-10.8l-3.4-8.1l-1.5,4.8c0,0-0.1,11.2,0.4,13.5
	c0.5,2.4,1.2,8.5,1.2,8.5s-1.7,4.1-0.8,7.6c0.9,3.5,0.9,10.9,0.9,10.9s1.4,15.3,0.7,16.5s-0.5,4.3-0.5,4.3s4.3,8.8,3.1,10
	c-1.2,1.2-0.7,4.6-0.7,4.6s2.7-0.1,1.6,1.1c-1,1.2-1.7,7.7-1.7,7.7L1136,539c-1.1-1.5-2.1-3.3-2.8-5.1c-1.6-3.7,0.2-3.4,1.7-3.8
	c1.5-0.4,0.5-1.4-1.3-2.6s-0.9-3.9-0.9-3.9s2.6-5.1,1.6-5.4c-0.9-0.3-1.3-7.4-1.3-7.4s-2.3-8.2-1.8-10.5c0.4-2.3-1.8-7.6-1.8-7.6
	l-0.9-6.4c-2.2-3.6-3.1-7.8-2.6-12l-0.3-9.8c0,0-3.4-19-4.1-28.6c-0.5-6.2-0.7-14.6-0.8-19.9c-0.1-3-0.1-4.9-0.1-4.9l41.3-6.3
	c0.1,2.2,0.5,4.3,1,6.5c0.5,2.4,1.2,5.5,2.5,9.3c3.4,11.1,1.8,19.5,1.8,19.5l0.1,14.1c0,0,4,9.3,3.4,12.5c-0.4,1.9-0.6,3.9-0.5,5.9
	c0,0,8.9,20.3,8.3,26.2s3.3,15.3,3.3,15.3S1182.7,520.8,1181.9,522.8z"/>
<path class="st18" d="M1156.3,470.9l12.6-2.3C1168.8,468.6,1161.9,476.6,1156.3,470.9z"/>
<path class="st19" d="M1166.5,455.6c0,0,0.6,4.7-2.1,6.6C1164.5,462.2,1169.3,461.2,1166.5,455.6z"/>
<path class="st19" d="M1165.2,440.7c0,0-10.3,9.6-14.1,9S1165.2,440.7,1165.2,440.7z"/>
<path class="st19" d="M1140.7,475.8c0,0-8,2.3-8.1,5.6C1132.5,484.9,1140.7,475.8,1140.7,475.8z"/>
<path class="st18" d="M1144.1,518.1c0,0-11.3,2.7-8,4.1c2.8,1,5.6,1.8,8.6,2.4C1144.7,524.5,1148.3,524.5,1144.1,518.1z"/>
<g class="st27">
	<path d="M1133.9,524.6c-0.6-0.4-1-1-1.1-1.7c0,0.1-0.1,0.1-0.1,0.2c0,0-0.9,2.8,0.9,3.9c0.2,0.1,0.4,0.2,0.6,0.4
		c0.3-0.1,0.7-0.1,1-0.2C1136.8,526.8,1135.8,525.8,1133.9,524.6z"/>
	<path d="M1148.4,523.2c0.3-0.3,0.2-1.1,0-2.1c-0.4,0.9-0.6,1.9-0.5,3C1148,523.8,1148.2,523.5,1148.4,523.2z"/>
	<path d="M1144.9,472.9c-0.4,1.2-0.6,2.5-0.6,3.8c0.2-0.9,0.4-1.7,0.8-2.6C1145,474,1145,473.6,1144.9,472.9z"/>
	<path d="M1170.6,466.4c0.1-0.4,0.1-0.7,0.1-1.1c-0.1,0.7-0.2,1.4-0.2,2.1C1170.4,467.1,1170.5,466.8,1170.6,466.4z"/>
	<path d="M1145.9,509c0.2-0.7,0.2-1.5,0.2-2.3c-0.3,0.9-0.5,1.8-0.4,2.9C1145.7,509.3,1145.8,509.1,1145.9,509z"/>
	<path d="M1149,527.9c-0.5,2.1-0.8,4.2-1,6.4l-11.6,1.8c-1.1-1.5-2.1-3.3-2.8-5c-0.1-0.3-0.3-0.6-0.4-0.9c-0.7,0.4-0.9,1.1,0.1,3.3
		c0.7,1.7,1.6,3.5,2.8,5l11.6-1.8c0,0,0.6-6.5,1.7-7.7C1149.8,528.3,1149.5,528,1149,527.9z"/>
	<path d="M1133,510.3c0,0,0.3,7,1.3,7.4l0,0c0.4-1.2,0.7-2.3,0.3-2.5c-1-0.4-1.3-7.4-1.3-7.4s-2.3-8.2-1.8-10.5s-1.8-7.6-1.8-7.6
		l-0.9-6.4c-2.2-3.6-3.1-7.8-2.6-12l-0.3-9.8c0,0-3.4-19-4.1-28.6c-0.5-6.2-0.7-14.6-0.8-19.9c0-0.9,0-1.8,0-2.5h-0.3
		c0,0,0,1.9,0.1,4.9c0.1,5.2,0.3,13.6,0.8,19.9c0.7,9.6,4.1,28.6,4.1,28.6l0.4,9.8c-0.5,4.2,0.3,8.4,2.6,12l0.9,6.4
		c0,0,2.3,5.3,1.8,7.6S1133,510.3,1133,510.3z"/>
	<path d="M1168,532c-1-1.4-1.7-3.1-2.1-4.7c-1.1,1.1,0.4,5.5,1.7,7.2c1.3,1.6,11.5,2.5,13.2-0.9l-0.1-1.9
		C1178.3,534.5,1169.3,533.8,1168,532z"/>
	<path d="M1182.1,520c-0.5,1-0.9,2.1-1.2,3.1v1.4c0.2-0.5,0.5-1.2,0.9-2.1C1182.1,521.7,1182.2,520.7,1182.1,520L1182.1,520z"/>
	<path d="M1168.2,522.2c0.3-0.8,0.6-1.6,0.8-2.5c0,0-1.6,0.5-4.3-2.7c-1.9-2.3-2.3-6.8-2.1-9.6c-0.4,1.7-0.9,9,1.7,12.1
		C1166.2,521.6,1167.6,522.1,1168.2,522.2z"/>
	<path d="M1162.4,499.9c0.2,1.9,0.4,4,0.4,5.9c0-0.3,0.1-0.6,0.2-0.9c0.4-1.7-0.3-7.5-0.3-7.5s0-4.1-0.8-5.3
		c-0.8-1.2-2.8-8.7-2.8-8.7c0-1.4-0.6-2.8-1.4-3.8c-1.4-1.2-2.5-6.4-2.5-6.4c-0.8-1.2-1.2-2.8-1.1-4.3c0.2-2.6-1.8-5.2-1.8-5.2
		l-3.7-10.9l-3.4-8.1l-1.5,4.8v1.5l1.2-3.9l3.4,8.1l3.7,10.9c0,0,2.1,2.7,1.8,5.2c-0.1,1.5,0.3,3.1,1.1,4.3c0,0,1,5.1,2.5,6.4
		c1.4,1.2,1.4,3.8,1.4,3.8s1.9,7.5,2.7,8.7S1162.4,499.9,1162.4,499.9z"/>
</g>
<path class="st28" d="M1163.7,313l-0.6,3.7l0.1,1.6l0.1,1.2l-4,0.6l-0.5-0.8l0,0c-0.9-1.8-2.1-3.5-3.3-5.1
	c-0.8-0.6-2.5-10.9-0.8-10.4c1,0.4,1.8,1.1,2.3,2.1C1156.9,305.9,1164.9,306.5,1163.7,313z"/>
<path class="st19" d="M1163.3,319.6l-4,0.6l-0.5-0.8l0,0c1-1.3,2.9-1.7,4.4-0.9L1163.3,319.6z"/>
<path class="st29" d="M1164.3,321.6l-5.2,1.5l-0.2-0.8l-0.4-2.3c1-1.6,3.2-2.2,4.8-1.1c0.1,0.1,0.2,0.1,0.3,0.2l0.3,1.1
	L1164.3,321.6z"/>
<path class="st28" d="M1078.5,316.9l-5.5,3.5c0,0-0.2-0.5-0.5-1.1c-0.6-1.1-1.4-3-1.7-3.6c-0.4-1-2.8-2.2-2.8-2.2
	c-6.2-5.7,0.7-11.2,0.7-11.2c3.4-8.1,8,2.4,8,2.4s0.8,5.5,0.4,5.9c-0.4,0.4-0.3,1.9-0.3,1.9c0.6,1.1,1.1,2.2,1.4,3.4
	C1078.4,316.5,1078.5,316.9,1078.5,316.9z"/>
<path class="st19" d="M1078.5,316.9l-5.5,3.5c0,0-0.2-0.5-0.5-1.1c0.8-0.7,3.5-3.3,4.4-3.2c0.4,0,0.9,0,1.3,0
	C1078.4,316.5,1078.5,316.9,1078.5,316.9z"/>
<path class="st29" d="M1079.1,318.6l-6.3,3.6l-0.2-1.4l-0.1-1c0,0,3.6-3.5,4.6-3.4c0.5,0.1,1.1,0,1.6-0.1l0.1,1.2L1079.1,318.6z"/>
<path class="st28" d="M1149.2,338.2c0,0-27.5,4.4-22.4,2.5c2.9-0.9,4.9-3.5,5.1-6.6c0.1-2.3-0.4-4.6-1.2-6.7
	c-0.7-1.7-1.6-3.5-2.7-5.1c0,0,20.7-13.1,16.8-1.8c-0.6,1.7-0.9,3.5-1,5.3C1143.6,330.5,1145.6,335.1,1149.2,338.2L1149.2,338.2z"/>
<path class="st19" d="M1144.8,320.4c-0.6,1.7-0.9,3.5-1,5.3c-1.9,1.8-4.1,1.8-6.9,1.9c-2.2,0.1-4.5,0.7-6.3-0.3
	c-0.7-1.7-1.6-3.5-2.7-5.1C1127.9,322.3,1148.6,309.1,1144.8,320.4z"/>
<ellipse class="st28" cx="1136.1" cy="316.3" rx="11.5" ry="12.1"/>
<path class="st19" d="M1149.2,338.2c0,0-27.5,4.4-22.4,2.5c2.9-0.9,4.9-3.5,5.1-6.6c1.3-1.6,4-2.9,5.8-3.6c1.6-0.6,3.4-0.7,5-0.3
	c0.6,0.2,1.2,0.4,1.8,0.8C1145.4,333.8,1147.1,336.2,1149.2,338.2z"/>
<path class="st19" d="M1164.3,321.6l-5.2,1.5l-0.2-0.8c1-1.7,3.1-2.6,5-2.1L1164.3,321.6z"/>
<path class="st19" d="M1079.1,318.6l-6.3,3.6l-0.2-1.4c2.1-1.2,4.1-2.4,6.3-3.2L1079.1,318.6z"/>
<path class="st19" d="M1162.8,411.3c-10.7,2.3-25.8,5.1-28.3,4.5c-2.1-0.6-8.4-0.2-14,0.2c-0.1-3-0.1-4.9-0.1-4.9l41.3-6.3
	C1161.9,407.1,1162.3,409.2,1162.8,411.3z"/>
<path class="st9" d="M1173.4,408.2c0,0-35,7.8-38.9,6.8c-3.9-1-23.2,1-23.2,1c-8.5,6.6-5.2-2.8-5.2-2.8c-0.5-2.9-0.5-5.7,0-8.6
	c0.6-2.9,1-5.7,1.1-8.7c0,0-0.4-6,0.6-7.6c1-1.5,1.8-11.7,1.8-11.7s0.7-7,0.5-8.4c-0.1-1.9,0-3.9,0.1-5.7l1-7.2
	c-7.3-0.7-29.6-14-29.6-14c-1.2-4.7-9.7-15.6-9.7-15.6c-0.1-0.9-0.4-1.8-0.8-2.7c-0.6-1.6,7.9-5.2,7.9-5.2s6.8,8,8.1,10.3
	c1.3,2.3,6.2,6.2,6.2,6.2c0.7-0.1,1.4,0,2.2,0.2h0.1l0,0c1.5,0.6,3.1,1.4,4.4,2.5c2.2-0.1,4.3,0.6,5.9,2.1c0,0,3.9-0.7,4.6-0.1
	s4-0.2,4-0.2s3.1-7.7,5.3-5.5c2.3,2.2,11.7,1.6,11.7,1.6c1.2-1.8,4.2-3.2,6-3.9c1.6-0.6,3.4-0.7,5-0.3c0.7,0.2,1.4,0.5,2.1,0.9
	l5.9,5.6c0,0,1.5-2.3,1.3-2.8s1.8-1,1.8-1s2.8-1,3.8-1.4c1-0.4,2.1,0.8,2.2,0.9c-0.5-1.4-0.7-3-0.6-4.4c0-1.3-0.4-2.6-1.3-3.6
	c3.1-8.8,10.9-1.8,10.9-1.8s1,4.7,0.3,6.6s1,5.6,0.8,6.7s0.5,2.8,0.5,4.6c-0.1,2.5-0.5,4.9-1.2,7.3c-0.5,1.6-5,5.5-5,5.5
	s-0.1,5.7-1.9,9.2c-1.8,3.5-0.2,14.9-0.2,14.9s2.3,8.8,4.7,11.6S1173.4,408.2,1173.4,408.2z"/>
<path class="st19" d="M1119.6,343.6c0,0-1.2-3.3-2.2-3.6c-0.9-0.3-1.9-0.7-2.9-1.2l0.5-1.2c0,0,3.7,0.9,4.3,1.9
	S1119.6,343.6,1119.6,343.6z"/>
<path class="st19" d="M1100,336.9c-0.2,1-8.7,2.3-8.7,2.3l4.2-4.7l0,0h0.1l0,0C1097.2,335.1,1098.7,335.9,1100,336.9z"/>
<ellipse class="st30" cx="1074.8" cy="324" rx="0.8" ry="0.8"/>
<ellipse class="st30" cx="1075.8" cy="325.6" rx="0.8" ry="0.8"/>
<ellipse class="st30" cx="1076.8" cy="327.1" rx="0.8" ry="0.8"/>
<ellipse class="st30" cx="1078" cy="328.6" rx="0.8" ry="0.8"/>
<ellipse class="st30" cx="1168.4" cy="324.8" rx="0.6" ry="0.6"/>
<ellipse class="st30" cx="1168.6" cy="326.4" rx="0.6" ry="0.6"/>
<ellipse class="st30" cx="1168.7" cy="327.9" rx="0.6" ry="0.6"/>
<path class="st19" d="M1120.6,371.1c-0.1-0.1,22.6,27.9,38.7,10.6C1159.5,381.5,1133,386.5,1120.6,371.1z"/>
<path class="st19" d="M1108.7,386.6c0,0,13-0.1,14.5,3.7l0.1,4.1c-0.7,0.5-1.6,0.5-2.4,0.1c-1.3-0.7-9.3-4.6-12-2.5L1108.7,386.6z"
	/>
<path class="st31" d="M1109,386.6c0,0,12.4-0.1,13.8,3.6l0.1,3.9c-0.7,0.4-1.5,0.5-2.3,0.1c-1.2-0.6-8.9-4.4-11.5-2.4L1109,386.6z"
	/>
<path class="st19" d="M1114.8,356.6c1.4,3.2,3.2,6.2,5.3,8.9c2.3,3,5,5.6,8.1,7.7C1128.2,373.1,1115,358.5,1114.8,356.6z"/>
<path class="st19" d="M1109.9,340.8c0,0,2.5,9.7,8.2,12.9L1109.9,340.8z"/>
<path class="st19" d="M1106.7,342c-0.1-0.2-1.6,7.9,7.6,11.9C1114.3,353.9,1110.4,352.6,1106.7,342z"/>
<path class="st19" d="M1162.9,333c-0.1,0,4.6,3,5.9,4.3C1168.9,337.4,1165.7,332.7,1162.9,333z"/>
<path class="st26" d="M1133.4,327.4c0,1,0.8,1.8,1.8,1.8l0,0h0.2c3.5,0.1,7.2,0.1,10.4-1.4c0.6-0.2,1.1-0.6,1.5-1.1
	c0.4-0.8,0.7-1.7,0.8-2.7c0.5-1.7,1.1-3.5,1.9-5.2c1-3,1.3-6.2,0.8-9.2c-0.1-0.9-0.4-1.8-0.9-2.7c-1-1.3-2.7-1.8-3.9-2.9
	c-1.2-1-2.2-2.8-3.6-3.5c-1.3-0.6-2.9-0.7-4.3-0.2c-2.9,0.6-5.5,1.8-7.9,3.5c-0.7,0.7-1.6,1-2.7,1c-0.8-0.2-1.5-0.8-2.1-1.5
	c-0.6,1.7-0.8,3.5-0.7,5.3c0,0.3,0,0.5,0,0.8c-0.1,0.3-0.3,0.6-0.5,0.8c-0.8,1.1-1.3,2.8-0.4,3.8c0.4,0.5,0.9,0.7,1.3,1.1
	c0.7,0.8,0.5,2.1,0.5,3.2c0,0.4,0.1,0.7,0.3,1c0.4,0.3,0.9,0.5,1.4,0.3s1-0.2,1.4-0.2c0.5,0.2,1,0.5,1.3,1
	C1131.8,322.6,1132.8,325,1133.4,327.4z"/>
<g class="st23">
	<path d="M1147.6,325.7c-0.4,0.5-0.9,0.9-1.5,1.1c-3.2,1.5-6.8,1.5-10.3,1.4c-1,0.1-1.9-0.6-2.1-1.5l0,0v-0.2
		c-0.6-2.6-1.6-4.9-3.2-7.1c-0.3-0.5-0.8-0.8-1.3-1c-0.5,0-1,0-1.5,0.2c-0.5,0.2-1,0.1-1.4-0.3c-0.2-0.3-0.3-0.6-0.3-1
		c0-1.1,0.2-2.3-0.5-3.2c-0.4-0.5-0.9-0.7-1.3-1.1c-0.5-0.7-0.6-1.6-0.3-2.5c-0.6,1-0.6,2.3,0,3.3c0.4,0.4,0.9,0.7,1.3,1.1
		c0.7,0.8,0.5,2.1,0.5,3.2c0,0.4,0.1,0.7,0.3,1c0.4,0.3,0.9,0.5,1.4,0.3c0.5-0.2,1-0.2,1.5-0.2c0.5,0.2,1,0.5,1.3,1
		c1.5,2.2,2.6,4.5,3.2,7.1c0.1,0.6,0.4,1.2,0.9,1.5c0.3,0.2,0.7,0.2,1.1,0.2c3.5,0.1,7.2,0.1,10.4-1.4c0.6-0.2,1.1-0.6,1.5-1.1
		c0.2-0.3,0.4-0.6,0.4-1L1147.6,325.7z"/>
	<path d="M1124.7,309.1c0.1-0.2,0.3-0.4,0.3-0.6c0-0.3,0-0.5,0-0.8c-0.1-1.4,0-3,0.4-4.4l-0.1-0.1c-0.6,1.6-0.8,3.5-0.6,5.3
		C1124.7,308.7,1124.7,308.9,1124.7,309.1z"/>
</g>
<path class="st19" d="M1131.7,334.9c0,0,14.4,1.4,15.6-0.9"/>
<path class="st19" d="M1159.2,327.5c0,0,7.9-0.3,9.7,2.8"/>
<path class="st24" d="M770.8,301.1v32.1c0,0.9-1.7,1.7-3.8,1.7h-80.3c-2.1,0-3.8-0.8-3.8-1.7v-32.1c0-0.9,1.7-1.9,3.8-1.9h80.3
	C769.1,299.1,770.8,300,770.8,301.1z"/>
<g class="st13">
	<path class="st5" d="M770.8,301.1v32.1c0,0.9-1.7,1.7-3.8,1.7h-80.3c-2.1,0-3.8-0.8-3.8-1.7v-32.1c0-0.9,1.7-1.9,3.8-1.9h80.3
		C769.1,299.1,770.8,300,770.8,301.1z"/>
</g>
<rect x="721.5" y="310.6" class="st5" width="41.8" height="1.5"/>
<path class="st14" d="M700.4,307.1c-5.6,0.2-10,4.8-9.9,10.5c0,3.5,1.6,6.7,4.4,8.7v-0.7c0-1.1,0.8-2.2,1.9-2.4
	c0.9,1.8,3.2,2.7,5.1,1.7c0.1,0,0.2-0.1,0.2-0.1c0.7-0.4,1.2-0.9,1.5-1.6c1.1,0.2,2.1,1.2,1.9,2.4v0.7c4.6-3.3,5.8-9.6,2.9-14.5
	C707,309,703.8,307.2,700.4,307.1z M704.3,320.4c-0.1,2.3-1.9,3.9-4.2,3.8l0,0c-1.9-0.2-3.5-1.8-3.6-3.8c-1-2.3-0.1-4.9,2.2-6
	l0.1-0.1c-0.1-0.2-0.2-0.5-0.2-0.7c0-0.7,0.6-1.3,1.3-1.4h0.1c-0.7,0.1-1.2,0.7-1.2,1.4c0,0.2,0.1,0.5,0.2,0.7l0,0
	c0-0.1,0-0.2,0-0.3c0-0.3,0.1-0.6,0.2-0.8c0.1-0.6,0.6-1,1.2-1h0.1c-0.4,0-0.8,0.3-1,0.6c0.6-0.4,1.3-0.3,1.7,0.3c0,0,0,0,0,0.1
	c0.1,0.2,0.2,0.5,0.2,0.7v0.1c2.4,0.7,3.7,3.2,3.1,5.5C704.4,319.9,704.4,320.1,704.3,320.4L704.3,320.4z"/>
<rect x="721.5" y="314.4" class="st14" width="41.8" height="1.5"/>
<rect x="721.5" y="318.2" class="st14" width="41.8" height="1.5"/>
<rect x="721.5" y="322" class="st14" width="41.8" height="1.5"/>
<linearGradient id="SVGID_7_" gradientUnits="userSpaceOnUse" x1="806.6607" y1="684.3316" x2="806.6607" y2="452.0145" gradientTransform="matrix(1 0 0 1 -36.6 -131.2)">
	<stop  offset="0" style="stop-color:#808080;stop-opacity:0.25"/>
	<stop  offset="0.54" style="stop-color:#808080;stop-opacity:0.12"/>
	<stop  offset="1" style="stop-color:#808080;stop-opacity:0.1"/>
</linearGradient>
<path class="st32" d="M826,399.3c-0.3-1.7-0.5-3.5-0.5-5.2c0-2.2-2.8-4-2.8-4s-1.7-4.1-2.8-4.7s-4.6-6-4.6-6c0-1-0.4-2.1-1-2.9
	c-1-1.4-1.9-3-2.9-4.5l0,0c-0.5-0.6-0.2-1-0.9-4.5c0-0.2-0.1-0.4-0.1-0.5c0-0.1,0-0.1-0.1-0.2c1.5-1.6,2.1-4,1.3-6.2
	c-0.1-0.4-0.3-0.8-0.7-1.1c-0.8-0.7-2.1-0.4-2.9-1l0.8-4.1c0.2-1,0.3-2.3-0.5-2.8c-0.3-0.2-0.6-0.3-0.9-0.3
	c-1.4-0.5-2.3-2.1-2.6-3.6c-0.3-1.4-0.4-3-0.3-4.5c0.2-1.4,0.5-2.9,0.7-4.3c0.3-2.7-0.3-5.3-1.7-7.6c-0.5-0.9-1.3-1.7-2.3-2.3
	c-0.9-0.3-1.8-0.6-2.8-1c-1.7-1.1-1.6-4-3.1-5.5s-3.9-1.5-5.9-1c-2.1,0.5-4.1,1.5-6.2,1.2c-1.3-0.1-2.6-0.8-3.9-0.9
	c-0.4,0-0.8,0-1.1,0.1l0,0c-1,0.1-1.8,0.8-2.2,1.7c-0.1,0.2-0.1,0.5-0.1,0.7c0,0.6,0.1,1.1,0.1,1.7c0,0.4-0.1,0.9-0.4,1.2
	c-0.3,0.3-0.7,0.5-0.9,0.8c-0.2,0.2-0.3,0.6-0.3,0.9c0,0.9,1,1.6,1.7,2.1l0,0c-0.2,0.2-0.4,0.4-0.5,0.6c-2.1,2.5-3.1,5.5-3.1,8.7
	c0,5.1,3,9.9,7.6,12.1l-0.1,0.3c-0.2,0.6-0.4,1.2-0.7,1.8c-1-0.3-2.1-0.2-3,0.3c-1.4,0.7-3.1,1-4.6,0.7c-0.7-0.2-8-1.1-8.5-0.9
	c-0.5,0.2-1.7-0.8-2.6,0.6c-0.8,1.4-1.1,2.3-1.8,2.6c-0.7,0.3-2.1,1.5-1.9,1.7s-1.9,1.7-1.9,1.7s-1.8,2.1-2.9,2.3
	c-1.1,0.4-2.3,1-3.3,1.7l-2.6,2.2c0,0-1.9,0.3-1.3-1.1c0.6-1.4-1-3.2-1-3.2s-3.3-7-3.3-8.4c0-1.4-2.7-7.6-2.7-7.6h-0.3
	c0-0.1-0.1-0.3-0.2-0.5c-0.5-1.4-1-2.9-1.6-4.3c-0.9-2.1-1.5-2.3-1.5-2.3s-11.3-8.9-18.7-6.3s13.4,10.9,15.3,11.7
	c0.8,0.6,1.3,1.4,1.4,2.4c-1.6,0.8-3.1,2.2-4,3.8c0,0,4.5,10.5,4.6,13.1s3.1,9.8,3.1,9.8c0.7,3.3,3.8,5.4,7.1,5.1c0,0,8.3,1.6,10,0
	c1.7-1.6,3.5-2.9,4.3-3.1c0.6-0.2,1.2-0.6,1.6-1.2c0,0-2.7,18.2-4.1,19.8c-1.4,1.5-13.2,22-9,25.6c3.4,2.8,6.9,5.2,10.7,7.5
	c0.4,0.2,1.4-1.7,3-3.1v1c0,7.3,0.9,18.3,2.2,20.8c1.8,3.6,1.1,10.7,1.1,10.7c1,0.5,2.1,0.7,3.2,0.8c0.1,0.2,0.1,0.5,0.2,0.7
	c1,4.1,2.7,10.5,3.6,12.1c1.2,2.6,2.3,10.7,2.3,10.7s0.7,8,0.5,9c0.2,2.7,0.6,5.3,1.1,7.9l0,0c-0.5,5.6-1.3,16.6-1.5,20.6l0,0v0.7
	l0,0c0,0.2,0,0.5,0,0.7c0.1,0.4,0,0.8-0.1,1.1c-0.3,1.1-0.7,2.2-1.2,3.2c-0.2,0.5-0.4,1-0.5,1.5c-0.7,0.4-1.2,1.2-1.3,2.1
	c-0.6,2.4-1.4,8.9-1.4,8.9s-0.3,4-1,4.9c-0.7,0.9-1.4,6.7,3.6,7.4c2.7,0.5,5.4-0.5,7.1-2.8l-0.2-15.9l0,0c0.1-0.1,0.2-0.3,0.2-0.4
	l0,0c0-0.1,0.1-0.2,0.1-0.2v-0.1c0-0.1,0.1-0.1,0.1-0.2v-0.1c0.5-1.5,0.6-3.2,0.4-4.7V525c0-0.1,0-0.2,0-0.3v-0.3c0-0.1,0-0.1,0-0.2
	l0,0c0-0.2,0.1-0.5,0.2-0.7l0,0l0.1-0.2l0,0l0.2-0.8l0,0l0.1-0.2l0,0c0.1-0.2,0.2-0.5,0.2-0.7v-0.1l0.1-0.2v-0.1l0.2-0.4l0,0
	l1.3,4.5c0,0,0.7,3.4,0.3,4.1c-0.4,0.7,0.5,4.1,1,4.1l-0.5,4.1c-0.3,2.3-0.5,4.6-0.5,6.9c0,0.2-0.1,0.5-0.1,0.6
	c-0.1,1.8,0,3.7,0.5,5.4c4.6,5.7,10,0.4,10,0.4s0.6-3.1,0-3.6c-0.6-0.5-0.3-2.8-0.3-2.8s0.3-5.4,0.3-9.3c0-3.9-3.1-7.4-3.1-7.4
	l-0.2,0.2c-0.5-1.5-1.2-3.4-1-4.1c0.2-1.4-0.6-16.2-0.6-16.2c0.3-4,0.4-7.9,0.2-11.9l0,0c0.1-0.6,0.1-1.3,0.2-1.9
	c0.3-3.2,0.6-5.8,0.7-7.3l0,0v-0.2c0-0.4,0-0.6,0-0.8c0-0.5,0-1,0-1.6c0.1-1.7,0.3-3.6,0.3-3.6l1.2-7.8c0.5-2.1,1.2-4.1,2.3-5.9
	l0.2-0.3l0,0c0.1-0.1,0.1-0.2,0.2-0.3l0,0l0.2-0.3l0,0c0.2-0.4,0.4-0.8,0.6-1.3v-0.1l0.2-0.4l0.1-0.1l0.2-0.4c0,0,0-0.1,0.1-0.1
	l0.2-0.5l0.1-0.2c0-0.1,0.1-0.2,0.1-0.3l0.1-0.3l0.1-0.2l0.1-0.3c0-0.1,0-0.1,0.1-0.2c0.3-0.9,0.6-1.7,0.9-2.6l0,0l0.2-0.7
	c3,0.2,5,0.4,5,0.4c0.5-3.9,0.7-7.8,0.6-11.8c-0.1-3.2,0.2-6.4,0.7-9.4c0-0.2,0.1-0.5,0.1-0.6l0.1,0.1c1.4,1.2,2.5-2.8,2.5-2.8
	s-0.4-3.7-0.9-8.3c0-0.2,0-0.3,0-0.5c0.8,0.2,1.6,0.3,2.6,0.4l1.1-0.1c1.7,1,3.6,1.9,5.5,2.6l3.1-6c0.6-1.2,1.2-2.5,2.1-3.6
	c0.9-1.2,4.2-5.1,4.2-5.8c0.3-2.4,1.1-4.7,2.3-6.8C825,403.6,825.7,401.4,826,399.3z M813.1,403.9c-1.2,0.5-2.4,3.6-2.5,4.5
	c-0.1,0.9-1.3,4.9-2.7,5.4c-1.3,0.5-3.6,2.8-4,3.1c-0.4,0-0.8,0.1-1.2,0.2c-0.2-2.6-0.7-5.1-1.3-7.7c-0.9-1.8,1-7.7,1-7.7
	s0.2-5.8,1.4-7.3c1.2-1.4,0.9-4.9,0.9-4.9s0.3-1.4,0.4-2.2s1.7,0,1.7,0l0,0c0,0,3.2,1.8,3.6,4.5c0.4,2.7,3.9,7.5,3.9,7.5
	s-0.5,1.6,0,2.5C814.9,402.7,814.3,403.4,813.1,403.9L813.1,403.9z"/>
<path class="st33" d="M728.9,352c1.8-3.4,5.6-5.2,9.4-4.6v7.1h-4.1l-3.2-0.9L728.9,352z"/>
<path class="st19" d="M728.9,352c1.8-3.4,5.6-5.2,9.4-4.6v7.1h-4.1l-3.2-0.9L728.9,352z"/>
<path class="st34" d="M738.7,349.2l-5,3.7c0,0,0-0.7-0.2-1.7c-0.2-1.9-0.8-4.8-2.1-5.3c-1.8-0.8-22.2-9-15.1-11.7
	c7.2-2.7,18.5,6.2,18.5,6.2s0.6,0.2,1.5,2.3c0.5,1,1,2.9,1.5,4.3C738.4,348.3,738.7,349.2,738.7,349.2z"/>
<polygon class="st33" points="778.5,354.9 779.1,354.6 780.7,356.5 779.4,359.5 777.2,358.6 777.7,356.2 "/>
<path class="st7" d="M771,526.9c0,0-1.4-0.2-2.1,2.2c-0.6,2.4-1.4,8.9-1.4,8.9s-0.3,4-1,4.9c-0.7,0.9-1.3,6.6,3.5,7.4
	c2.7,0.5,5.4-0.5,7-2.8l-0.2-15.9L771,526.9z"/>
<path class="st7" d="M788,527.7c0,0,3.1,3.4,3,7.4s-0.3,9.3-0.3,9.3s-0.3,2.2,0.3,2.8c0.6,0.6,0,3.6,0,3.6s-5.4,5.3-9.9-0.4
	c-0.5-1.7-0.6-3.6-0.5-5.3c0.3-2.2,1.3-11.6,1.3-11.6L788,527.7z"/>
<path class="st34" d="M795.6,455.2c0,0-3.1,9.2-4.4,11.3c-1,1.8-1.7,3.9-2.3,5.9l-1.2,7.8c-0.2,1.7-0.4,3.5-0.4,5.2
	c0,1.7-3,27.4-3,27.4l-4.8,6.5c0,0-2.2,4.5-1.7,6.5c0.3,1.9,0,4-0.9,5.8c0,0-0.1,5.9-0.3,7.3c-0.2,1.3,0.6,5.1,0,5.7
	c-0.6,0.6-9,0.3-9.3-0.7s1-6.4,1-6.4l0.7-5.1c0,0,1.5-2.8,1.1-3.7c-0.4-0.9,0.6-3.1,0.7-3.2s1.6-3.2,1.3-4.3
	c-0.3-1.1,1.7-25.5,1.7-25.5l5.9-43.8L795.6,455.2z"/>
<path class="st19" d="M795.6,455.2c0,0-0.5,1.4-1.1,3.2c-0.9,2.8-2.1,5.4-3.3,8.1c-1,1.8-1.7,3.9-2.3,5.9l-1.2,7.8
	c-0.2,1.7-0.4,3.5-0.4,5.2c0,0.7-0.4,5.1-1,10.3c-0.8,7.8-1.9,17.2-1.9,17.2l-4.8,6.5c0,0-0.2,0.5-0.5,1.2c-0.6,1.5-1.4,3.9-1.2,5.1
	c0.3,1.9,0,4-0.9,5.8c0,0-0.1,5.9-0.3,7.3c-0.2,1.3,0.6,5.1,0,5.7c-0.6,0.6-9,0.3-9.3-0.7s1-6.4,1-6.4l0.7-5.1c0,0,1.5-2.8,1.1-3.7
	c-0.4-0.9,0.6-3.1,0.7-3.2s1.6-3.2,1.3-4.3c-0.2-0.8,0.9-15.2,1.4-22c0.2-2.2,0.3-3.6,0.3-3.6l5.1-37.7l0.4-3.1l0.4-3.1L795.6,455.2
	z"/>
<path class="st34" d="M790.4,546.4c0.1,0.7-8.1,1.6-9.2,0.9c-1.1-0.7,0-9.7,0-9.7l0.5-4.1c-0.6-0.1-1.4-3.3-1-4.1
	c0.4-0.8-0.3-4.1-0.3-4.1l-1.3-4.5l-0.8-2.8c-1.3-3.1-3.3-12.1-4.5-18.7c-0.5-2.6-0.9-5.2-1.1-7.9c0.3-1.1-0.5-9-0.5-9
	s-0.9-8-2.2-10.6c-0.8-1.6-2.5-8-3.5-12.1c-0.5-2.1-0.9-3.6-0.9-3.6s8.7-0.8,13.9-1c2.5-0.1,4.1-0.1,3.9,0.1
	c-0.3,0.9-0.3,1.9-0.2,2.9c0,4.2,0.6,11.5,1.1,13.4c0.8,2.8,1.6,10.9,1.2,11.7c-0.4,0.8-0.2,6-0.2,6c0.6,2.2,0.9,4.3,1,6.6
	c0.2,4,0.1,7.9-0.2,11.9c0,0,0.8,14.8,0.6,16.1s1.8,5.7,1.8,6.6s0.5,6.6,0.5,6.6S790.3,545.7,790.4,546.4z"/>
<path class="st34" d="M794.9,369.3l-1,1.1l-0.6,0.7l-3.8,4.2l-9.6,1.1l-5.1-1.4l-1.2-0.4c0,0,0-2.8,0.2-6c0.3-4.2,1.1-9.3,3-10.7
	c0.9-0.8,1.6-1.7,2.2-2.9c0.4-0.8,0.7-1.6,0.9-2.5l0.1-0.3c0.4-1.4,0.7-3,0.9-4.5c0,0,1.2-0.7,3-1.5c4.5-2.3,12.2-5.2,9.5,1.5
	c-0.4,1-0.7,2.1-1,3.1c0,0.1-0.1,0.3-0.1,0.4c-0.9,3.8-0.3,6.2,0.4,7.4l0,0c0.1,0.2,0.2,0.4,0.4,0.6c0.2,0.3,0.4,0.5,0.6,0.7
	l1.1,7.5l0.1,0.6L794.9,369.3z"/>
<path class="st19" d="M793.3,348.3C792.8,349.6,793.5,347.3,793.3,348.3c-2.1,1.5-6.9,5.9-9.5,5.9c-1.4,0-2.8-0.3-3.9-1.1
	c0.5-1.5,0.8-3.2,1-4.8C780.8,348.3,797,338.8,793.3,348.3z"/>
<path class="st34" d="M797.4,340.3c0.2,6.6-4.6,12.2-11.2,13.1c-0.4,0.1-0.8,0.1-1.3,0.1c-6.9,0-12.5-5.9-12.5-13.2
	c0-7.3,5.6-13.2,12.5-13.2C791.8,327.1,797.4,333,797.4,340.3L797.4,340.3L797.4,340.3z"/>
<path class="st19" d="M799.1,398.9l-1.7,4.9c0,0-1.4,0.1-3.7,0.1c-7.6,0.2-24.4,0.6-25.2-1.4c-0.2-0.5-0.3-1-0.2-1.6
	c0.1-2.7,0.5-5.4,1.3-8c0,0,0.8-9.7,0.8-10.1c0-0.4-0.7-7.3-0.7-7.3l1.3-5.4l3.9-2.9c0,0,1.7,2.8,2.8,3.1c0.9,0.3,1.7,0.9,2.4,1.5
	c0,0,3.4,2.2,4.5,0.9s9.5-6.6,9.5-6.6l4.5,5.2L799.1,398.9z"/>
<path class="st24" d="M799.1,399.6l-1.7,4.9l-3.7,0.1h-0.2l-3.3,0.1c-6,0.1-14.5,0.2-18.8-0.5c-1.6-0.2-2.8-0.6-2.9-1.1
	c-0.1-0.3-0.2-0.6-0.2-0.9c0-0.2,0-0.5,0-0.7c0.1-2.8,0.5-5.4,1.3-8c0,0,0.8-9.7,0.8-10.1c0-0.4-0.7-7.2-0.7-7.2l1.3-5.4l2.7-1.9
	l1.2-0.9c0.4,0.6,0.8,1.2,1.3,1.8c0.3,0.5,0.8,0.9,1.4,1.2c0.9,0.4,1.7,0.9,2.4,1.5c0,0,3.4,2.2,4.5,1c0.8-0.9,5.9-4.3,8.4-5.7
	l1.2-0.7l0.6,0.7l3.9,4.5L799.1,399.6z"/>
<path class="st19" d="M738.7,349.2l-5,3.7c0,0,0-0.7-0.2-1.7c1.8-0.9,3.4-2.5,4.4-4.3C738.4,348.1,738.7,349.2,738.7,349.2z"/>
<path class="st9" d="M756.2,361.8l-1.1-0.3c0,0-1.7,1.9-2.8,2.3c-1.1,0.4-2.2,1-3.2,1.7l-2.6,2.2c0,0-1.8,0.3-1.3-1.1
	c0.5-1.4-1-3.2-1-3.2s-3.2-7-3.2-8.4c0-1.4-2.7-7.6-2.7-7.6s-3.3,6.9-9.4,4.6c0,0,4.4,10.5,4.5,13.1s3.1,9.8,3.1,9.8
	c0.7,3.2,3.7,5.4,7,5.1c0,0,8.1,1.6,9.9,0c1.8-1.6,3.4-2.9,4.2-3.1c0.6-0.2,1.2-0.6,1.6-1.2v-7.2L756.2,361.8z"/>
<path class="st19" d="M745.9,368.6c0,0,1.4,5.6,0.5,6.3L745.9,368.6z"/>
<path class="st19" d="M793.7,404.7c-7.6,0.2-24.4,0.6-25.2-1.4c-0.2-0.5-0.3-1-0.2-1.6l24.9,1.4L793.7,404.7z"/>
<path class="st19" d="M795.6,455.2c0,0-0.5,1.4-1.1,3.2c-3.2-0.2-7.4-0.4-11.4-0.4c-1.4,0-2.8,0-4.1,0c-2.3,0-4.5,0.3-6.7,0.8
	c-1.9,0.6-4,0.9-5.9,0.8c-0.5-2.1-0.8-3.6-0.8-3.6s8.7-0.8,13.9-1l0.4-3.1L795.6,455.2z"/>
<path class="st17" d="M802.2,433.1l-0.9,2.2c0,0-0.1,0.6-0.3,1.6c-0.5,3.1-0.8,6.3-0.7,9.4c0.1,3.9-0.1,7.9-0.6,11.8
	c0,0-21.1-1.8-27.3,0c-6.2,1.8-9.2,0-9.2,0s0.7-7.1-1.1-10.7c-1.2-2.5-2.2-13.5-2.2-20.8c0-3.4,0.2-5.9,0.5-6.4
	c1.2-1.6,6.7-18,6.7-18l1.2,0.1l3.3,0.2l18.7,1l2.9,0.2l0.3,1L802.2,433.1z"/>
<path class="st33" d="M811.5,425.8l0.2,1.9c0,0-9.2-3.2-8.7-7.1c0.5-3.9,0-3.5,0-3.5l7.4,0.6L811.5,425.8z"/>
<path class="st19" d="M811.5,425.8l0.2,1.9c0,0-9.2-3.2-8.7-7.1c0.5-3.9,0-3.5,0-3.5l7.4,0.6L811.5,425.8z"/>
<path class="st19" d="M752.1,370.2c0.9,0.8,2.1,1.4,3.3,1.8c-0.3-0.1-0.7-0.2-0.9-0.5c-0.7-0.5-1.3-1-1.9-1.5
	c-0.5-0.5-1.1-1-1.8-1.3C751.2,369.1,751.6,369.6,752.1,370.2z"/>
<path class="st19" d="M752.3,372.7c0.3,0.4,0.5,0.7,0.7,1.2c0.1,0.5,0.2,1,0.2,1.5c0.1,0.7,0,1.5-0.2,2.2l-1.5-3.8
	c-0.2-0.6-0.5-1.2-0.8-1.9c-0.1-0.3-1-1.3-0.9-1.5C750,369.7,752,372.3,752.3,372.7z"/>
<path class="st19" d="M793.6,393.6c1-0.1,1.9-0.6,2.8-1.3c-1.5,0.2-3,0.8-4.5,1.1c-1.4,0.3-2.9,0.2-4.2-0.4
	C789.5,393.8,791.7,394,793.6,393.6z"/>
<path class="st19" d="M789.3,382.6c-0.3,0-0.5,0-0.8-0.2c-1.1-0.7-2.3-1.4-3.4-2.2c-1.2-0.7-2.3-1.5-3.3-2.5
	C784.1,379.9,786.2,381.7,789.3,382.6z"/>
<path class="st19" d="M792.5,395.4c0.6,0,1.2,0,1.7-0.1c0.6-0.1,1.1-0.5,1.4-1c-0.2-0.1-0.4,0-0.6,0.1c-1.8,0.8-3.8,1-5.7,0.7
	C790.4,395.4,791.5,395.5,792.5,395.4z"/>
<path class="st19" d="M781.6,423.5c-1.2,0.4-2.5,0.6-3.7,0.7c-0.9,0-1.9,0-2.9-0.1l-4.7-0.3l-2.4-0.2c-0.3,0-1.4,0-0.8-0.6
	c0.3-0.3,1.8-0.1,2.3-0.1c0.8,0,1.5,0,2.4,0c1.5,0,3.1,0,4.6,0.1C778.1,423.2,779.9,423.3,781.6,423.5z"/>
<path class="st19" d="M776.2,425.9c-0.9,0.1-1.7,0.3-2.7,0.6c-0.9,0.1-1.8,0.1-2.8,0.1c-1.8,0-3.7-0.4-5.3-1.1
	C769,425.7,772.6,425.8,776.2,425.9z"/>
<path class="st19" d="M766.1,428.6c0.3,0.1,0.7,0.2,1,0.3c1.9,0.6,4.1,0.1,6-0.4c-0.5,0.7-1.4,1.2-2.3,1.3c-1.4,0.4-3,0.4-4.5,0.2
	c-0.5-0.1-1.6-0.3-1.8-0.8C764.2,428.4,765.7,428.5,766.1,428.6z"/>
<path class="st19" d="M777.2,432.5c0.6,0.1,1.2,0.3,1.7,0.5c2.3,0.6,4.5-0.2,6.8-0.7c2.7-0.6,5.4-0.9,8.2-0.8
	c-0.6,0.1-1.2,0.3-1.7,0.6c-0.6,0.2-1.2,0.4-1.9,0.6c-1.2,0.3-2.6,0.6-3.8,0.8c-2.6,0.4-5.2,0.5-7.9,0.4c-1.2-0.1-3.3,0.1-4.3-0.6
	C775.2,432.6,776.2,432.4,777.2,432.5z"/>
<path class="st19" d="M778,357.8c0,0,0.1,5.5-0.7,8.1c-0.3,0.8-0.7,2.3-1.1,3.9c-0.5,1.8-1,3.9-1.4,5.4c-0.4,1.5-0.7,2.7-0.7,2.7
	s-1.9,16.7-2.5,24.6v0.4c0,0.4-0.1,0.9-0.1,1.4c-1.1,7.9-7.6,20.1-9.7,21c-0.7,0.3-1.3,0.8-1.8,1.3c0-3.4,0.2-5.9,0.5-6.4
	c1.2-1.6,6.7-17.9,6.7-17.9l1.2,0.1c0-0.2,0-0.5-0.1-0.7c0.1-2.8,0.5-5.4,1.3-8c0,0,0.8-9.7,0.8-10.1s-0.7-7.2-0.7-7.2l1.3-5.4
	l2.7-1.9c0.3-4.2,1.1-9.3,3-10.7c0.9-0.8,1.6-1.7,2.2-3c0.4,0.1-0.3-0.3-0.3-0.3L778,357.8z"/>
<path class="st9" d="M779.1,354.6c-0.9-0.3-2.1-0.2-2.9,0.3c-1.4,0.7-3,1-4.6,0.7c-0.7-0.2-7.9-1.1-8.4-0.9
	c-0.5,0.2-1.7-0.8-2.5,0.6c-0.7,1.4-1,2.3-1.8,2.6c-0.8,0.3-2.1,1.5-1.8,1.7s-1.8,1.7-1.8,1.7l4.2,14.4c0,0-2.8,18.1-4,19.8
	s-13,22-8.8,25.6c3.3,2.8,6.8,5.2,10.5,7.5c0.5,0.2,2.2-3.1,4.4-4.1s9.4-14.7,9.8-22.4c0.4-7.8,2.5-25,2.5-25s2.5-9.4,3.3-12
	s0.7-8.1,0.7-8.1L779.1,354.6z"/>
<path class="st19" d="M802.2,433.1l-0.9,2.2c0,0-0.1,0.6-0.3,1.6c-0.2,0-0.3-0.1-0.5-0.2c-1.4-1.2-9.8-10.4-10.3-18.5
	c-0.3-5.9-0.2-11.2-0.1-13.4c0-0.7,0-1.1,0-1.2l0,0c0,0,6.6-8.4,5.8-11.4c-0.7-3-2.5-18.9-2.5-18.9l-0.2-2.1l-0.4-3.5l-1-8.5l1,0.3
	c0.2,0.3,0.4,0.5,0.6,0.7l1.1,7.5l3.9,4.5l0.6,27.5l-1.7,4.9l-3.7,0.1h-0.2L802.2,433.1z"/>
<path class="st9" d="M805.9,387.7c0,0-1.6-0.6-1.7,0c-0.1,0.6-0.4,2.2-0.4,2.2s0.3,3.5-0.9,4.9c-1.2,1.4-1.4,7.3-1.4,7.3
	s-1.9,5.8-1,7.7c0.6,2.6,1.1,5.2,1.3,7.9c0.3,2.5,0.6,5.2,0.9,7.7c0.5,4.5,0.9,8.2,0.9,8.2s-1,4-2.5,2.8
	c-1.4-1.2-9.8-10.4-10.3-18.5c-0.3-5.7-0.2-10.7-0.1-13.1c0-1,0.1-1.6,0.1-1.6s6.6-8.4,5.8-11.3s-2.5-18.9-2.5-18.9l-0.3-2.5
	l-0.3-2.7l-0.1-0.6l-1-8.4l0,0c0.2,0,6.7,1.5,7.5,2.5s6,2.2,6,2.2c1.6,0.5,2.9,1.8,3.3,3.5c0,0.2,0.1,0.3,0.1,0.5
	c0.7,3.5,0.5,3.9,0.9,4.5C810.7,372.5,805.9,387.7,805.9,387.7z"/>
<path class="st19" d="M802.7,425.3c-2.4-0.5-5.8-1.6-5.7-4.1c0.1-2.5,2.8-3.2,4.8-3.5C802.1,420.1,802.4,422.7,802.7,425.3z"/>
<path class="st34" d="M810,424c-0.1,0.2-0.5,0.4-1,0.6c-1.2,0.3-2.6,0.5-3.8,0.6c0,0-8-0.6-7.9-4.5c0.1-2.8,3.7-3.5,5.7-3.6
	c0.8-0.1,1.3-0.1,1.3-0.1S810.4,423.3,810,424z"/>
<path class="st19" d="M810,424c-0.1,0.2-0.5,0.4-1,0.6c-2.1-3-5-6.7-6.4-7.1c0,0,0.2-0.2,0.4-0.4c0.8-0.1,1.3-0.1,1.3-0.1
	S810.4,423.3,810,424z"/>
<path class="st9" d="M808.1,371.7l2.4,0.4c0.8,1.5,1.7,3.1,2.8,4.5c0.6,0.8,1,1.8,1,2.9c0,0,3.4,5.4,4.5,6c1.1,0.6,2.8,4.7,2.8,4.7
	s2.8,1.8,2.8,4c0,1.7,0.2,3.5,0.5,5.2c-0.1,2.1-0.6,4.1-1.5,5.9c-1.1,2.2-1.8,4.4-2.3,6.8c0.1,0.7-3.2,4.6-4.1,5.8
	c-0.7,1.1-1.4,2.4-2.1,3.6l-3.1,6c0,0-6.5-10-8.8-10.6c0,0,2.7-2.7,4-3.2c1.3-0.5,2.6-4.5,2.7-5.4c0.1-0.9,1.2-4,2.4-4.5
	s1.8-1.1,1.3-1.9c-0.3-0.8-0.3-1.6,0-2.5c0,0-3.4-4.7-3.9-7.5c-0.5-2.8-3.6-4.5-3.6-4.5l-1.7-4.6L808.1,371.7z"/>
<path class="st19" d="M816.6,394.3c1.2-1.1,2.9-1.8,4.6-1.8c-1.1,0.1-2.2,0.5-3.1,1.2c-0.3,0.3-0.6,0.7-0.8,1.1
	c-0.3,0.4-2.5,3.4-2.9,3C813.9,397.1,816.1,394.8,816.6,394.3z"/>
<path class="st19" d="M811.3,391.5c0.7-0.1,1.3-0.5,1.6-1.2s0.4-1.4,0.5-2.2c0.2-1.2,0.4-2.5,0.7-3.7c0.1-0.2,0.1-0.5,0.1-0.8
	c0-0.2-0.1-0.5-0.2-0.7c-0.1-0.4-0.3-0.7-0.5-1.1c-0.4,0.7-0.6,1.5-0.7,2.3c-0.2,0.8-0.4,1.6-0.6,2.5
	C812.2,387.1,811.3,391.5,811.3,391.5z"/>
<path class="st19" d="M809.3,367c-0.2,0.3-0.5,0.6-0.8,0.8c-0.9,0.8-2.2,1.4-2.3,2.7c0,0.4,0,0.8-0.1,1.2c-0.3,0.5-1,0.5-1.6,0.4
	c-0.5-0.1-0.9-0.2-1.3-0.5c-0.6-0.6-0.7-1.5-1.1-2.3c-0.5-0.7-1.4-1.1-2.4-1.1c-0.9,0-1.7,0.2-2.7,0.2c-0.5,0-1.1,0-1.6-0.1
	l-0.5-0.1c-0.4-0.1-0.8-0.2-1.1-0.4c-0.2-0.1-0.4-0.2-0.5-0.3c-0.6-0.3-1.1-0.7-1.6-1.2c-0.9-0.8-1.5-1.9-1.5-3.2
	c0.1-0.7,0.3-1.4,0.5-2.2c0.3-2.2-1-4.2-2.5-5.7c-0.6-0.6-1.2-1.2-1.7-1.8c-0.9-0.9-1.6-1.9-2.1-3.2c-0.4-1.2-0.5-2.7-0.4-4
	c0.1-1.3,0.2-2.8,0.1-4.1c-0.4-4.8-4.3-8.5-8.2-10.6l-0.2-0.1c4.2-5.1,11.8-5.9,16.9-1.7c0.2,0.2,0.5,0.4,0.7,0.6
	c5.1,5,5.6,13.1,1,18.7c-0.5,0.6-1.1,1.2-1.8,1.7c0,0.1-0.1,0.3-0.1,0.4c-0.9,3.8-0.3,6.2,0.4,7.4l0,0c0.2,0,6.7,1.5,7.5,2.5
	c0.8,0.9,6,2.2,6,2.2C807.8,364,809,365.3,809.3,367z"/>
<path class="st7" d="M774.5,328.1c0.2-0.3,0.6-0.5,0.9-0.8c0.8-0.9,0-2.5,0.3-3.7s1.9-1.9,3.3-1.8s2.6,0.8,3.9,0.9
	c2.1,0.2,4-0.7,6-1.2s4.4-0.6,5.8,1c1.4,1.6,1.2,4.4,3,5.5c0.8,0.4,1.7,0.7,2.7,1c0.9,0.5,1.7,1.3,2.3,2.3c1.3,2.3,1.9,4.9,1.7,7.6
	c-0.1,1.4-0.5,2.9-0.7,4.3c-0.2,1.5-0.1,3,0.3,4.5s1.1,3.1,2.6,3.6c0.3,0.1,0.6,0.2,0.9,0.3c0.8,0.5,0.7,1.8,0.5,2.8l-0.8,4
	c0.8,0.6,2.1,0.4,2.9,1c0.3,0.3,0.5,0.7,0.6,1.1c0.8,2.4,0.1,4.8-1.6,6.6c-0.9,0.8-2.2,1.4-2.3,2.7c0,0.4,0,0.8-0.1,1.2
	c-0.3,0.5-1,0.5-1.6,0.4c-0.5,0-0.9-0.2-1.3-0.5c-0.6-0.6-0.7-1.5-1.1-2.3c-0.5-0.7-1.4-1.1-2.4-1.1s-1.7,0.2-2.7,0.2
	c-2.1,0.1-4.1-0.7-5.5-2.2c-0.9-0.8-1.4-1.9-1.5-3.2c0.1-0.7,0.3-1.4,0.5-2.3c0.3-2.2-1-4.2-2.5-5.6c-1.4-1.4-3.2-3-3.9-5
	c-0.9-2.6,0-5.3-0.3-8c-0.4-4.8-4.3-8.5-8.2-10.6C775.1,330.6,773.6,329.4,774.5,328.1z"/>
<path class="st19" d="M805.3,369.7c-0.6-0.6-0.7-1.5-1.1-2.3c-0.5-0.7-1.4-1.1-2.4-1.1c-0.9,0-1.7,0.2-2.7,0.2
	c-2.1,0.1-4-0.6-5.5-2.1c-0.9-0.8-1.4-1.9-1.5-3.2c0.1-0.7,0.3-1.4,0.5-2.2c0.3-2.2-1-4.2-2.5-5.7s-3.2-3-3.9-5
	c-0.9-2.6,0-5.3-0.2-8c-0.4-4.8-4.3-8.5-8.2-10.6c-0.9-0.5-2.4-1.6-1.3-2.9c0.3-0.3,0.6-0.5,0.9-0.7c0.8-0.9,0-2.5,0.3-3.7
	c0.1-0.2,0.2-0.5,0.3-0.6c-1,0.1-1.8,0.8-2.2,1.7c-0.3,1.2,0.5,2.8-0.3,3.7c-0.3,0.3-0.6,0.5-0.9,0.8c-1,1.2,0.5,2.5,1.3,2.9
	c3.9,2.1,7.8,5.7,8.2,10.6c0.2,2.7-0.6,5.5,0.3,8c0.7,2.1,2.5,3.5,3.9,5c1.4,1.5,2.8,3.6,2.5,5.7c-0.2,0.7-0.3,1.4-0.5,2.2
	c0,1.2,0.5,2.5,1.5,3.2c1.4,1.4,3.5,2.3,5.5,2.2c0.9,0,1.7-0.2,2.7-0.2c0.9,0,1.7,0.4,2.4,1.1c0.5,0.7,0.5,1.6,1.1,2.3
	c0.4,0.3,0.8,0.5,1.3,0.5c0.6,0.1,1.3,0.1,1.6-0.4c0.1-0.2,0.1-0.5,0.1-0.7C806.1,370.3,805.6,370.1,805.3,369.7z"/>
<g>
	<g>
		<defs>
			<rect id="SVGID_8_" x="0" width="356.3" height="768"/>
		</defs>
		<clipPath id="SVGID_9_">
			<use xlink:href="#SVGID_8_"  style="overflow:visible;"/>
		</clipPath>
		<g class="st35">
			<path class="st1" d="M182.8,338c57.5,196.2,5.4,252.6-47,272.4c-69.7,26.2-129,220.4-244.4,214.2c-92.2-4.9-53-68.3-166.8-58.3
				c-270.3,23.4-259.7-259-265.8-369.7C-551.7,204.7-348.2-79.1-156.9-79.1c90.2,0,0.3,79.1,168,79.1c56,0,142.2,14.9,225.6,34.4
				c70.9,16.5,106.4,31.3,111.7,69.4c3.3,23.5-20.3,49.3-53.5,72.3C265.1,196.8,147.6,217.5,182.8,338z"/>
		</g>
		<g class="st36">
			<path class="st1" d="M190.4,366.8c57.5,196.2,5.4,252.6-47,272.4C79.3,663.3,67.6,717.2,0,768c-42.3,31.8-49,87.6-101,85.4
				c-26.9-1.1-48.1-12.1-48.1-12.1c-34.1-19.3-32.6-53.8-118.7-46.2c-270.3,23.4-259.7-259-265.8-369.7
				C-544.1,233.5-340.7-50.3-149.4-50.3c90.2,0,0.3,79.1,168,79.1c56,0,142.2,14.9,225.6,34.4c70.9,16.5,106.4,31.3,111.7,69.4
				c3.3,23.5-20.3,49.3-53.5,72.3C272.7,225.6,155.2,246.4,190.4,366.8z"/>
		</g>
	</g>
	<path class="st1" d="M207.2,34.4"/>
</g>
</svg>
