<svg id="_683d3690-e1ab-45db-97b8-9484a1649262" data-name="683d3690-e1ab-45db-97b8-9484a1649262" xmlns="http://www.w3.org/2000/svg" xmlns:xlink="http://www.w3.org/1999/xlink" viewBox="0 0 839.2 727.08"><defs><style>.cls-1,.cls-3,.cls-4,.cls-5{opacity:0.5;}.cls-2,.cls-5{fill:#47e6b1;}.cls-15,.cls-3{fill:#4d8af0;}.cls-14,.cls-21,.cls-3,.cls-4,.cls-5{isolation:isolate;}.cls-12,.cls-4{fill:#f55f44;}.cls-6,.cls-7,.cls-8,.cls-9{fill:none;stroke-miterlimit:10;stroke-width:2px;}.cls-6{stroke:url(#Degradado_sin_nombre);}.cls-7{stroke:#535461;}.cls-8{stroke:url(#Degradado_sin_nombre_2);}.cls-9{stroke:url(#Degradado_sin_nombre_3);}.cls-10{opacity:0.7;}.cls-11{fill:url(#Degradado_sin_nombre_4);}.cls-13{fill:#535461;}.cls-14{fill:#fff;}.cls-14,.cls-21{opacity:0.1;}.cls-16{fill:#f9a826;}.cls-17{fill:#3ad29f;}.cls-18{fill:url(#Degradado_sin_nombre_5);}.cls-19{fill:#e9b92a;}.cls-20{fill:url(#Degradado_sin_nombre_6);}</style><linearGradient id="Degradado_sin_nombre" x1="484.89" y1="151.73" x2="600.81" y2="151.73" gradientTransform="matrix(1, 0, 0, -1, -180.4, 643.54)" gradientUnits="userSpaceOnUse"><stop offset="0" stop-color="gray" stop-opacity="0.25"/><stop offset="0.54" stop-color="gray" stop-opacity="0.12"/><stop offset="1" stop-color="gray" stop-opacity="0.1"/></linearGradient><linearGradient id="Degradado_sin_nombre_2" x1="615.75" y1="199.28" x2="651.5" y2="199.28" xlink:href="#Degradado_sin_nombre"/><linearGradient id="Degradado_sin_nombre_3" x1="745.48" y1="134.43" x2="780.02" y2="134.43" xlink:href="#Degradado_sin_nombre"/><linearGradient id="Degradado_sin_nombre_4" x1="634.31" y1="220.15" x2="634.31" y2="634.14" xlink:href="#Degradado_sin_nombre"/><linearGradient id="Degradado_sin_nombre_5" x1="637.08" y1="143.2" x2="637.08" y2="216.68" xlink:href="#Degradado_sin_nombre"/><linearGradient id="Degradado_sin_nombre_6" x1="454.93" y1="2.92" x2="454.93" y2="242.14" gradientTransform="matrix(1, 0, 0, -1, 0, 730)" xlink:href="#Degradado_sin_nombre"/></defs><title>happy_birthday</title><g class="cls-1"><rect class="cls-2" x="124.18" y="129.51" width="3.33" height="18.87"/><rect class="cls-2" x="116.41" y="137.28" width="18.87" height="3.33"/></g><g class="cls-1"><rect class="cls-2" x="242.55" y="540.19" width="3.33" height="18.87"/><rect class="cls-2" x="234.77" y="547.96" width="18.87" height="3.33"/></g><g class="cls-1"><rect class="cls-2" x="76.86" y="321" width="3.33" height="18.87"/><rect class="cls-2" x="69.09" y="328.77" width="18.87" height="3.33"/></g><g class="cls-1"><rect class="cls-2" x="659.86" width="3.33" height="18.87"/><rect class="cls-2" x="652.09" y="7.77" width="18.87" height="3.33"/></g><g class="cls-1"><rect class="cls-2" x="97.97" y="46.93" width="3.33" height="18.87"/><rect class="cls-2" x="90.19" y="54.7" width="18.87" height="3.33"/></g><path class="cls-3" d="M165.1,472.85a4.08,4.08,0,0,1-2.27-4.93,1.8,1.8,0,0,0,.09-.45h0a2,2,0,0,0-3.67-1.36h0a2,2,0,0,0-.23.4,4.08,4.08,0,0,1-4.93,2.27,1.8,1.8,0,0,0-.45-.09h0a2,2,0,0,0-1.36,3.67h0a2,2,0,0,0,.4.23,4.08,4.08,0,0,1,2.27,4.93,1.8,1.8,0,0,0-.09.45h0a2,2,0,0,0,3.67,1.36h0a2,2,0,0,0,.23-.4,4.08,4.08,0,0,1,4.93-2.27,1.8,1.8,0,0,0,.45.09h0a2,2,0,0,0,1.36-3.67h0A2,2,0,0,0,165.1,472.85Z"/><path class="cls-3" d="M148.6,652.2a4.08,4.08,0,0,1-2.27-4.93,1.8,1.8,0,0,0,.09-.45h0a2,2,0,0,0-3.67-1.36h0a2,2,0,0,0-.23.4,4.07,4.07,0,0,1-4.92,2.28,1.8,1.8,0,0,0-.45-.09h0a2,2,0,0,0-1.36,3.67h0a2,2,0,0,0,.4.23,4.08,4.08,0,0,1,2.27,4.93,1.8,1.8,0,0,0-.09.45h0a2,2,0,0,0,3.67,1.36h0a2,2,0,0,0,.23-.4A4.08,4.08,0,0,1,147.2,656a1.8,1.8,0,0,0,.45.09h0a2,2,0,0,0,1.36-3.67h0A1.69,1.69,0,0,0,148.6,652.2Z"/><path class="cls-3" d="M755.6,255.2a4.08,4.08,0,0,1-2.27-4.93,1.8,1.8,0,0,0,.09-.45h0a2,2,0,0,0-3.67-1.36h0a2,2,0,0,0-.23.4,4.07,4.07,0,0,1-4.92,2.28,1.8,1.8,0,0,0-.45-.09h0a2,2,0,0,0-1.36,3.67h0a2,2,0,0,0,.4.23,4.08,4.08,0,0,1,2.27,4.93,1.8,1.8,0,0,0-.09.45h0a2,2,0,0,0,3.67,1.36h0a2,2,0,0,0,.23-.4A4.08,4.08,0,0,1,754.2,259a1.8,1.8,0,0,0,.45.09h0a2,2,0,0,0,1.36-3.67h0A1.69,1.69,0,0,0,755.6,255.2Z"/><path class="cls-3" d="M728.13,444.54a4.08,4.08,0,0,1-2.27-4.93,1.8,1.8,0,0,0,.09-.45h0a2,2,0,0,0-3.67-1.36h0a2,2,0,0,0-.23.4,4.08,4.08,0,0,1-4.93,2.27,1.8,1.8,0,0,0-.45-.09h0a2,2,0,0,0-1.36,3.67h0a2,2,0,0,0,.4.23,4.08,4.08,0,0,1,2.27,4.93,1.8,1.8,0,0,0-.09.45h0a2,2,0,0,0,3.67,1.36h0a2,2,0,0,0,.23-.4,4.08,4.08,0,0,1,4.93-2.27,1.8,1.8,0,0,0,.45.09h0a2,2,0,0,0,1.36-3.67h0A2,2,0,0,0,728.13,444.54Z"/><path class="cls-3" d="M748.6,67.21a4.08,4.08,0,0,1-2.27-4.93,1.8,1.8,0,0,0,.09-.45h0a2,2,0,0,0-3.67-1.36h0a2,2,0,0,0-.23.4,4.08,4.08,0,0,1-4.93,2.27,1.8,1.8,0,0,0-.45-.09h0a2,2,0,0,0-1.36,3.67h0a2,2,0,0,0,.4.23,4.08,4.08,0,0,1,2.27,4.93,1.8,1.8,0,0,0-.09.45h0A2,2,0,0,0,742,73.69h0a2,2,0,0,0,.23-.4A4.08,4.08,0,0,1,747.19,71a1.8,1.8,0,0,0,.45.09h0A2,2,0,0,0,749,67.44h0A2,2,0,0,0,748.6,67.21Z"/><path class="cls-3" d="M812.82,559.26a4.08,4.08,0,0,1-2.27-4.93,1.8,1.8,0,0,0,.09-.45h0a2,2,0,0,0-3.67-1.36h0a2,2,0,0,0-.23.4,4.08,4.08,0,0,1-4.93,2.27,1.8,1.8,0,0,0-.45-.09h0a2,2,0,0,0-1.36,3.67h0a2,2,0,0,0,.4.23,4.08,4.08,0,0,1,2.27,4.93,1.8,1.8,0,0,0-.09.45h0a2,2,0,0,0,3.67,1.36h0a2,2,0,0,0,.23-.4,4.08,4.08,0,0,1,4.93-2.27,1.8,1.8,0,0,0,.45.09h0a2,2,0,0,0,1.36-3.67h0A2,2,0,0,0,812.82,559.26Z"/><circle class="cls-4" cx="6.66" cy="257.78" r="6.66"/><circle class="cls-4" cx="749.83" cy="146.09" r="6.66"/><circle class="cls-4" cx="446.92" cy="395.96" r="7.5"/><circle class="cls-4" cx="446.92" cy="395.96" r="7.5"/><circle class="cls-4" cx="832.55" cy="346.34" r="6.66"/><circle class="cls-5" cx="294.17" cy="47.27" r="7.5"/><circle class="cls-4" cx="721.49" cy="621.41" r="6.66"/><path class="cls-6" d="M306.7,381.54c-3.94,12.79,2,27.91,13.53,34.64,4.84,2.82,10.41,4.24,15.1,7.3,10.19,6.64,14.21,19.35,17.52,31,3.8,13.45,7.61,27.67,4.13,41.2-2.22,8.63-7.27,16.26-10.14,24.7a51.5,51.5,0,0,0-2.45,22c.42,3.94,1.4,8,4.1,10.94,3.9,4.2,10.18,4.83,15.82,5.84A76.76,76.76,0,0,1,419.51,602"/><path class="cls-7" d="M307.91,381.54c-3.94,12.79,2,27.91,13.53,34.64,4.84,2.82,10.41,4.24,15.1,7.3,10.19,6.64,14.21,19.35,17.52,31,3.8,13.45,7.61,27.67,4.13,41.2-2.22,8.63-7.27,16.26-10.14,24.7a51.5,51.5,0,0,0-2.45,22c.42,3.94,1.4,8,4.1,10.94,3.9,4.2,10.18,4.83,15.82,5.84A76.76,76.76,0,0,1,420.72,602"/><path class="cls-8" d="M457.05,285.94c-9.72,13.55-19.81,28.12-20.64,44.78-1.27,25.59,19.2,46.52,28.34,70.46a83.76,83.76,0,0,1-2.81,65.5c-4.46,9.22-10.82,18.38-10,28.59.47,6.23,3.59,11.9,6.1,17.63a99.42,99.42,0,0,1-5.77,89.75"/><path class="cls-7" d="M458.25,285.94c-9.71,13.6-19.8,28.13-20.65,44.78-1.27,25.59,19.2,46.52,28.34,70.46a83.76,83.76,0,0,1-2.81,65.5c-4.46,9.22-10.82,18.38-10,28.59.47,6.23,3.59,11.9,6.1,17.63a99.42,99.42,0,0,1-5.77,89.75"/><path class="cls-9" d="M593.43,407.82l4.7,38.31c.62,5.09,1.15,10.64-1.58,15-2.59,4.11-7.45,6.07-11.23,9.11-12.41,10-11.28,29.11-7,44.45s10.44,31.82,4.49,46.58c-2.46,6.09-6.8,11.22-10,16.94a51.84,51.84,0,0,0-6.2,32.18"/><path class="cls-7" d="M594.6,407.82l4.7,38.31c.62,5.09,1.15,10.64-1.58,15-2.59,4.11-7.45,6.07-11.23,9.11-12.41,10-11.28,29.11-7,44.45s10.44,31.82,4.49,46.58c-2.46,6.09-6.8,11.22-10,16.94a51.84,51.84,0,0,0-6.2,32.18"/><g class="cls-10"><path class="cls-11" d="M715.3,250.36a113.6,113.6,0,0,0-148.7-108,136.56,136.56,0,0,0,1.45-19.27A113.53,113.53,0,0,0,341.27,115,113.6,113.6,0,0,0,192.51,223c0,57,42,138,96.65,152.35l8.51,4.86L293.05,396h27.36l-5.94-15.85,8.47-4.84c42.26-11.09,76.91-62,90.48-110.83a83.14,83.14,0,0,0,24.22,11l8.51,4.86-4.55,15.79H469L463,280.28l8.47-4.84a79.08,79.08,0,0,0,18-7.31c7.31,54.78,46.2,121.66,95.41,134.57l8.51,4.86-4.62,15.83h27.36l-6-15.85,8.47-4.84C673.35,388.35,715.3,307.32,715.3,250.36Z"/></g><polygon class="cls-12" points="324.76 390.14 298.28 390.14 302.92 374.26 318.8 374.26 324.76 390.14"/><path class="cls-12" d="M420.72,222.7c0,60.68-49.19,149.57-109.86,149.57S201,283.37,201,222.7a109.87,109.87,0,0,1,219.73,0Z"/><polygon class="cls-13" points="318.8 374.92 302.92 374.92 293.65 369.63 328.07 369.63 318.8 374.92"/><path class="cls-14" d="M271.15,137.32s-46.33,25.15-52.95,75.45"/><polygon class="cls-15" points="468.43 293.56 441.95 293.56 446.59 277.68 462.47 277.68 468.43 293.56"/><path class="cls-16" d="M564.39,126.12c0,60.68-49.19,149.57-109.86,149.57s-109.86-88.9-109.86-149.57a109.87,109.87,0,0,1,219.73,0Z"/><polygon class="cls-13" points="462.47 278.34 446.59 278.34 437.32 273.04 471.74 273.04 462.47 278.34"/><path class="cls-14" d="M414.82,40.74s-46.33,25.15-52.95,75.45"/><polygon class="cls-17" points="610.89 416.71 584.41 416.71 589.05 400.82 604.93 400.82 610.89 416.71"/><path class="cls-17" d="M706.85,249.26c0,60.68-49.19,149.57-109.86,149.57S487.12,309.94,487.12,249.26a109.87,109.87,0,0,1,219.73,0Z"/><polygon class="cls-13" points="604.93 401.48 589.05 401.48 579.78 396.19 614.2 396.19 604.93 401.48"/><path class="cls-14" d="M557.28,163.88S511,189,504.33,239.33"/><g class="cls-1"><path class="cls-18" d="M516.41,435.43c-6.37-6.39-15.66-8.93-26.16-7.16-9.82,1.66-19.65,7-27.67,15a32.31,32.31,0,0,0-5.79,7.94,32.38,32.38,0,0,0-5.74-8.23h0c-7.88-8.15-17.62-13.64-27.45-15.44-10.46-2-19.79.43-26.28,6.71s-9.15,15.53-7.53,26.05c1.52,9.84,6.7,19.75,14.59,27.88,16.58,17.11,49.67,10.43,51.07,10.13l.41-.09,1.27.29c1.4.32,34.37,7.57,51.24-9.25,8-8,13.37-17.81,15.07-27.63C525.29,451.12,522.78,441.83,516.41,435.43Zm-66.52,53c-8,1.08-27.93,2.54-37.82-7.67-6.36-6.57-10.52-14.41-11.71-22.1-1.08-7,.48-13,4.42-16.78a14.79,14.79,0,0,1,5.39-3.3,22.31,22.31,0,0,1,11.52-.58c7.64,1.43,15.36,5.83,21.72,12.4,9.89,10.14,7.81,30.06,6.48,38ZM513,459.82c-1.32,7.66-5.61,15.44-12.09,21.89-10.07,10-30,8.23-38,7-1.19-8-2.93-27.89,7.14-37.93,6.48-6.45,14.27-10.72,21.93-12a22.18,22.18,0,0,1,11.51.78,14.68,14.68,0,0,1,5.34,3.4c3.86,3.87,5.32,9.85,4.12,16.85Z"/></g><path class="cls-19" d="M458.7,496.13l-3.15.66c-1.34.28-33,6.67-48.87-9.7-7.54-7.78-12.5-17.26-14-26.68-1.56-10.07,1-18.92,7.2-24.93S415,427.19,425,429.06c9.37,1.75,18.69,7,26.23,14.79h0c15.86,16.37,8.48,47.82,8.16,49.15Zm-46.53-56.49A14.17,14.17,0,0,0,407,442.8c-3.76,3.65-5.26,9.35-4.23,16.06,1.14,7.35,5.12,14.86,11.21,21.15,9.47,9.77,28.54,8.37,36.19,7.34,1.27-7.61,3.27-26.63-6.2-36.4h0c-6.09-6.28-13.47-10.5-20.79-11.86A21.25,21.25,0,0,0,412.17,439.64Z"/><path class="cls-19" d="M454,496.27l-.7-3.14c-.3-1.34-7.14-32.91,9-49h0c7.68-7.65,17.08-12.74,26.48-14.33,10-1.7,18.93.73,25,6.85s8.5,15,6.77,25c-1.62,9.39-6.74,18.78-14.42,26.43-16.14,16.09-47.69,9.15-49,8.85Zm47.5-55.73a21.31,21.31,0,0,0-11-.75c-7.34,1.24-14.79,5.33-21,11.5h0c-9.64,9.61-8,28.65-6.83,36.29,7.63,1.16,26.68,2.89,36.31-6.71,6.2-6.18,10.3-13.62,11.57-21,1.15-6.69-.25-12.42-3.95-16.13A14.17,14.17,0,0,0,501.52,440.54Z"/><g class="cls-1"><polygon class="cls-20" points="608.43 487.86 301.42 487.86 301.42 549.29 317.37 549.29 317.37 727.08 592.48 727.08 592.48 549.29 608.43 549.29 608.43 487.86"/></g><rect class="cls-13" x="320.85" y="506.43" width="268.15" height="217.63"/><rect class="cls-19" x="429.66" y="545.29" width="50.52" height="178.76"/><rect class="cls-21" x="320.85" y="494.77" width="268.15" height="54.41"/><rect class="cls-13" x="305.31" y="490.88" width="299.24" height="54.41"/><rect class="cls-19" x="429.66" y="490.88" width="50.52" height="54.41"/></svg>