<?xml version="1.0" encoding="utf-8"?>
<!-- Generator: Adobe Illustrator 24.0.2, SVG Export Plug-In . SVG Version: 6.00 Build 0)  -->
<svg version="1.1" id="_683d3690-e1ab-45db-97b8-9484a1649262"
	 xmlns="http://www.w3.org/2000/svg" xmlns:xlink="http://www.w3.org/1999/xlink" x="0px" y="0px" viewBox="0 0 839.2 727.1"
	 style="enable-background:new 0 0 839.2 727.1;" xml:space="preserve">
<style type="text/css">
	.st0{opacity:0.15;}
	.st1{fill:#47E6B1;}
	.st2{opacity:0.15;fill:#4D8AF0;enable-background:new    ;}
	.st3{opacity:0.15;fill:#F55F44;enable-background:new    ;}
	.st4{opacity:0.15;fill:#47E6B1;enable-background:new    ;}
	.st5{opacity:0.15;fill:none;stroke:url(#SVGID_1_);stroke-width:2;stroke-miterlimit:10;enable-background:new    ;}
	.st6{opacity:0.15;fill:none;stroke:#535461;stroke-width:2;stroke-miterlimit:10;enable-background:new    ;}
	.st7{opacity:0.15;fill:none;stroke:url(#SVGID_2_);stroke-width:2;stroke-miterlimit:10;enable-background:new    ;}
	.st8{opacity:0.15;fill:none;stroke:url(#SVGID_3_);stroke-width:2;stroke-miterlimit:10;enable-background:new    ;}
	.st9{fill:url(#SVGID_4_);}
	.st10{opacity:0.15;fill:#535461;enable-background:new    ;}
	.st11{opacity:0.15;fill:#FFFFFF;enable-background:new    ;}
	.st12{opacity:0.15;fill:#F9A826;enable-background:new    ;}
	.st13{opacity:0.15;fill:#3AD29F;enable-background:new    ;}
	.st14{fill:url(#SVGID_5_);}
	.st15{opacity:0.15;fill:#E9B92A;enable-background:new    ;}
	.st16{fill:url(#SVGID_6_);}
</style>
<title>happy_birthday2</title>
<g class="st0">
	<rect x="124.2" y="129.5" class="st1" width="3.3" height="18.9"/>
	<rect x="116.4" y="137.3" class="st1" width="18.9" height="3.3"/>
</g>
<g class="st0">
	<rect x="242.6" y="540.2" class="st1" width="3.3" height="18.9"/>
	<rect x="234.8" y="548" class="st1" width="18.9" height="3.3"/>
</g>
<g class="st0">
	<rect x="76.9" y="321" class="st1" width="3.3" height="18.9"/>
	<rect x="69.1" y="328.8" class="st1" width="18.9" height="3.3"/>
</g>
<g class="st0">
	<rect x="659.9" class="st1" width="3.3" height="18.9"/>
	<rect x="652.1" y="7.8" class="st1" width="18.9" height="3.3"/>
</g>
<g class="st0">
	<rect x="98" y="46.9" class="st1" width="3.3" height="18.9"/>
	<rect x="90.2" y="54.7" class="st1" width="18.9" height="3.3"/>
</g>
<path class="st2" d="M165.1,472.9c-1.9-0.8-2.9-2.9-2.3-4.9c0-0.1,0.1-0.3,0.1-0.5l0,0c0.2-1.1-0.6-2.1-1.7-2.3
	c-0.8-0.1-1.6,0.2-2,0.9l0,0c-0.1,0.1-0.2,0.3-0.2,0.4c-0.8,1.9-2.9,2.9-4.9,2.3c-0.1,0-0.3-0.1-0.4-0.1l0,0
	c-1.1-0.2-2.1,0.6-2.3,1.7c-0.1,0.8,0.2,1.6,0.9,2l0,0c0.1,0.1,0.3,0.2,0.4,0.2c1.9,0.8,2.9,2.9,2.3,4.9c0,0.1-0.1,0.3-0.1,0.5l0,0
	c-0.2,1.1,0.6,2.1,1.7,2.3c0.8,0.1,1.6-0.2,2-0.9l0,0c0.1-0.1,0.2-0.3,0.2-0.4c0.8-1.9,2.9-2.9,4.9-2.3c0.1,0,0.3,0.1,0.4,0.1l0,0
	c1.1,0.2,2.1-0.6,2.3-1.7c0.1-0.8-0.2-1.6-0.9-2l0,0C165.4,473,165.2,472.9,165.1,472.9z"/>
<path class="st2" d="M148.6,652.2c-1.9-0.8-2.9-2.9-2.3-4.9c0-0.1,0.1-0.3,0.1-0.5l0,0c0.2-1.1-0.6-2.1-1.7-2.3
	c-0.8-0.1-1.6,0.2-2,0.9l0,0c-0.1,0.1-0.2,0.3-0.2,0.4c-0.8,1.9-2.9,2.9-4.9,2.3c-0.1,0-0.3-0.1-0.4-0.1l0,0
	c-1.1-0.2-2.1,0.6-2.3,1.7c-0.1,0.8,0.2,1.6,0.9,2l0,0c0.1,0.1,0.3,0.2,0.4,0.2c1.9,0.8,2.9,2.9,2.3,4.9c0,0.1-0.1,0.3-0.1,0.5l0,0
	c-0.2,1.1,0.6,2.1,1.7,2.3c0.8,0.1,1.6-0.2,2-0.9l0,0c0.1-0.1,0.2-0.3,0.2-0.4c0.8-1.9,2.9-2.9,4.9-2.3c0.1,0,0.3,0.1,0.4,0.1l0,0
	c1.1,0.2,2.1-0.6,2.3-1.7c0.1-0.8-0.2-1.6-0.9-2l0,0C148.9,652.3,148.7,652.3,148.6,652.2z"/>
<path class="st2" d="M755.6,255.2c-1.9-0.8-2.9-2.9-2.3-4.9c0-0.1,0.1-0.3,0.1-0.4l0,0c0.2-1.1-0.6-2.1-1.7-2.3
	c-0.8-0.1-1.6,0.2-2,0.9l0,0c-0.1,0.1-0.2,0.3-0.2,0.4c-0.8,1.9-2.9,2.9-4.9,2.3c-0.1,0-0.3-0.1-0.5-0.1l0,0
	c-1.1-0.2-2.1,0.6-2.3,1.7c-0.1,0.8,0.2,1.6,0.9,2l0,0c0.1,0.1,0.3,0.2,0.4,0.2c1.9,0.8,2.9,2.9,2.3,4.9c0,0.1-0.1,0.3-0.1,0.5l0,0
	c-0.2,1.1,0.6,2.1,1.7,2.3c0.8,0.1,1.6-0.2,2-0.9l0,0c0.1-0.1,0.2-0.3,0.2-0.4c0.8-1.9,2.9-2.9,4.9-2.3c0.1,0,0.3,0.1,0.5,0.1l0,0
	c1.1,0.2,2.1-0.6,2.3-1.7c0.1-0.8-0.2-1.6-0.9-2l0,0C755.9,255.3,755.7,255.3,755.6,255.2z"/>
<path class="st2" d="M728.1,444.5c-1.9-0.8-2.9-2.9-2.3-4.9c0-0.1,0.1-0.3,0.1-0.5l0,0c0.2-1.1-0.6-2.1-1.7-2.3
	c-0.8-0.1-1.6,0.2-2,0.9l0,0c-0.1,0.1-0.2,0.3-0.2,0.4c-0.8,1.9-2.9,2.9-4.9,2.3c-0.1,0-0.3-0.1-0.5-0.1l0,0
	c-1.1-0.2-2.1,0.6-2.3,1.7c-0.1,0.8,0.2,1.6,0.9,2l0,0c0.1,0.1,0.3,0.2,0.4,0.2c1.9,0.8,2.9,2.9,2.3,4.9c0,0.1-0.1,0.3-0.1,0.5l0,0
	c-0.2,1.1,0.6,2.1,1.7,2.3c0.8,0.1,1.6-0.2,2-0.9l0,0c0.1-0.1,0.2-0.3,0.2-0.4c0.8-1.9,2.9-2.9,4.9-2.3c0.1,0,0.3,0.1,0.5,0.1l0,0
	c1.1,0.2,2.1-0.6,2.3-1.7c0.1-0.8-0.2-1.6-0.9-2l0,0C728.4,444.7,728.3,444.6,728.1,444.5z"/>
<path class="st2" d="M748.6,67.2c-1.9-0.8-2.9-2.9-2.3-4.9c0-0.1,0.1-0.3,0.1-0.5l0,0c0.2-1.1-0.6-2.1-1.7-2.3
	c-0.8-0.1-1.6,0.2-2,0.9l0,0c-0.1,0.1-0.2,0.3-0.2,0.4c-0.8,1.9-2.9,2.9-4.9,2.3c-0.1,0-0.3-0.1-0.5-0.1l0,0
	c-1.1-0.2-2.1,0.6-2.3,1.7c-0.1,0.8,0.2,1.6,0.9,2l0,0c0.1,0.1,0.3,0.2,0.4,0.2c1.9,0.8,2.9,2.9,2.3,4.9c0,0.1-0.1,0.3-0.1,0.4l0,0
	c-0.1,1.1,0.7,2.1,1.8,2.2c0.7,0.1,1.5-0.2,1.9-0.9l0,0c0.1-0.1,0.2-0.3,0.2-0.4c0.8-1.9,3-2.9,5-2.3c0.1,0,0.3,0.1,0.5,0.1l0,0
	c1.1,0.1,2.1-0.6,2.2-1.7c0.1-0.8-0.2-1.5-0.9-1.9l0,0C748.9,67.3,748.7,67.3,748.6,67.2z"/>
<path class="st2" d="M812.8,559.3c-1.9-0.8-2.9-2.9-2.3-4.9c0-0.1,0.1-0.3,0.1-0.5l0,0c0.2-1.1-0.6-2.1-1.7-2.3
	c-0.8-0.1-1.6,0.2-2,0.9l0,0c-0.1,0.1-0.2,0.3-0.2,0.4c-0.8,1.9-2.9,2.9-4.9,2.3c-0.1,0-0.3-0.1-0.5-0.1l0,0
	c-1.1-0.2-2.1,0.6-2.3,1.7c-0.1,0.8,0.2,1.6,0.9,2l0,0c0.1,0.1,0.3,0.2,0.4,0.2c1.9,0.8,2.9,2.9,2.3,4.9c0,0.1-0.1,0.3-0.1,0.5l0,0
	c-0.2,1.1,0.6,2.1,1.7,2.3c0.8,0.1,1.6-0.2,2-0.9l0,0c0.1-0.1,0.2-0.3,0.2-0.4c0.8-1.9,2.9-2.9,4.9-2.3c0.1,0,0.3,0.1,0.5,0.1l0,0
	c1.1,0.2,2.1-0.6,2.3-1.7c0.1-0.8-0.2-1.6-0.9-2l0,0C813.1,559.4,813,559.3,812.8,559.3z"/>
<circle class="st3" cx="6.7" cy="257.8" r="6.7"/>
<circle class="st3" cx="749.8" cy="146.1" r="6.7"/>
<circle class="st3" cx="446.9" cy="396" r="7.5"/>
<circle class="st3" cx="446.9" cy="396" r="7.5"/>
<circle class="st3" cx="832.5" cy="346.3" r="6.7"/>
<circle class="st4" cx="294.2" cy="47.3" r="7.5"/>
<circle class="st3" cx="721.5" cy="621.4" r="6.7"/>
<linearGradient id="SVGID_1_" gradientUnits="userSpaceOnUse" x1="484.8852" y1="616.295" x2="600.8155" y2="616.295" gradientTransform="matrix(1 0 0 1 -180.4 -124.46)">
	<stop  offset="0" style="stop-color:#808080;stop-opacity:0.25"/>
	<stop  offset="0.54" style="stop-color:#808080;stop-opacity:0.12"/>
	<stop  offset="1" style="stop-color:#808080;stop-opacity:0.1"/>
</linearGradient>
<path class="st5" d="M306.7,381.5c-3.9,12.8,2,27.9,13.5,34.6c4.8,2.8,10.4,4.2,15.1,7.3c10.2,6.6,14.2,19.4,17.5,31
	c3.8,13.5,7.6,27.7,4.1,41.2c-2.2,8.6-7.3,16.3-10.1,24.7c-2.4,7.1-3.2,14.6-2.5,22c0.4,3.9,1.4,8,4.1,10.9
	c3.9,4.2,10.2,4.8,15.8,5.8c24.2,4.6,44.7,20.5,55.2,42.8"/>
<path class="st6" d="M307.9,381.5c-3.9,12.8,2,27.9,13.5,34.6c4.8,2.8,10.4,4.2,15.1,7.3c10.2,6.6,14.2,19.4,17.5,31
	c3.8,13.5,7.6,27.7,4.1,41.2c-2.2,8.6-7.3,16.3-10.1,24.7c-2.4,7.1-3.2,14.6-2.5,22c0.4,3.9,1.4,8,4.1,10.9
	c3.9,4.2,10.2,4.8,15.8,5.8c24.2,4.6,44.7,20.5,55.2,42.8"/>
<linearGradient id="SVGID_2_" gradientUnits="userSpaceOnUse" x1="615.7535" y1="568.7178" x2="651.4966" y2="568.7178" gradientTransform="matrix(1 0 0 1 -180.4 -124.46)">
	<stop  offset="0" style="stop-color:#808080;stop-opacity:0.25"/>
	<stop  offset="0.54" style="stop-color:#808080;stop-opacity:0.12"/>
	<stop  offset="1" style="stop-color:#808080;stop-opacity:0.1"/>
</linearGradient>
<path class="st7" d="M457,285.9c-9.7,13.5-19.8,28.1-20.6,44.8c-1.3,25.6,19.2,46.5,28.3,70.5c8,21.3,7,45-2.8,65.5
	c-4.5,9.2-10.8,18.4-10,28.6c0.5,6.2,3.6,11.9,6.1,17.6c12.5,29.1,10.3,62.5-5.8,89.8"/>
<path class="st6" d="M458.2,285.9c-9.7,13.6-19.8,28.1-20.6,44.8c-1.3,25.6,19.2,46.5,28.3,70.5c8,21.3,7,45-2.8,65.5
	c-4.5,9.2-10.8,18.4-10,28.6c0.5,6.2,3.6,11.9,6.1,17.6c12.5,29.1,10.3,62.5-5.8,89.8"/>
<linearGradient id="SVGID_3_" gradientUnits="userSpaceOnUse" x1="745.48" y1="633.5696" x2="780.02" y2="633.5696" gradientTransform="matrix(1 0 0 1 -180.4 -124.46)">
	<stop  offset="0" style="stop-color:#808080;stop-opacity:0.25"/>
	<stop  offset="0.54" style="stop-color:#808080;stop-opacity:0.12"/>
	<stop  offset="1" style="stop-color:#808080;stop-opacity:0.1"/>
</linearGradient>
<path class="st8" d="M593.4,407.8l4.7,38.3c0.6,5.1,1.2,10.6-1.6,15c-2.6,4.1-7.5,6.1-11.2,9.1c-12.4,10-11.3,29.1-7,44.5
	s10.4,31.8,4.5,46.6c-2.5,6.1-6.8,11.2-10,16.9c-5.5,9.8-7.7,21.1-6.2,32.2"/>
<path class="st6" d="M594.6,407.8l4.7,38.3c0.6,5.1,1.2,10.6-1.6,15c-2.6,4.1-7.5,6.1-11.2,9.1c-12.4,10-11.3,29.1-7,44.5
	s10.4,31.8,4.5,46.6c-2.5,6.1-6.8,11.2-10,16.9c-5.5,9.8-7.7,21.1-6.2,32.2"/>
<g class="st0">
	
		<linearGradient id="SVGID_4_" gradientUnits="userSpaceOnUse" x1="634.305" y1="547.85" x2="634.305" y2="133.8976" gradientTransform="matrix(1 0 0 1 -180.4 -124.46)">
		<stop  offset="0" style="stop-color:#808080;stop-opacity:0.25"/>
		<stop  offset="0.54" style="stop-color:#808080;stop-opacity:0.12"/>
		<stop  offset="1" style="stop-color:#808080;stop-opacity:0.1"/>
	</linearGradient>
	<path class="st9" d="M715.3,250.4c0-62.7-50.9-113.6-113.6-113.6c-11.9,0-23.7,1.9-35.1,5.6c0.9-6.4,1.4-12.8,1.5-19.3
		C568.1,60.4,517.3,9.5,454.6,9.4C395,9.4,345.5,55.5,341.3,115c-59.7-19.4-123.8,13.2-143.2,72.9c-3.7,11.3-5.6,23.2-5.6,35.1
		c0,57,42,138,96.7,152.4l8.5,4.9L293,396h27.4l-5.9-15.9l8.5-4.8c42.3-11.1,76.9-62,90.5-110.8c7.4,4.9,15.6,8.7,24.2,11l8.5,4.9
		l-4.5,15.8H469l-6-15.8l8.5-4.8c6.3-1.7,12.3-4.1,18-7.3c7.3,54.8,46.2,121.7,95.4,134.6l8.5,4.9l-4.6,15.8h27.4l-6-15.9l8.5-4.8
		C673.3,388.4,715.3,307.3,715.3,250.4z"/>
</g>
<polygon class="st3" points="324.8,390.1 298.3,390.1 302.9,374.3 318.8,374.3 "/>
<path class="st3" d="M420.7,222.7c0,60.7-49.2,149.6-109.9,149.6S201,283.4,201,222.7c0.6-60.7,50.2-109.4,110.9-108.8
	C371.8,114.5,420.2,162.8,420.7,222.7L420.7,222.7z"/>
<polygon class="st10" points="318.8,374.9 302.9,374.9 293.6,369.6 328.1,369.6 "/>
<path class="st11" d="M271.1,137.3c0,0-46.3,25.1-52.9,75.4"/>
<polygon class="st2" points="468.4,293.6 442,293.6 446.6,277.7 462.5,277.7 "/>
<path class="st12" d="M564.4,126.1c0,60.7-49.2,149.6-109.9,149.6s-109.9-88.9-109.9-149.6c0.6-60.7,50.2-109.4,110.9-108.8
	C515.4,17.9,563.8,66.3,564.4,126.1L564.4,126.1z"/>
<polygon class="st10" points="462.5,278.3 446.6,278.3 437.3,273 471.7,273 "/>
<path class="st11" d="M414.8,40.7c0,0-46.3,25.1-53,75.4"/>
<polygon class="st13" points="610.9,416.7 584.4,416.7 589,400.8 604.9,400.8 "/>
<path class="st13" d="M706.8,249.3c0,60.7-49.2,149.6-109.9,149.6s-109.9-88.9-109.9-149.6c0.6-60.7,50.2-109.4,110.9-108.8
	C657.9,141,706.3,189.4,706.8,249.3z"/>
<polygon class="st10" points="604.9,401.5 589,401.5 579.8,396.2 614.2,396.2 "/>
<path class="st11" d="M557.3,163.9c0,0-46.3,25.1-53,75.4"/>
<g class="st0">
	
		<linearGradient id="SVGID_5_" gradientUnits="userSpaceOnUse" x1="637.0803" y1="624.7952" x2="637.0803" y2="551.316" gradientTransform="matrix(1 0 0 1 -180.4 -124.46)">
		<stop  offset="0" style="stop-color:#808080;stop-opacity:0.25"/>
		<stop  offset="0.54" style="stop-color:#808080;stop-opacity:0.12"/>
		<stop  offset="1" style="stop-color:#808080;stop-opacity:0.1"/>
	</linearGradient>
	<path class="st14" d="M516.4,435.4c-6.4-6.4-15.7-8.9-26.2-7.2c-9.8,1.7-19.6,7-27.7,15c-2.3,2.3-4.3,5-5.8,7.9
		c-1.5-3-3.4-5.8-5.7-8.2l0,0c-7.9-8.1-17.6-13.6-27.5-15.4c-10.5-2-19.8,0.4-26.3,6.7s-9.1,15.5-7.5,26c1.5,9.8,6.7,19.8,14.6,27.9
		c16.6,17.1,49.7,10.4,51.1,10.1l0.4-0.1l1.3,0.3c1.4,0.3,34.4,7.6,51.2-9.2c8-8,13.4-17.8,15.1-27.6
		C525.3,451.1,522.8,441.8,516.4,435.4z M449.9,488.4c-8,1.1-27.9,2.5-37.8-7.7c-6.4-6.6-10.5-14.4-11.7-22.1
		c-1.1-7,0.5-13,4.4-16.8c1.5-1.5,3.4-2.6,5.4-3.3c3.7-1.2,7.7-1.4,11.5-0.6c7.6,1.4,15.4,5.8,21.7,12.4
		C453.3,460.5,451.2,480.5,449.9,488.4L449.9,488.4z M513,459.8c-1.3,7.7-5.6,15.4-12.1,21.9c-10.1,10-30,8.2-38,7
		c-1.2-8-2.9-27.9,7.1-37.9c6.5-6.5,14.3-10.7,21.9-12c3.8-0.8,7.8-0.5,11.5,0.8c2,0.7,3.8,1.9,5.3,3.4
		C512.7,446.8,514.2,452.8,513,459.8L513,459.8z"/>
</g>
<path class="st15" d="M458.7,496.1l-3.1,0.7c-1.3,0.3-33,6.7-48.9-9.7c-7.5-7.8-12.5-17.3-14-26.7c-1.6-10.1,1-18.9,7.2-24.9
	s15.1-8.3,25.1-6.4c9.4,1.8,18.7,7,26.2,14.8l0,0c15.9,16.4,8.5,47.8,8.2,49.1L458.7,496.1z M412.2,439.6c-1.9,0.7-3.7,1.7-5.2,3.2
	c-3.8,3.6-5.3,9.4-4.2,16.1c1.1,7.4,5.1,14.9,11.2,21.1c9.5,9.8,28.5,8.4,36.2,7.3c1.3-7.6,3.3-26.6-6.2-36.4l0,0
	c-6.1-6.3-13.5-10.5-20.8-11.9C419.5,438.3,415.7,438.5,412.2,439.6z"/>
<path class="st15" d="M454,496.3l-0.7-3.1c-0.3-1.3-7.1-32.9,9-49l0,0c7.7-7.6,17.1-12.7,26.5-14.3c10-1.7,18.9,0.7,25,6.9
	c6.1,6.1,8.5,15,6.8,25c-1.6,9.4-6.7,18.8-14.4,26.4c-16.1,16.1-47.7,9.1-49,8.9L454,496.3z M501.5,440.5c-3.5-1.2-7.3-1.5-11-0.8
	c-7.3,1.2-14.8,5.3-21,11.5l0,0c-9.6,9.6-8,28.6-6.8,36.3c7.6,1.2,26.7,2.9,36.3-6.7c6.2-6.2,10.3-13.6,11.6-21
	c1.1-6.7-0.2-12.4-4-16.1C505.2,442.3,503.4,441.2,501.5,440.5L501.5,440.5z"/>
<g class="st0">
	
		<linearGradient id="SVGID_6_" gradientUnits="userSpaceOnUse" x1="454.925" y1="765.08" x2="454.925" y2="525.86" gradientTransform="matrix(1 0 0 1 0 -38)">
		<stop  offset="0" style="stop-color:#808080;stop-opacity:0.25"/>
		<stop  offset="0.54" style="stop-color:#808080;stop-opacity:0.12"/>
		<stop  offset="1" style="stop-color:#808080;stop-opacity:0.1"/>
	</linearGradient>
	<polygon class="st16" points="608.4,487.9 301.4,487.9 301.4,549.3 317.4,549.3 317.4,727.1 592.5,727.1 592.5,549.3 608.4,549.3 	
		"/>
</g>
<rect x="320.9" y="506.4" class="st10" width="268.1" height="217.6"/>
<rect x="429.7" y="545.3" class="st15" width="50.5" height="178.8"/>
<rect x="305.3" y="490.9" class="st10" width="299.2" height="54.4"/>
<rect x="429.7" y="490.9" class="st15" width="50.5" height="54.4"/>
</svg>
