<svg id="Capa_1" data-name="Capa 1" xmlns="http://www.w3.org/2000/svg" viewBox="0 0 1330 552.77"><defs><style>.cls-1{fill:#ffb9b9;}.cls-2{fill:#2f2e41;}.cls-3{opacity:0.1;isolation:isolate;}.cls-4{fill:#575a89;}.cls-5{fill:#fbb428;}.cls-6{fill:#3f3d56;}.cls-7{fill:#f4f0e9;}.cls-8{fill:#f2f2f2;}.cls-9{fill:#f9fafa;}.cls-10{fill:#01273e;}</style></defs><title>icon-login</title><polygon class="cls-1" points="1220.41 509.28 1254.97 523.5 1265.15 477.76 1234.65 479.8 1220.41 509.28"/><polygon class="cls-2" points="911.39 456.42 974.43 487.94 1040.49 401.52 1138.07 467.6 1147.23 453.36 1066.93 356.8 1026.27 325.28 955.11 394.42 911.39 456.42"/><polygon class="cls-3" points="911.39 456.42 974.43 487.94 1040.49 401.52 1138.07 467.6 1147.23 453.36 1066.93 356.8 1026.27 325.28 955.11 394.42 911.39 456.42"/><path class="cls-1" d="M992.49,511.11l39.64-3.06,33.54-8.09c32.54-1,32.54,27.5,32.54,27.5l-34.56-7.12-17.28,7.12-74.22,25.41-9.14-7Z" transform="translate(-14 -105.67)"/><polygon class="cls-2" points="930.71 453.36 1075.05 405.6 1239.73 477.76 1234.65 516.4 1054.73 483.86 931.73 529.6 905.29 529.6 882.93 515.38 930.71 453.36"/><path class="cls-1" d="M1024,424.85l2-17.28L1004.61,374S969,355.8,988.33,344.55s31.52,16.26,31.52,16.26l42.7,55.92h0a20.52,20.52,0,0,1-2.78,22.55l-3.24,3.87-15.26-3Z" transform="translate(-14 -105.67)"/><circle class="cls-1" cx="930.71" cy="228.72" r="39.64"/><path class="cls-1" d="M914.76,353.16c0,1-14.23,35.59-14.23,35.59l43.68,18.3,18.28-43.68S914.76,352.12,914.76,353.16Z" transform="translate(-14 -105.67)"/><path class="cls-4" d="M856.27,413.72,893,383.19l10.63-1.75,25.89,13.95,18,3.77,29.74-2.69,5.09-2,16.18,9.14,4.06-2,5.08,4.08,17.28,2L1042.29,431l4.08,11.2-19.32,3-57.94,32.52L953.85,554l-4.33,7.27-13.95,23.23-16.28,26.44-22.36,16.26L885.75,641.4l-15.24-4.06-14.24-65.06-3-9.16a227.51,227.51,0,0,1,3-149.4Z" transform="translate(-14 -105.67)"/><path class="cls-2" d="M1256.4,622.71s13.12,26.94,26.21,34.87,36.21-41.82,36.21-41.82,25.94-10.7,25.16-55.4-35.33,6.7-35.33,6.7l-24,7.92s-16.33,7.2-20.18,9,5.26,17.23,5.26,17.23C1280,610,1256.4,622.71,1256.4,622.71Z" transform="translate(-14 -105.67)"/><polygon class="cls-3" points="917.49 329.36 949.01 387.3 952.05 387.3 939.86 448.28 935.52 455.54 877.85 403.56 839.23 378.14 917.49 329.36"/><polygon class="cls-4" points="839.23 372.04 877.85 397.46 939.86 453.36 983.57 405.6 967.31 401.52 960.19 381.2 949.01 381.2 917.49 323.26 839.23 372.04"/><path class="cls-2" d="M976.18,308.45c-3.61-1.39-6.95-3.61-10.53-5.09,4,8.18-.63,8.59-7.9,10.38C947.19,316.36,940,325,932,332l-6.83,6c-1.26,1.12-2.52,2.23-3.67,3.46-6.86,7.2-9.23,17.35-11.33,27.06-7.25-16.25-25.16-44-23.15-43.85-1.52-2.69-1.77-6.59-.36-5.92-1-1.85-.4-5.15.88-5-2-3.57.29-7.29.9-5,1.3-6.92,5-16.71,5.54-14.69,1.6-2.46,5.55-4.87,5.9-3.62a59.82,59.82,0,0,1,89.49,7.2l-7.94.37v.11l0,0a6,6,0,0,1-1.64,8.28l-4.29-1.62A35.45,35.45,0,0,0,976.18,308.45Z" transform="translate(-14 -105.67)"/><circle class="cls-1" cx="910.89" cy="233.3" r="7.12"/><rect class="cls-5" x="1076.33" y="73.36" width="34.4" height="34.4"/><path class="cls-6" d="M1069.44,152h41.78v41.76h-41.78Zm39.94,1.81h-38.16V192h38.16Z" transform="translate(-14 -105.67)"/><rect class="cls-5" x="1248.11" y="289.38" width="34.4" height="34.4" transform="translate(609.02 1333.36) rotate(-74.06)"/><path class="cls-6" d="M1212.33,331.06l11.47-40.16L1264,302.37l-11.47,40.16Zm12.7-37.88-10.49,36.68,36.7,10.5,10.47-36.66Z" transform="translate(-14 -105.67)"/><rect class="cls-5" x="1236.24" y="122.81" width="34.4" height="34.4" transform="translate(228.03 787.85) rotate(-43.06)"/><path class="cls-6" d="M1247.13,198.09l-28.52-30.51,30.51-28.53,28.53,30.52Zm-26-30.43,26,27.86,27.88-26-26-27.87Z" transform="translate(-14 -105.67)"/><path class="cls-6" d="M83.06,112.19a21.62,21.62,0,0,0-21.62,21.62V571.68a21.64,21.64,0,0,0,21.62,21.64H868.73a21.63,21.63,0,0,0,21.55-21.72V133.81h0a21.6,21.6,0,0,0-21.61-21.55h-321v-6.59H402.74v6.59H83.06Z" transform="translate(-14 -105.67)"/><rect class="cls-7" x="76.43" y="44.8" width="770.87" height="434.85"/><circle class="cls-5" cx="462.52" cy="25.03" r="7.91"/><polygon class="cls-3" points="847.29 44.8 847.29 479.65 296.88 479.65 847.29 44.8"/><circle class="cls-8" cx="726.63" cy="373.05" r="74.1"/><path class="cls-6" d="M632,442.15h0a92.23,92.23,0,1,1,92.22,92.22A92.22,92.22,0,0,1,632,442.15Zm92.22-90.92h0a91,91,0,0,0-90.95,91v0a91,91,0,1,0,91-91Z" transform="translate(-14 -105.67)"/><rect class="cls-6" x="210.66" y="279.31" width="72" height="15.05"/><rect class="cls-6" x="123.6" y="162.17" width="246.11" height="6.46"/><rect class="cls-6" x="123.6" y="182.59" width="246.11" height="6.46"/><rect class="cls-6" x="123.6" y="203.01" width="246.11" height="6.46"/><rect class="cls-6" x="123.6" y="223.43" width="246.11" height="6.46"/><rect class="cls-6" x="123.6" y="243.85" width="246.11" height="6.46"/><rect class="cls-8" x="123.6" y="53.62" width="30.09" height="30.09"/><path class="cls-6" d="M123.62,166.81h36.55v36.57H123.62Zm35,1.59H125.22v33.36h33.36Z" transform="translate(-14 -105.67)"/><path class="cls-6" d="M14,603.2v11.67a25.88,25.88,0,0,0,25.77,25.8H897.44a25.79,25.79,0,0,0,25.77-25.8V603.2h0a25.79,25.79,0,0,0-25.79-25.79H848V572h0a1.1,1.1,0,0,0-1.09-1.07H821.18a1.07,1.07,0,0,0-1.07,1.07v5.42H803.93V572h0a1.08,1.08,0,0,0-1.07-1.07H777.14a1.1,1.1,0,0,0-1.09,1.07v5.42H759.87V572h0a1.08,1.08,0,0,0-1.08-1.07H733.05A1.07,1.07,0,0,0,732,572v5.42H715.8V572h0a1.07,1.07,0,0,0-1.07-1.07H689.15a1.09,1.09,0,0,0-1.08,1.07v5.42H671.89V572h0a1.08,1.08,0,0,0-1.07-1.07H644.93a1.09,1.09,0,0,0-1.07,1.07v5.42H627.69V572h0a1.1,1.1,0,0,0-1.09-1.07H600.79a1.09,1.09,0,0,0-1.08,1.07v5.42h-16.1V572h0a1.08,1.08,0,0,0-1.07-1.07H380.73a1.09,1.09,0,0,0-1.08,1.07v5.42H363.47V572h0a1.08,1.08,0,0,0-1.07-1.07H336.51a1.09,1.09,0,0,0-1.07,1.07v5.42H319.27V572h0a1.1,1.1,0,0,0-1.09-1.07H292.67A1.07,1.07,0,0,0,291.6,572v5.42H275.42V572h0a1.08,1.08,0,0,0-1.07-1.07H248.56a1.08,1.08,0,0,0-1.08,1.07v5.42H231.3V572h0a1.1,1.1,0,0,0-1.09-1.07H204.42a1.07,1.07,0,0,0-1.07,1.07v5.42H187.17V572h0a1.07,1.07,0,0,0-1.07-1.07H160.31a1.09,1.09,0,0,0-1.08,1.07v5.42H143.05V572h0a1.08,1.08,0,0,0-1.07-1.07H116.09A1.08,1.08,0,0,0,115,572v5.42H39.79A25.79,25.79,0,0,0,14,603.2Z" transform="translate(-14 -105.67)"/><path class="cls-9" d="M184.86,180.75c-4.56,3.88-4.66,5.59-.44,9.8Zm104.46,56.09a3.81,3.81,0,0,0-.59-4.46c-4.24-4.34-8.49-8.69-12.94-12.85a4.19,4.19,0,0,0-5.91,5.84c4.28,4.51,8.79,8.82,13.27,13.14a5.22,5.22,0,0,0,2,.79A4.18,4.18,0,0,0,289.32,236.84ZM268.9,254.93a4,4,0,0,0,4.61-2.17,3.65,3.65,0,0,0-.45-4.45c-4.26-4.35-8.53-8.7-12.95-12.86l-.09-.09a3.85,3.85,0,0,0-5.44.25c-.13.09-.25.19-.37.29a3.65,3.65,0,0,0-.21,5.15c4.25,4.53,8.73,8.86,13.2,13.2a3.85,3.85,0,0,0,1.78.68Zm24.27-23.53a4.07,4.07,0,0,0,4.12-2.28,3.76,3.76,0,0,0-.39-4.49c-4.35-4.45-8.73-8.89-13.28-13.14a3.68,3.68,0,0,0-5.16.34c-1.41,1.26-2.18,3.17-1,4.69a90.41,90.41,0,0,0,14.69,14.64,1.91,1.91,0,0,0,1.12.24Zm-27.7-4.93a4.75,4.75,0,0,0-3.74,2.17,3.53,3.53,0,0,0,.16,4.45c4.32,4.5,8.71,8.93,13.24,13.18a2.09,2.09,0,0,0,.22.2,3.73,3.73,0,0,0,5.26-.52,3.47,3.47,0,0,0,.29-.25,3.69,3.69,0,0,0,.1-5.22c-4.29-4.51-8.77-8.85-13.24-13.18a6,6,0,0,0-2.21-.83Z" transform="translate(-14 -105.67)"/><path class="cls-5" d="M339.39,187.51v.23c-.4.32-.84.61-1.24.95Z" transform="translate(-14 -105.67)"/><path class="cls-10" d="M283.18,238.51c-4.48-4.32-9-8.63-13.26-13.14a4.19,4.19,0,0,1,5.9-5.84c4.42,4.16,8.67,8.51,12.95,12.85a3.81,3.81,0,0,1,.58,4.46,4.18,4.18,0,0,1-4.19,2.46A5.25,5.25,0,0,1,283.18,238.51Z" transform="translate(-14 -105.67)"/><path class="cls-10" d="M267.1,254.25c-4.46-4.34-9-8.67-13.2-13.2a4.57,4.57,0,0,1-.29-.36,3.65,3.65,0,0,1,.87-5.08l.09-.09a3.84,3.84,0,0,1,5.44-.07c4.44,4.16,8.71,8.51,12.95,12.86a3.64,3.64,0,0,1,.45,4.45,4,4,0,0,1-4.51,2.17A3.88,3.88,0,0,1,267.1,254.25Z" transform="translate(-14 -105.67)"/><path class="cls-10" d="M292.05,231.16a90.41,90.41,0,0,1-14.69-14.64c-1.17-1.46-.39-3.43,1-4.69a3.68,3.68,0,0,1,5.16-.34c4.55,4.25,8.93,8.69,13.28,13.14a3.76,3.76,0,0,1,.39,4.49,4.06,4.06,0,0,1-4,2.28C292.88,231.34,292.29,231.4,292.05,231.16Z" transform="translate(-14 -105.67)"/><path class="cls-10" d="M267.68,227.3c4.47,4.33,8.95,8.67,13.24,13.18a3.47,3.47,0,0,1,.25.29,3.69,3.69,0,0,1-.64,5.18c-.06.08-.13.15-.2.23a3.73,3.73,0,0,1-5.28.09c-4.53-4.25-8.92-8.68-13.24-13.18a3.53,3.53,0,0,1-.16-4.45,4.72,4.72,0,0,1,3.82-2.17A6,6,0,0,1,267.68,227.3Z" transform="translate(-14 -105.67)"/><path class="cls-5" d="M335.41,179.69l.28-.22-.65.6Z" transform="translate(-14 -105.67)"/><path class="cls-5" d="M334.88,180.24a1,1,0,0,1-.34.34Z" transform="translate(-14 -105.67)"/><path class="cls-10" d="M212.83,210.92a10.42,10.42,0,0,0,1.36.63A5,5,0,0,1,212.83,210.92Z" transform="translate(-14 -105.67)"/><path class="cls-10" d="M177.71,183.37a2.49,2.49,0,0,1,2.39-2.56h66.44a15.29,15.29,0,0,1,5.51,1,9.68,9.68,0,0,1,3.08,1.62c4.9,4.45,9.61,9.14,14.24,13.9a3.9,3.9,0,0,1,.17,5.27,3.55,3.55,0,0,1-.52.64,4,4,0,0,1-5.61,0c-2.39-2.1-4.59-4.43-6.86-6.68-4.16-4.14-4.22-4.14-8.23-.16l-21,20.9c-3.72,3.72-7.18,4.93-10.76,3.62h0a11.65,11.65,0,0,1-1.34-.63,16.68,16.68,0,0,1-3.87-3l-19.77-19.65L178.4,185A2.48,2.48,0,0,1,177.71,183.37Z" transform="translate(-14 -105.67)"/><path class="cls-5" d="M224.37,224c7.72-7.88,15.47-15.72,23-23.38l3.65-4.09.09-.08a1.24,1.24,0,0,1,1.76.08l5.18,5.34c.9.78,1.66,1.6,2.52,2.39,3.59,3.37,7.38,3.74,10.44.78s2.8-7.07-.81-10.69c-2.61-2.58-5.37-5.12-7.83-7.43a9.51,9.51,0,0,1,4.07-4,17.85,17.85,0,0,1,8.55-2.15h69.31a1.57,1.57,0,0,1,.94,2.7l-35.9,34a11.89,11.89,0,0,1-1.22,1h0c-5,4.12-9.7,3.75-14.56-1-2.38-2.37-4.85-4.79-7.13-7.06s-5.73-3.85-7.77-1.62c-3.95,4.19-8.8,7.43-12,12.28-.53.8-.06,2.29-1.31,2.53a8.08,8.08,0,0,0-7.15,7.13c-.21,1.22-1.65,1-2.54,1.3-5.57,2.05-7,7.38-2.88,11.68A70.39,70.39,0,0,0,259,249c-3.36,3.07-5,7.34-9.49,5.69s-2-5.42-1-9.16c-3.12.73-5.63,2.84-8.22.54-2.91-2.57.26-5.39-.39-8.3-2.68.68-5,2.89-7.72.26s.7-5.42-.29-7.95c-1.23-.29-1.84.45-2.6.81a3.94,3.94,0,0,1-5.39-1.33A4.11,4.11,0,0,1,224.37,224Z" transform="translate(-14 -105.67)"/></svg>