<svg id="Capa_1" data-name="Capa 1" xmlns="http://www.w3.org/2000/svg" xmlns:xlink="http://www.w3.org/1999/xlink" viewBox="0 0 1366 768"><defs><style>.cls-1{fill:none;}.cls-2{clip-path:url(#clip-path);}.cls-3,.cls-4{fill:#fbb428;}.cls-4{opacity:0.69;}.cls-5{fill:#ffb9b9;}.cls-6{fill:#2f2e41;}.cls-7{opacity:0.1;isolation:isolate;}.cls-8{fill:#575a89;}.cls-9{fill:#3f3d56;}.cls-10{fill:#f4f0e9;}.cls-11{fill:#f2f2f2;}.cls-12{fill:#f9fafa;}.cls-13{fill:#01273e;}</style><clipPath id="clip-path"><rect class="cls-1" x="-0.94" y="-7" width="820.94" height="775"/></clipPath></defs><title>login3</title><g class="cls-2"><path class="cls-3" d="M493.56,598.58c658.15,193.21-118.07,296.48-274.68,296.48S-64.68,764.12-64.68,602.59c0-305.73,1.79-602.74,61-603.83,25.69-.47,24.36-55.94,34.41-50.37,22,12.18,104,108.48,112.54,149.86,4.57,22,6,56-26,105.41-37.73,58.38-7.44,108.38,30,158C176.54,400.39,348.69,425,286,492.13,139.53,649,349.28,556.23,493.56,598.58Z"/><path class="cls-4" d="M536.09,660.25C1194.44,852.79,418.32,956.84,261.71,957S-22,826.34-22.14,664.81C-22.45,359.08-21,62.08,38.29,60.92c25.69-.5,24.3-56,34.35-50.4,22,12.16,104.07,108.37,112.69,149.75,4.6,22,6,56-25.86,105.43-37.68,58.42-7.34,108.39,30.12,157.94C218.87,462.37,391.05,486.85,328.45,554,182.11,711,391.77,618,536.09,660.25Z"/></g><polygon class="cls-5" points="524.92 478.15 506.07 476.89 512.36 505.16 533.72 496.37 524.92 478.15"/><polygon class="cls-6" points="697.69 425.38 653.71 382.65 628.58 402.13 578.95 461.81 584.61 470.61 644.92 429.77 685.75 483.18 724.71 463.7 697.69 425.38"/><polygon class="cls-7" points="697.69 425.38 653.71 382.65 628.58 402.13 578.95 461.81 584.61 470.61 644.92 429.77 685.75 483.18 724.71 463.7 697.69 425.38"/><path class="cls-5" d="M701.46,453.65,695.81,458l-45.87-15.7-10.68-4.4-21.36,4.4s0-17.59,20.11-17l20.73,5,24.5,1.89Z"/><polygon class="cls-6" points="742.3 500.14 728.48 508.93 712.14 508.93 636.12 480.66 524.92 500.77 521.78 476.89 623.56 432.29 712.77 461.81 742.3 500.14"/><path class="cls-5" d="M653.09,388.31l-9.43,1.88-2-2.39a12.69,12.69,0,0,1-1.72-13.94h0l26.39-34.56s7.54-17,19.48-10.05-10.06,18.22-10.06,18.22L662.51,368.2l1.26,10.68Z"/><circle class="cls-5" cx="712.77" cy="322.97" r="24.5"/><path class="cls-5" d="M701.78,340.88l11.3,27,27-11.31s-8.8-21.36-8.8-22S701.78,340.88,701.78,340.88Z"/><path class="cls-8" d="M776.17,420.8a140.6,140.6,0,0,1-6.91,43.54L767.43,470l-8.8,40.21-9.42,2.51-6.91-8.79-13.82-10.05-10.06-16.34-8.62-14.36-2.68-4.49-9.43-47.12-35.81-20.1-11.94-1.88,2.52-6.92,10.68-14.45L673.82,367l3.14-2.52,2.51,1.26,10-5.65,3.15,1.25L711,363l11.15-2.33,16-8.62,6.57,1.08L767.43,372A140.77,140.77,0,0,1,776.17,420.8Z"/><path class="cls-6" d="M511.86,487.88s5.63-9.54,3.25-10.65-12.47-5.56-12.47-5.56l-14.8-4.9S466.48,435,466,462.63s15.55,34.24,15.55,34.24,14.29,30.75,22.38,25.85,16.2-21.55,16.2-21.55S505.54,493.32,511.86,487.88Z"/><polygon class="cls-7" points="769.31 415.32 745.44 431.03 709.8 463.16 707.12 458.67 699.58 420.98 701.46 420.98 720.94 385.17 769.31 415.32"/><polygon class="cls-8" points="720.94 381.4 701.46 417.21 694.55 417.21 690.15 429.77 680.1 432.29 707.12 461.81 745.44 427.26 769.31 411.55 720.94 381.4"/><path class="cls-6" d="M693.71,304.75l-2.65,1a3.69,3.69,0,0,1-1-5.14l0-.07-4.91-.23a37,37,0,0,1,55.31-4.45c.22-.77,2.66.72,3.65,2.24.33-1.25,2.62,4.8,3.42,9.08.38-1.43,1.82.87.56,3.08.79-.12,1.15,1.92.54,3.06.87-.41.72,2-.22,3.66,1.24-.11-9.83,17.06-14.31,27.1-1.3-6-2.76-12.27-7-16.72-.71-.76-1.49-1.45-2.27-2.14l-4.22-3.72c-4.9-4.33-9.37-9.67-15.9-11.29-4.49-1.11-7.33-1.36-4.88-6.42-2.21.92-4.28,2.29-6.51,3.15A20.93,20.93,0,0,0,693.71,304.75Z"/><circle class="cls-5" cx="725.02" cy="325.8" r="4.4"/><rect class="cls-3" x="601.51" y="226.95" width="21.26" height="21.26"/><path class="cls-9" d="M635.68,236.06H609.86V210.25h25.82ZM611,234.94h23.58V211.37H611Z"/><rect class="cls-3" x="503.99" y="295.18" width="21.26" height="21.26" transform="translate(-64.19 153.06) rotate(-15.94)"/><path class="cls-9" d="M522.55,328l-7.09-24.82,24.82-7.09,7.09,24.82Zm-5.7-24,6.47,22.66L546,320.17l-6.48-22.67Z"/><rect class="cls-3" x="511.34" y="192.23" width="21.26" height="21.26" transform="translate(17.36 445.7) rotate(-46.94)"/><path class="cls-9" d="M507,221.1l17.63-18.86,18.86,17.63-17.63,18.86Zm17.68-17.28-16.1,17.23,17.23,16.09,16.09-17.22Z"/><path class="cls-9" d="M1245.32,185.68H1047.74v-4.07H958.16v4.07H759.77A13.36,13.36,0,0,0,746.41,199h0V469.58A13.37,13.37,0,0,0,759.77,483h485.55a13.37,13.37,0,0,0,13.36-13.37V199a13.36,13.36,0,0,0-13.36-13.36Z"/><rect class="cls-10" x="764.32" y="209.3" width="476.44" height="268.76"/><circle class="cls-3" cx="1002.14" cy="197.08" r="4.89"/><polygon class="cls-7" points="1104.51 478.06 764.33 478.06 764.33 209.3 1104.51 478.06"/><circle class="cls-11" cx="838.87" cy="412.15" r="45.8" transform="translate(297.67 1174.17) rotate(-80.78)"/><path class="cls-9" d="M849.07,446.57a57,57,0,1,1,57-57A57,57,0,0,1,849.07,446.57Zm0-113.19a56.23,56.23,0,1,0,56.22,56.23,56.22,56.22,0,0,0-56.22-56.23Z"/><rect class="cls-9" x="1113.3" y="354.24" width="44.5" height="9.3"/><rect class="cls-9" x="1059.5" y="281.84" width="152.11" height="3.99"/><rect class="cls-9" x="1059.5" y="294.46" width="152.11" height="3.99"/><rect class="cls-9" x="1059.5" y="307.08" width="152.11" height="3.99"/><rect class="cls-9" x="1059.5" y="319.7" width="152.11" height="3.99"/><rect class="cls-9" x="1059.5" y="332.32" width="152.11" height="3.99"/><rect class="cls-11" x="1193.01" y="214.75" width="18.6" height="18.6"/><path class="cls-9" d="M1220.25,242h-22.59V219.4h22.59Zm-21.61-1h20.62V220.38h-20.62Z"/><path class="cls-9" d="M1272.06,473.17h-46.5v-3.35a.67.67,0,0,0-.66-.66h-16a.67.67,0,0,0-.66.66h0v3.35h-10v-3.35a.67.67,0,0,0-.67-.66h-15.94a.66.66,0,0,0-.66.66h0v3.35h-10v-3.35a.66.66,0,0,0-.66-.66h-15.94a.67.67,0,0,0-.67.66h0v3.35h-10v-3.35a.67.67,0,0,0-.67-.66h-15.94a.67.67,0,0,0-.66.66h0v3.35h-10v-3.35a.66.66,0,0,0-.66-.66H1100a.67.67,0,0,0-.67.66h0v3.35h-10v-3.35a.67.67,0,0,0-.66-.66h-16a.67.67,0,0,0-.66.66h0v3.35h-10v-3.35a.67.67,0,0,0-.67-.66H936.61a.67.67,0,0,0-.66.66h0v3.35H926v-3.35a.67.67,0,0,0-.67-.66H909.38a.67.67,0,0,0-.67.66h0v3.35h-10v-3.35a.67.67,0,0,0-.66-.66h-16a.67.67,0,0,0-.66.66h0v3.35h-10v-3.35a.67.67,0,0,0-.67-.66H854.91a.66.66,0,0,0-.66.66h0v3.35h-10v-3.35a.66.66,0,0,0-.66-.66H827.68a.67.67,0,0,0-.67.66h0v3.35h-10v-3.35a.67.67,0,0,0-.67-.66H800.44a.67.67,0,0,0-.66.66h0v3.35h-10v-3.35a.66.66,0,0,0-.66-.66H773.21a.67.67,0,0,0-.67.66h0v3.35H742a15.94,15.94,0,0,0-15.94,15.94v7.21A15.94,15.94,0,0,0,742,512.27h530.07A16,16,0,0,0,1288,496.32v-7.21A15.94,15.94,0,0,0,1272.06,473.17Z"/><path class="cls-12" d="M1182.67,234.07c2.61-2.6,2.55-3.66-.27-6.06Zm-62.26,30.13a3.22,3.22,0,0,0,1.24-.49c2.77-2.67,5.56-5.33,8.2-8.12a2.59,2.59,0,0,0-3.65-3.61c-2.75,2.57-5.38,5.26-8,7.94a2.36,2.36,0,0,0-.36,2.76A2.58,2.58,0,0,0,1120.41,264.2Zm10,9.66a2.39,2.39,0,0,0,1.1-.42c2.76-2.68,5.53-5.36,8.16-8.16a2.25,2.25,0,0,0-.36-3.36,2.38,2.38,0,0,0-3.42-.1c-2.73,2.57-5.37,5.26-8,7.95a2.25,2.25,0,0,0-.28,2.75A2.5,2.5,0,0,0,1130.46,273.86Zm-15-14.54c.18,0,.51,0,.69-.15a55.92,55.92,0,0,0,9.08-9.05c.72-.94.24-2.12-.63-2.9a2.28,2.28,0,0,0-3.19-.21c-2.81,2.63-5.52,5.37-8.21,8.12a2.34,2.34,0,0,0-.24,2.78A2.53,2.53,0,0,0,1115.46,259.32Zm17.12-3.05a3.74,3.74,0,0,0-1.37.51c-2.76,2.68-5.53,5.36-8.18,8.15a2.28,2.28,0,0,0,.24,3.38,2.31,2.31,0,0,0,3.39.2c2.8-2.63,5.51-5.37,8.18-8.15a2.18,2.18,0,0,0,.1-2.75A2.93,2.93,0,0,0,1132.58,256.27Z"/><path class="cls-3" d="M1087.66,232.92c-.25-.21-.52-.39-.77-.59v-.14Z"/><path class="cls-13" d="M1120.41,264.2a2.58,2.58,0,0,1-2.59-1.52,2.36,2.36,0,0,1,.36-2.76c2.64-2.68,5.27-5.37,8-7.94a2.59,2.59,0,0,1,3.65,3.61c-2.64,2.79-5.43,5.45-8.2,8.12A3.22,3.22,0,0,1,1120.41,264.2Z"/><path class="cls-13" d="M1130.46,273.86a2.5,2.5,0,0,1-2.79-1.34,2.25,2.25,0,0,1,.28-2.75c2.62-2.69,5.26-5.38,8-7.95a2.38,2.38,0,0,1,3.42.1,2.25,2.25,0,0,1,.36,3.36c-2.63,2.8-5.4,5.48-8.16,8.16A2.39,2.39,0,0,1,1130.46,273.86Z"/><path class="cls-13" d="M1115.46,259.32a2.53,2.53,0,0,1-2.5-1.41,2.34,2.34,0,0,1,.24-2.78c2.69-2.75,5.4-5.49,8.21-8.12a2.28,2.28,0,0,1,3.19.21c.87.78,1.35,2,.63,2.9a55.92,55.92,0,0,1-9.08,9.05C1116,259.32,1115.64,259.28,1115.46,259.32Z"/><path class="cls-13" d="M1132.58,256.27a2.93,2.93,0,0,1,2.36,1.34,2.18,2.18,0,0,1-.1,2.75c-2.67,2.78-5.38,5.52-8.18,8.15a2.31,2.31,0,0,1-3.39-.2,2.28,2.28,0,0,1-.24-3.38c2.65-2.79,5.42-5.47,8.18-8.15A3.74,3.74,0,0,1,1132.58,256.27Z"/><path class="cls-3" d="M1089.58,227.59l-.4-.37.17.14Z"/><path class="cls-3" d="M1089.89,227.91a.7.7,0,0,1-.21-.21Z"/><path class="cls-13" d="M1164.27,247.05a6.31,6.31,0,0,0,.84-.39A3.19,3.19,0,0,1,1164.27,247.05Z"/><path class="cls-13" d="M1186.39,230.64l-8.12,7.82-12.22,12.14a10.23,10.23,0,0,1-2.39,1.84,8.78,8.78,0,0,1-.83.39h0c-2.21.81-4.35.06-6.65-2.24l-13-12.92c-2.48-2.46-2.52-2.46-5.09.1-1.4,1.39-2.76,2.83-4.24,4.13a2.45,2.45,0,0,1-3.79-.37,2.42,2.42,0,0,1,.11-3.26c2.86-2.94,5.77-5.84,8.8-8.59a6.13,6.13,0,0,1,1.9-1,9.46,9.46,0,0,1,3.41-.63h41.06A1.53,1.53,0,0,1,1186.39,230.64Z"/><path class="cls-3" d="M1158.32,258.17a2.44,2.44,0,0,1-3.33.82c-.47-.22-.85-.68-1.61-.5-.61,1.56,1.49,3.28-.18,4.91s-3.11.26-4.77-.16c-.4,1.8,1.56,3.54-.24,5.13-1.6,1.42-3.15.12-5.08-.33.57,2.31,2.15,4.64-.64,5.66s-3.79-1.62-5.87-3.52a43.18,43.18,0,0,0,3.84-3.23c2.52-2.66,1.66-5.95-1.78-7.22-.55-.21-1.44-.05-1.57-.8a5,5,0,0,0-4.42-4.41c-.77-.15-.48-1.07-.81-1.56-2-3-5-5-7.44-7.59-1.26-1.38-3.39-.4-4.8,1s-2.94,2.9-4.41,4.36c-3,2.95-5.92,3.18-9,.63h0a7.25,7.25,0,0,1-.75-.62l-22.19-21a1,1,0,0,1-.26-1,1,1,0,0,1,.84-.67h42.84a11,11,0,0,1,5.28,1.33,5.83,5.83,0,0,1,2.52,2.45c-1.52,1.43-3.23,3-4.84,4.59-2.23,2.24-2.39,4.78-.5,6.61s4.23,1.6,6.45-.48c.53-.49,1-1,1.56-1.48l3.2-3.3a.77.77,0,0,1,1.14,0l2.26,2.53c4.66,4.73,9.45,9.58,14.22,14.45A2.54,2.54,0,0,1,1158.32,258.17Z"/></svg>