<svg id="Capa_1" data-name="Capa 1" xmlns="http://www.w3.org/2000/svg" viewBox="0 0 192.52 85.11"><defs><style>.cls-1{fill:#f9fafa;}.cls-2{fill:#fbb428;}.cls-3{fill:#01273e;}.cls-4{fill:#2f53a1;}</style></defs><title>logo</title><path class="cls-1" d="M989.91,703.24c4.83-4.82,4.72-6.79-.5-11.24ZM874.52,759.07a5.76,5.76,0,0,0,2.3-.91c5.14-4.95,10.3-9.88,15.21-15.06,1.81-1.91,1.42-4.39-.48-6.27s-4.38-2.2-6.3-.4c-5.09,4.75-10,9.74-14.85,14.71a4.35,4.35,0,0,0-.68,5.11C870.54,758,872,759,874.52,759.07ZM893.16,777a4.36,4.36,0,0,0,2-.79c5.11-5,10.24-9.93,15.12-15.12,1.84-2,1.29-4.43-.67-6.23s-4.44-2-6.33-.18c-5.07,4.77-9.95,9.75-14.81,14.74a4.16,4.16,0,0,0-.51,5.1C888.92,776.27,890.37,777.2,893.16,777Zm-27.81-27c.34-.07.95,0,1.29-.28A103,103,0,0,0,883.45,733c1.35-1.74.45-3.92-1.16-5.37-1.8-1.6-4.14-2-5.91-.38-5.21,4.87-10.23,9.94-15.21,15-1.4,1.43-1.31,3.41-.44,5.14A4.66,4.66,0,0,0,865.35,750Zm31.73-5.65c-.71.25-1.89.33-2.53,1-5.13,5-10.26,9.92-15.17,15.1-1.83,1.93-1.45,4.38.45,6.26s4.36,2.19,6.28.38c5.19-4.89,10.22-10,15.16-15.1,1.36-1.42,1.23-3.34.18-5.11C900.51,745.26,899.05,744.65,897.08,744.37Z" transform="translate(-805.15 -691.98)"/><path class="cls-2" d="M813.84,701.11c-.46-.39-1-.73-1.43-1.11v-.26Z" transform="translate(-805.15 -691.98)"/><path class="cls-3" d="M874.52,759.07c-2.49,0-4-1-4.8-2.82a4.35,4.35,0,0,1,.68-5.11c4.89-5,9.76-10,14.85-14.71,1.92-1.8,4.39-1.47,6.3.4s2.29,4.36.48,6.27c-4.91,5.18-10.07,10.11-15.21,15.06A5.76,5.76,0,0,1,874.52,759.07Z" transform="translate(-805.15 -691.98)"/><path class="cls-3" d="M893.16,777c-2.79.23-4.24-.7-5.17-2.48a4.16,4.16,0,0,1,.51-5.1c4.86-5,9.74-10,14.81-14.74,1.89-1.78,4.37-1.62,6.33.18s2.51,4.27.67,6.23c-4.88,5.19-10,10.16-15.12,15.12A4.36,4.36,0,0,1,893.16,777Z" transform="translate(-805.15 -691.98)"/><path class="cls-3" d="M865.35,750a4.66,4.66,0,0,1-4.62-2.61c-.87-1.73-1-3.71.44-5.14,5-5.11,10-10.18,15.21-15,1.77-1.66,4.11-1.22,5.91.38,1.61,1.45,2.51,3.63,1.16,5.37a103,103,0,0,1-16.81,16.77C866.3,750,865.69,750,865.35,750Z" transform="translate(-805.15 -691.98)"/><path class="cls-3" d="M897.08,744.37c2,.28,3.43.89,4.37,2.48,1,1.77,1.18,3.69-.18,5.11-4.94,5.14-10,10.21-15.16,15.1-1.92,1.81-4.37,1.5-6.28-.38s-2.28-4.33-.45-6.26c4.91-5.18,10-10.14,15.17-15.1C895.19,744.7,896.37,744.62,897.08,744.37Z" transform="translate(-805.15 -691.98)"/><path class="cls-2" d="M814.72,701.94l-.74-.7a2.61,2.61,0,0,1,.31.27Z" transform="translate(-805.15 -691.98)"/><path class="cls-2" d="M815.3,702.52a1,1,0,0,1-.39-.39Z" transform="translate(-805.15 -691.98)"/><path class="cls-2" d="M803.86,692" transform="translate(-805.15 -691.98)"/><path class="cls-2" d="M805.34,693.31" transform="translate(-805.15 -691.98)"/><path class="cls-2" d="M886.19,692H812.41l-5.62,0h79.14Z" transform="translate(-805.15 -691.98)"/><path class="cls-3" d="M953.13,738a12.49,12.49,0,0,0,1.55-.71A5.86,5.86,0,0,1,953.13,738Z" transform="translate(-805.15 -691.98)"/><path class="cls-3" d="M996.79,696.88l-15,14.48-22.63,22.51a19.82,19.82,0,0,1-4.43,3.41,12.49,12.49,0,0,1-1.55.71h0c-4.09,1.49-8.06.1-12.33-4.15L916.7,709.91c-4.59-4.57-4.66-4.57-9.43.17-2.6,2.58-5.12,5.25-7.86,7.67-2.3,2-4.93,1.75-7-.7a4.5,4.5,0,0,1,.19-6c5.31-5.44,10.7-10.81,16.32-15.91a11.15,11.15,0,0,1,3.51-1.93,17.74,17.74,0,0,1,6.32-1.17h76.09A2.84,2.84,0,0,1,996.79,696.88Z" transform="translate(-805.15 -691.98)"/><path class="cls-4" d="M950.57,726.56" transform="translate(-805.15 -691.98)"/><path class="cls-3" d="M915.86,693.25" transform="translate(-805.15 -691.98)"/><path class="cls-2" d="M944.78,747.9c-1.5,2.21-3.71,2.65-6.17,1.52-.88-.41-1.58-1.27-3-.93-1.12,2.88,2.77,6.08-.33,9.09s-5.77.49-8.83-.3c-.75,3.35,2.88,6.56-.45,9.51-3,2.64-5.84.23-9.42-.61,1.06,4.29,4,8.6-1.18,10.49s-7-3-10.88-6.53a82.43,82.43,0,0,0,7.11-6c4.67-4.94,3.09-11-3.29-13.39-1-.38-2.67-.09-2.91-1.48-.78-4.75-3.58-7.26-8.19-8.17-1.43-.28-.89-2-1.51-2.9-3.76-5.48-9.36-9.17-13.78-14.05-2.33-2.57-6.29-.74-8.9,1.81s-5.44,5.38-8.16,8.08c-5.52,5.46-11,5.89-16.61,1.17l0,0a12.37,12.37,0,0,1-1.39-1.14l-41.12-38.91a1.84,1.84,0,0,1,1.06-3.17l5.62,0h73.78a20.3,20.3,0,0,1,9.77,2.46,10.74,10.74,0,0,1,4.67,4.55c-2.81,2.65-6,5.49-9,8.5-4.14,4.15-4.43,8.86-.93,12.25s7.85,3,12-.88c1-.91,1.94-1.83,2.9-2.75l5.92-6.12a1.44,1.44,0,0,1,2.12,0l4.18,4.69c8.65,8.77,17.52,17.75,26.36,26.77A4.75,4.75,0,0,1,944.78,747.9Z" transform="translate(-805.15 -691.98)"/><path class="cls-2" d="M912.55,709.61" transform="translate(-805.15 -691.98)"/></svg>