<svg id="Capa_1" data-name="Capa 1" xmlns="http://www.w3.org/2000/svg" viewBox="0 0 192.52 85.11"><defs><style>.cls-1{fill:#fff;}.cls-2{fill:#fbb428;}.cls-3{fill:#01273e;}</style></defs><title>logo2</title><path class="cls-1" d="M651.28,397.81a6,6,0,0,0,2.3-.92c5.14-4.94,10.3-9.88,15.21-15.05,1.81-1.91,1.42-4.4-.49-6.27s-4.37-2.2-6.29-.41c-5.09,4.76-10,9.74-14.85,14.71a4.35,4.35,0,0,0-.68,5.12C647.3,396.77,648.79,397.76,651.28,397.81Zm18.63,17.9a4.54,4.54,0,0,0,2-.79c5.11-5,10.24-9.93,15.11-15.13,1.85-2,1.29-4.42-.66-6.22s-4.44-2-6.33-.18c-5.07,4.77-10,9.74-14.81,14.74a4.14,4.14,0,0,0-.51,5.09C665.68,415,667.13,415.94,669.91,415.71Zm-27.8-27c.33-.06.95,0,1.29-.28a102.57,102.57,0,0,0,16.81-16.77c1.35-1.73.45-3.92-1.17-5.36-1.79-1.6-4.13-2-5.91-.38-5.2,4.86-10.23,9.94-15.21,15-1.39,1.43-1.3,3.41-.43,5.14A4.65,4.65,0,0,0,642.11,388.75Zm31.73-5.64c-.72.25-1.89.33-2.53.95-5.13,4.95-10.26,9.92-15.17,15.09-1.84,1.94-1.46,4.38.45,6.26s4.36,2.2,6.28.39c5.19-4.89,10.21-10,15.15-15.11,1.36-1.41,1.24-3.34.19-5.11C677.27,384,675.81,383.39,673.84,383.11Z" transform="translate(-581.91 -330.71)"/><path class="cls-2" d="M590.6,339.85c-.46-.4-1-.73-1.43-1.11v-.26Z" transform="translate(-581.91 -330.71)"/><path class="cls-1" d="M651.28,397.81c-2.49-.05-4-1-4.8-2.82a4.35,4.35,0,0,1,.68-5.12c4.88-5,9.76-9.95,14.85-14.71,1.92-1.79,4.39-1.47,6.29.41s2.3,4.36.49,6.27c-4.91,5.17-10.07,10.11-15.21,15.05A6,6,0,0,1,651.28,397.81Z" transform="translate(-581.91 -330.71)"/><path class="cls-1" d="M669.91,415.71c-2.78.23-4.23-.7-5.16-2.49a4.14,4.14,0,0,1,.51-5.09c4.86-5,9.74-10,14.81-14.74,1.89-1.78,4.36-1.63,6.33.18s2.51,4.26.66,6.22c-4.87,5.2-10,10.16-15.11,15.13A4.54,4.54,0,0,1,669.91,415.71Z" transform="translate(-581.91 -330.71)"/><path class="cls-1" d="M642.11,388.75a4.65,4.65,0,0,1-4.62-2.61c-.87-1.73-1-3.71.43-5.14,5-5.1,10-10.18,15.21-15,1.78-1.66,4.12-1.22,5.91.38,1.62,1.44,2.52,3.63,1.17,5.36a102.57,102.57,0,0,1-16.81,16.77C643.06,388.75,642.44,388.69,642.11,388.75Z" transform="translate(-581.91 -330.71)"/><path class="cls-1" d="M673.84,383.11c2,.28,3.43.89,4.37,2.47,1,1.77,1.17,3.7-.19,5.11-4.94,5.15-10,10.22-15.15,15.11-1.92,1.81-4.38,1.5-6.28-.39s-2.29-4.32-.45-6.26c4.91-5.17,10-10.14,15.17-15.09C672,383.44,673.12,383.36,673.84,383.11Z" transform="translate(-581.91 -330.71)"/><path class="cls-2" d="M582.09,332" transform="translate(-581.91 -330.71)"/><path class="cls-2" d="M663,330.74H589.17l-5.62,0a.75.75,0,0,1,.21,0h78.93A2.06,2.06,0,0,1,663,330.74Z" transform="translate(-581.91 -330.71)"/><path class="cls-3" d="M729.89,376.73a12.49,12.49,0,0,0,1.55-.71A6.19,6.19,0,0,1,729.89,376.73Z" transform="translate(-581.91 -330.71)"/><path class="cls-1" d="M773.55,335.62l-15,14.48-22.63,22.51a19.82,19.82,0,0,1-4.43,3.41,12.49,12.49,0,0,1-1.55.71h0c-4.09,1.49-8.06.09-12.33-4.16l-24.07-23.94c-4.59-4.56-4.66-4.56-9.43.18-2.6,2.57-5.12,5.25-7.86,7.67-2.3,2-4.93,1.75-7-.7a4.49,4.49,0,0,1,.19-6c5.31-5.44,10.7-10.81,16.32-15.92a11.15,11.15,0,0,1,3.51-1.93,18,18,0,0,1,6.32-1.16h76.09A2.84,2.84,0,0,1,773.55,335.62Z" transform="translate(-581.91 -330.71)"/><path class="cls-2" d="M721.54,386.64c-1.5,2.21-3.71,2.65-6.17,1.51-.88-.4-1.58-1.26-3-.92-1.12,2.88,2.77,6.08-.33,9.09s-5.77.49-8.83-.3c-.75,3.35,2.88,6.56-.45,9.5-3,2.65-5.84.24-9.42-.6,1.06,4.28,4,8.6-1.18,10.48s-7-3-10.88-6.52a80.7,80.7,0,0,0,7.11-6c4.67-4.94,3.09-11-3.29-13.38-1-.38-2.67-.09-2.91-1.48-.78-4.75-3.58-7.27-8.19-8.17-1.43-.29-.89-2-1.51-2.91-3.76-5.47-9.36-9.16-13.78-14-2.33-2.57-6.29-.74-8.9,1.81s-5.44,5.38-8.16,8.08c-5.52,5.46-11,5.89-16.61,1.17a.05.05,0,0,0,0,0,12.37,12.37,0,0,1-1.39-1.14l-41.12-38.92a1.83,1.83,0,0,1,1.06-3.16l5.62,0H663a20.3,20.3,0,0,1,9.77,2.46,10.63,10.63,0,0,1,4.67,4.55c-2.81,2.64-6,5.49-9,8.5-4.14,4.14-4.43,8.86-.93,12.25s7.85,2.95,12-.88l2.9-2.75,5.92-6.12a1.43,1.43,0,0,1,2.12,0l4.18,4.69c8.65,8.77,17.52,17.75,26.36,26.77A4.75,4.75,0,0,1,721.54,386.64Z" transform="translate(-581.91 -330.71)"/><path class="cls-2" d="M689.31,348.34" transform="translate(-581.91 -330.71)"/></svg>