<svg id="Capa_1" data-name="Capa 1" xmlns="http://www.w3.org/2000/svg" viewBox="0 0 299.7 85.14"><defs><style>.cls-1{fill:#fefefe;}.cls-2{fill:#f9fafa;}.cls-3{isolation:isolate;font-size:32.18px;font-family:BodoniSvtyTwoSCITCTT-Book, "Bodoni 72 Smallcaps";}.cls-4{stroke:#000;stroke-miterlimit:10;stroke-width:1.5px;}</style></defs><title>sindicato</title><path class="cls-1" d="M299.7,52.8c-2.8,2-6,1.2-9,1.2H12.2a40.07,40.07,0,0,0-6,.1c43.7-.3,87.4-.1,131.1-.1q76.95-.15,154,0c2.8,0,5.8-.7,8.4,1.2" transform="translate(0 -7.06)"/><path class="cls-2" d="M299.7,52.8V54c-1.9,1.1-4.1.6-6.1.6H6.1c-2,0-4.1.5-6.1-.5,1.3-2.8,3.7-1.2,5.5-1.2" transform="translate(0 -7.06)"/><path d="M0,54.1H299.6v1.2l-154.9.1Q75.4,55.4,6,55.3C4.1,55.3,1.5,56.7,0,54.1Z" transform="translate(0 -7.06)"/><path d="M202.4,46.5Z" transform="translate(0 -7.06)"/><text class="cls-3" transform="translate(0 76.71)">Trabajadores Duoc UC</text><path class="cls-4" d="M26.71,16.81c-.88-3.39-2.35-6.73-7.27-6.73-4.08,0-5.5,2.93-5.5,5.6,0,3.55,2.31,5.35,6.65,7.56,6.28,3.19,9,5.56,9,10.45,0,5.4-4.76,9.51-11.51,9.51a22,22,0,0,1-8-1.7,67.23,67.23,0,0,1-1.41-7.71l1.62-.41c1.05,3.44,3.35,7.92,8.79,7.92a5.71,5.71,0,0,0,6.08-5.92c0-4-2.15-5.55-6.76-8C12.9,24.43,9.81,22,9.81,17.17c0-4.57,3.87-8.89,10.78-8.89a34.64,34.64,0,0,1,6.91,1c.21,1.86.42,3.91.84,7.26Z" transform="translate(0 -7.06)"/><path class="cls-4" d="M34.1,42.43V41c4.29-.46,4.71-.67,4.71-5V15.53c0-4.42-.42-4.63-4.71-5.09V9h14v1.44c-4.34.46-4.76.67-4.76,5.09V36c0,4.42.42,4.58,4.76,5v1.44Z" transform="translate(0 -7.06)"/><path class="cls-4" d="M89.57,10.44c-3.34.36-4.44.87-4.6,3.24,0,1.64-.16,3.8-.16,8.59V42.89h-2L60.42,16V28.85c0,4.63.16,6.95.26,8.44.11,2.62,1.42,3.39,5.19,3.7v1.44H53.15V41c3.24-.26,4.5-1,4.71-3.55.16-1.64.26-4,.26-8.64V15.68a4.39,4.39,0,0,0-1-3.39c-1-1.29-2.09-1.6-4.65-1.85V9h7.85L82.46,34.87V22.27c0-4.79-.11-7-.26-8.54-.16-2.32-1.37-3-5.55-3.29V9H89.57Z" transform="translate(0 -7.06)"/><path class="cls-4" d="M108.31,9c7.38,0,12,1.44,15.29,4.47a14.77,14.77,0,0,1,4.44,11c0,6-2.51,10.9-6.54,13.89s-9,4.06-15.49,4.06H93.76V41c4.51-.41,4.71-.77,4.71-5V15.48c0-4.43-.62-4.63-4.71-5V9ZM103,35.59c0,3.86,1.67,4.94,5.6,4.94,9.42,0,14.23-6.33,14.23-15.33,0-5.61-1.93-9.88-6.07-12.35-2.41-1.49-5.44-2-9-2-2.35,0-3.61.31-4.13.72s-.68.87-.68,2.88Z" transform="translate(0 -7.06)"/><path class="cls-4" d="M133.12,42.43V41c4.3-.46,4.71-.67,4.71-5V15.53c0-4.42-.41-4.63-4.71-5.09V9h14v1.44c-4.34.46-4.76.67-4.76,5.09V36c0,4.42.42,4.58,4.76,5v1.44Z" transform="translate(0 -7.06)"/><path class="cls-4" d="M183.47,34.2A63.56,63.56,0,0,1,180.59,42,48.35,48.35,0,0,1,171,43.2c-12.51,0-18.9-8.18-18.9-17.18,0-10.49,8.12-17.74,19.84-17.74a54.15,54.15,0,0,1,9.89,1.18c.21,2.31.58,5.4,1,8l-1.62.36c-1-3.44-2.3-5.55-5-6.63a14.5,14.5,0,0,0-5.5-1c-8.63,0-13.18,6.27-13.18,14.76,0,9.93,5.23,16.31,13.71,16.31,5.34,0,7.95-2.42,10.62-7.56Z" transform="translate(0 -7.06)"/><path class="cls-4" d="M208.18,42.43V41c3.4-.41,3.82-.93,3.09-2.88s-1.73-4.58-2.83-7.82h-11.3c-.84,2.32-1.63,4.32-2.36,6.43-1.15,3.34-.42,3.76,3.87,4.27v1.44H186.56V41c3.3-.41,4.14-.77,6-5.4l10.83-27,1.68-.3c3.3,8.79,6.91,18.51,10.2,27.41,1.68,4.48,2.15,4.89,5.87,5.3v1.44ZM202.94,15c-1.67,4.43-3.45,9.11-5,13.17h9.79Z" transform="translate(0 -7.06)"/><path class="cls-4" d="M246.54,17.07a19.28,19.28,0,0,0-1.67-4.27c-.84-1.39-1.36-1.75-4.24-1.75H235.4V36.1c0,4,.42,4.58,5.39,4.89v1.44H225.56V41c4.86-.31,5.28-.82,5.28-4.89v-25h-4.76c-2.88,0-3.72.31-4.61,1.86a23.64,23.64,0,0,0-1.72,4.16h-1.57c.31-3.14.63-6.38.78-9.26h1.21C221,9.05,221.53,9,223,9h20.73a2.65,2.65,0,0,0,2.67-1.19h1.25c0,2.42.21,6.12.47,9.11Z" transform="translate(0 -7.06)"/><path class="cls-4" d="M270.1,8.28a16.67,16.67,0,0,1,16.95,17c0,11.06-7.64,18-17.27,18-10,0-17.37-7.51-17.37-17.18C252.41,16.81,259.05,8.28,270.1,8.28Zm-1.05,1.9c-5.86,0-11.2,4.83-11.2,14.45s5.34,16.62,12.77,16.62c6.33,0,11.1-4.63,11.1-14.56C281.72,15.89,275.91,10.18,269.05,10.18Z" transform="translate(0 -7.06)"/></svg>